<svg width="653" height="228" viewBox="0 0 653 228" fill="none" xmlns="http://www.w3.org/2000/svg">
<circle cx="70.5" cy="94.5" r="70.5" fill="url(#paint0_linear_6_33)"/>
<circle cx="107" cy="15" r="9" fill="url(#paint1_linear_6_33)"/>
<circle cx="120" cy="28" r="4" fill="url(#paint2_linear_6_33)"/>
<circle cx="104.5" cy="2.5" r="2.5" fill="url(#paint3_linear_6_33)"/>
<circle cx="582.5" cy="94.5" r="70.5" fill="url(#paint4_linear_6_33)"/>
<circle cx="622.5" cy="20.5" r="9.5" fill="url(#paint5_linear_6_33)"/>
<circle cx="635" cy="35" r="3" fill="url(#paint6_linear_6_33)"/>
<circle cx="335.5" cy="94.5" r="70.5" fill="url(#paint7_linear_6_33)"/>
<circle cx="385.5" cy="22.7422" r="7.5" transform="rotate(57.021 385.5 22.7422)" fill="url(#paint8_linear_6_33)"/>
<circle cx="381.458" cy="7.70025" r="2.5" transform="rotate(-175.204 381.458 7.70025)" fill="url(#paint9_linear_6_33)"/>
<path d="M43.7898 103.259C42.8172 103.252 41.8786 103.089 40.9737 102.769C40.075 102.449 39.2687 101.929 38.5547 101.209C37.8407 100.489 37.2744 99.5346 36.8558 98.3466C36.4434 97.1586 36.2372 95.6998 36.2372 93.9702C36.2434 92.3821 36.425 90.9633 36.782 89.7138C37.1451 88.4581 37.6622 87.3932 38.3331 86.5192C39.0102 85.6451 39.8196 84.9803 40.7614 84.5249C41.7031 84.0632 42.7588 83.8324 43.9283 83.8324C45.1901 83.8324 46.3042 84.0786 47.2706 84.571C48.237 85.0573 49.0125 85.719 49.5973 86.5561C50.1882 87.3932 50.5452 88.3319 50.6683 89.3722H46.7259C46.572 88.7135 46.2488 88.1965 45.7564 87.821C45.264 87.4455 44.6546 87.2578 43.9283 87.2578C42.6972 87.2578 41.7616 87.7933 41.1214 88.8643C40.4875 89.9354 40.1643 91.3911 40.152 93.2315H40.2812C40.5644 92.6714 40.946 92.1944 41.4261 91.8004C41.9124 91.4003 42.4633 91.0956 43.0788 90.8864C43.7005 90.6709 44.3561 90.5632 45.0455 90.5632C46.1657 90.5632 47.1629 90.8279 48.0369 91.3572C48.911 91.8804 49.6004 92.6006 50.1051 93.5178C50.6098 94.4349 50.8622 95.4844 50.8622 96.6662C50.8622 97.9465 50.5637 99.0852 49.9666 100.082C49.3757 101.08 48.5478 101.861 47.483 102.428C46.4242 102.988 45.1932 103.265 43.7898 103.259ZM43.7713 100.119C44.3868 100.119 44.9377 99.9716 45.424 99.6761C45.9103 99.3807 46.2919 98.9806 46.5689 98.4759C46.8459 97.9711 46.9844 97.4048 46.9844 96.777C46.9844 96.1491 46.8459 95.5859 46.5689 95.0874C46.2981 94.5888 45.9226 94.1918 45.4425 93.8963C44.9624 93.6009 44.4145 93.4531 43.799 93.4531C43.3374 93.4531 42.9096 93.5393 42.5156 93.7116C42.1278 93.884 41.7862 94.1241 41.4908 94.4318C41.2015 94.7396 40.9737 95.0966 40.8075 95.5028C40.6413 95.9029 40.5582 96.3307 40.5582 96.7862C40.5582 97.3956 40.6967 97.9527 40.9737 98.4574C41.2569 98.9621 41.6385 99.3653 42.1186 99.6669C42.6049 99.9685 43.1558 100.119 43.7713 100.119ZM61.1108 103.415C59.5227 103.409 58.1563 103.018 57.0114 102.243C55.8726 101.467 54.9955 100.344 54.38 98.8729C53.7706 97.4018 53.469 95.6321 53.4751 93.5639C53.4751 91.5019 53.7798 89.7446 54.3892 88.2919C55.0047 86.8393 55.8819 85.7344 57.0206 84.9773C58.1655 84.214 59.5289 83.8324 61.1108 83.8324C62.6927 83.8324 64.053 84.214 65.1918 84.9773C66.3366 85.7405 67.2169 86.8485 67.8324 88.3011C68.4479 89.7476 68.7526 91.5019 68.7464 93.5639C68.7464 95.6383 68.4387 97.411 67.8232 98.8821C67.2138 100.353 66.3397 101.477 65.201 102.252C64.0623 103.028 62.6989 103.415 61.1108 103.415ZM61.1108 100.101C62.1941 100.101 63.0589 99.5561 63.7053 98.4666C64.3516 97.3771 64.6716 95.7429 64.6655 93.5639C64.6655 92.1297 64.5178 90.9356 64.2223 89.9815C63.933 89.0275 63.5206 88.3104 62.9851 87.8303C62.4557 87.3501 61.831 87.1101 61.1108 87.1101C60.0336 87.1101 59.1719 87.6487 58.5256 88.7259C57.8793 89.803 57.553 91.4157 57.5469 93.5639C57.5469 95.0166 57.6915 96.2292 57.9808 97.2017C58.2763 98.1681 58.6918 98.8944 59.2273 99.3807C59.7628 99.8608 60.3906 100.101 61.1108 100.101ZM79.0112 103.415C77.4231 103.409 76.0566 103.018 74.9118 102.243C73.773 101.467 72.8959 100.344 72.2804 98.8729C71.671 97.4018 71.3694 95.6321 71.3755 93.5639C71.3755 91.5019 71.6802 89.7446 72.2896 88.2919C72.9051 86.8393 73.7823 85.7344 74.921 84.9773C76.0659 84.214 77.4293 83.8324 79.0112 83.8324C80.5931 83.8324 81.9534 84.214 83.0922 84.9773C84.237 85.7405 85.1172 86.8485 85.7328 88.3011C86.3483 89.7476 86.653 91.5019 86.6468 93.5639C86.6468 95.6383 86.3391 97.411 85.7235 98.8821C85.1142 100.353 84.2401 101.477 83.1014 102.252C81.9627 103.028 80.5993 103.415 79.0112 103.415ZM79.0112 100.101C80.0945 100.101 80.9593 99.5561 81.6056 98.4666C82.252 97.3771 82.572 95.7429 82.5659 93.5639C82.5659 92.1297 82.4181 90.9356 82.1227 89.9815C81.8334 89.0275 81.421 88.3104 80.8855 87.8303C80.3561 87.3501 79.7314 87.1101 79.0112 87.1101C77.934 87.1101 77.0723 87.6487 76.426 88.7259C75.7797 89.803 75.4534 91.4157 75.4473 93.5639C75.4473 95.0166 75.5919 96.2292 75.8812 97.2017C76.1767 98.1681 76.5922 98.8944 77.1277 99.3807C77.6632 99.8608 78.291 100.101 79.0112 100.101ZM89.6083 103V84.0909H93.6062V92.4283H93.8555L100.66 84.0909H105.452L98.435 92.5575L105.535 103H100.752L95.5728 95.2259L93.6062 97.6264V103H89.6083Z" fill="#F2F2F2"/>
<path d="M309.759 84.0909V103H305.761V87.8857H305.651L301.32 90.6001V87.0547L306.001 84.0909H309.759ZM321.667 103.415C320.079 103.409 318.713 103.018 317.568 102.243C316.429 101.467 315.552 100.344 314.937 98.8729C314.327 97.4018 314.026 95.6321 314.032 93.5639C314.032 91.5019 314.336 89.7446 314.946 88.2919C315.561 86.8393 316.439 85.7344 317.577 84.9773C318.722 84.214 320.086 83.8324 321.667 83.8324C323.249 83.8324 324.61 84.214 325.748 84.9773C326.893 85.7405 327.773 86.8485 328.389 88.3011C329.005 89.7476 329.309 91.5019 329.303 93.5639C329.303 95.6383 328.995 97.411 328.38 98.8821C327.77 100.353 326.896 101.477 325.758 102.252C324.619 103.028 323.256 103.415 321.667 103.415ZM321.667 100.101C322.751 100.101 323.616 99.5561 324.262 98.4666C324.908 97.3771 325.228 95.7429 325.222 93.5639C325.222 92.1297 325.074 90.9356 324.779 89.9815C324.49 89.0275 324.077 88.3104 323.542 87.8303C323.012 87.3501 322.388 87.1101 321.667 87.1101C320.59 87.1101 319.729 87.6487 319.082 88.7259C318.436 89.803 318.11 91.4157 318.104 93.5639C318.104 95.0166 318.248 96.2292 318.537 97.2017C318.833 98.1681 319.248 98.8944 319.784 99.3807C320.319 99.8608 320.947 100.101 321.667 100.101ZM339.568 103.415C337.98 103.409 336.613 103.018 335.468 102.243C334.33 101.467 333.453 100.344 332.837 98.8729C332.228 97.4018 331.926 95.6321 331.932 93.5639C331.932 91.5019 332.237 89.7446 332.846 88.2919C333.462 86.8393 334.339 85.7344 335.478 84.9773C336.623 84.214 337.986 83.8324 339.568 83.8324C341.15 83.8324 342.51 84.214 343.649 84.9773C344.794 85.7405 345.674 86.8485 346.289 88.3011C346.905 89.7476 347.21 91.5019 347.203 93.5639C347.203 95.6383 346.896 97.411 346.28 98.8821C345.671 100.353 344.797 101.477 343.658 102.252C342.519 103.028 341.156 103.415 339.568 103.415ZM339.568 100.101C340.651 100.101 341.516 99.5561 342.162 98.4666C342.809 97.3771 343.129 95.7429 343.123 93.5639C343.123 92.1297 342.975 90.9356 342.679 89.9815C342.39 89.0275 341.978 88.3104 341.442 87.8303C340.913 87.3501 340.288 87.1101 339.568 87.1101C338.491 87.1101 337.629 87.6487 336.983 88.7259C336.336 89.803 336.01 91.4157 336.004 93.5639C336.004 95.0166 336.149 96.2292 336.438 97.2017C336.733 98.1681 337.149 98.8944 337.684 99.3807C338.22 99.8608 338.848 100.101 339.568 100.101ZM350.165 103V84.0909H354.163V92.4283H354.412L361.217 84.0909H366.009L358.992 92.5575L366.092 103H361.309L356.129 95.2259L354.163 97.6264V103H350.165Z" fill="#F2F2F2"/>
<path d="M555.439 103.259C554.134 103.259 552.971 103.018 551.949 102.538C550.933 102.058 550.127 101.397 549.53 100.553C548.933 99.71 548.622 98.7436 548.597 97.6541H552.475C552.518 98.3866 552.826 98.9806 553.398 99.4361C553.971 99.8916 554.651 100.119 555.439 100.119C556.067 100.119 556.621 99.9808 557.101 99.7038C557.587 99.4207 557.966 99.0298 558.237 98.5312C558.513 98.0265 558.652 97.4479 558.652 96.7955C558.652 96.1307 558.51 95.5459 558.227 95.0412C557.95 94.5365 557.566 94.1425 557.073 93.8594C556.581 93.5762 556.018 93.4316 555.384 93.4254C554.83 93.4254 554.291 93.5393 553.768 93.767C553.251 93.9948 552.848 94.3056 552.558 94.6996L549.004 94.0625L549.899 84.0909H561.459V87.3594H553.195L552.706 92.0959H552.817C553.149 91.6281 553.651 91.2403 554.322 90.9325C554.993 90.6248 555.744 90.4709 556.575 90.4709C557.713 90.4709 558.729 90.7386 559.621 91.2741C560.514 91.8097 561.219 92.5452 561.736 93.4808C562.253 94.4103 562.508 95.4813 562.502 96.6939C562.508 97.968 562.213 99.1006 561.616 100.092C561.025 101.076 560.197 101.852 559.132 102.418C558.073 102.978 556.842 103.259 555.439 103.259ZM572.705 103.415C571.116 103.409 569.75 103.018 568.605 102.243C567.466 101.467 566.589 100.344 565.974 98.8729C565.364 97.4018 565.063 95.6321 565.069 93.5639C565.069 91.5019 565.374 89.7446 565.983 88.2919C566.598 86.8393 567.476 85.7344 568.614 84.9773C569.759 84.214 571.123 83.8324 572.705 83.8324C574.286 83.8324 575.647 84.214 576.786 84.9773C577.93 85.7405 578.811 86.8485 579.426 88.3011C580.042 89.7476 580.346 91.5019 580.34 93.5639C580.34 95.6383 580.032 97.411 579.417 98.8821C578.808 100.353 577.933 101.477 576.795 102.252C575.656 103.028 574.293 103.415 572.705 103.415ZM572.705 100.101C573.788 100.101 574.653 99.5561 575.299 98.4666C575.945 97.3771 576.265 95.7429 576.259 93.5639C576.259 92.1297 576.112 90.9356 575.816 89.9815C575.527 89.0275 575.114 88.3104 574.579 87.8303C574.049 87.3501 573.425 87.1101 572.705 87.1101C571.627 87.1101 570.766 87.6487 570.119 88.7259C569.473 89.803 569.147 91.4157 569.141 93.5639C569.141 95.0166 569.285 96.2292 569.575 97.2017C569.87 98.1681 570.286 98.8944 570.821 99.3807C571.357 99.8608 571.984 100.101 572.705 100.101ZM590.605 103.415C589.017 103.409 587.65 103.018 586.506 102.243C585.367 101.467 584.49 100.344 583.874 98.8729C583.265 97.4018 582.963 95.6321 582.969 93.5639C582.969 91.5019 583.274 89.7446 583.883 88.2919C584.499 86.8393 585.376 85.7344 586.515 84.9773C587.66 84.214 589.023 83.8324 590.605 83.8324C592.187 83.8324 593.547 84.214 594.686 84.9773C595.831 85.7405 596.711 86.8485 597.327 88.3011C597.942 89.7476 598.247 91.5019 598.241 93.5639C598.241 95.6383 597.933 97.411 597.317 98.8821C596.708 100.353 595.834 101.477 594.695 102.252C593.556 103.028 592.193 103.415 590.605 103.415ZM590.605 100.101C591.688 100.101 592.553 99.5561 593.199 98.4666C593.846 97.3771 594.166 95.7429 594.16 93.5639C594.16 92.1297 594.012 90.9356 593.716 89.9815C593.427 89.0275 593.015 88.3104 592.479 87.8303C591.95 87.3501 591.325 87.1101 590.605 87.1101C589.528 87.1101 588.666 87.6487 588.02 88.7259C587.373 89.803 587.047 91.4157 587.041 93.5639C587.041 95.0166 587.186 96.2292 587.475 97.2017C587.77 98.1681 588.186 98.8944 588.721 99.3807C589.257 99.8608 589.885 100.101 590.605 100.101ZM606.742 100.119V87.0455H610.047V100.119H606.742ZM601.858 95.2351V91.9297H614.931V95.2351H601.858Z" fill="#F2F2F2"/>
<path d="M4.34153 202V188.909H6.31667V200.3H12.2485V202H4.34153ZM18.5798 202.198C17.6125 202.198 16.7794 201.991 16.0805 201.578C15.3859 201.161 14.849 200.575 14.4697 199.82C14.0947 199.062 13.9072 198.173 13.9072 197.155C13.9072 196.149 14.0947 195.263 14.4697 194.496C14.849 193.729 15.3774 193.13 16.055 192.7C16.7368 192.269 17.5336 192.054 18.4456 192.054C18.9996 192.054 19.5365 192.146 20.0564 192.329C20.5763 192.512 21.0429 192.8 21.4562 193.192C21.8696 193.584 22.1956 194.093 22.4342 194.719C22.6729 195.342 22.7922 196.098 22.7922 196.989V197.666H14.9875V196.234H20.9193C20.9193 195.732 20.817 195.286 20.6125 194.898C20.4079 194.506 20.1203 194.197 19.7496 193.972C19.3831 193.746 18.9527 193.633 18.4584 193.633C17.9214 193.633 17.4527 193.765 17.0521 194.029C16.6558 194.289 16.349 194.63 16.1317 195.052C15.9186 195.469 15.8121 195.923 15.8121 196.413V197.532C15.8121 198.188 15.9271 198.746 16.1572 199.207C16.3916 199.667 16.7176 200.018 17.1352 200.261C17.5528 200.5 18.0407 200.619 18.599 200.619C18.9612 200.619 19.2915 200.568 19.5898 200.466C19.8881 200.359 20.1459 200.202 20.3632 199.993C20.5805 199.784 20.7467 199.526 20.8618 199.219L22.6707 199.545C22.5258 200.078 22.2659 200.545 21.8909 200.945C21.5202 201.342 21.0535 201.651 20.491 201.872C19.9328 202.089 19.2957 202.198 18.5798 202.198ZM27.77 202.217C27.1478 202.217 26.5853 202.102 26.0825 201.872C25.5796 201.638 25.1812 201.299 24.8872 200.856C24.5974 200.413 24.4525 199.869 24.4525 199.226C24.4525 198.672 24.559 198.216 24.7721 197.858C24.9852 197.5 25.2728 197.217 25.635 197.008C25.9972 196.799 26.4021 196.641 26.8495 196.535C27.297 196.428 27.7529 196.347 28.2174 196.292C28.8055 196.224 29.2828 196.168 29.6492 196.126C30.0157 196.079 30.282 196.004 30.4482 195.902C30.6144 195.8 30.6975 195.634 30.6975 195.403V195.359C30.6975 194.8 30.5399 194.368 30.2245 194.061C29.9134 193.754 29.449 193.601 28.8311 193.601C28.1876 193.601 27.6805 193.744 27.3097 194.029C26.9433 194.31 26.6897 194.624 26.5491 194.969L24.7529 194.56C24.966 193.963 25.2771 193.482 25.6862 193.115C26.0995 192.744 26.5747 192.476 27.1116 192.31C27.6485 192.139 28.2132 192.054 28.8055 192.054C29.1975 192.054 29.613 192.101 30.0519 192.195C30.4951 192.284 30.9085 192.45 31.292 192.693C31.6798 192.936 31.9972 193.283 32.2444 193.735C32.4916 194.183 32.6151 194.764 32.6151 195.48V202H30.7487V200.658H30.672C30.5484 200.905 30.363 201.148 30.1159 201.386C29.8687 201.625 29.5512 201.823 29.1634 201.981C28.7757 202.138 28.3112 202.217 27.77 202.217ZM28.1855 200.683C28.7139 200.683 29.1656 200.579 29.5406 200.37C29.9198 200.161 30.2075 199.888 30.4035 199.552C30.6038 199.211 30.7039 198.847 30.7039 198.459V197.193C30.6357 197.261 30.5036 197.325 30.3076 197.385C30.1159 197.44 29.8964 197.489 29.6492 197.532C29.4021 197.57 29.1613 197.607 28.9269 197.641C28.6926 197.67 28.4965 197.696 28.3389 197.717C27.9681 197.764 27.6294 197.843 27.3225 197.954C27.02 198.065 26.7771 198.224 26.5938 198.433C26.4149 198.638 26.3254 198.911 26.3254 199.251C26.3254 199.724 26.5001 200.082 26.8495 200.325C27.199 200.564 27.6443 200.683 28.1855 200.683ZM35.1608 202V192.182H37.0081V193.741H37.1104C37.2893 193.213 37.6047 192.798 38.0564 192.495C38.5123 192.188 39.028 192.035 39.6032 192.035C39.7226 192.035 39.8632 192.039 40.0251 192.048C40.1913 192.056 40.3213 192.067 40.415 192.08V193.908C40.3383 193.886 40.202 193.863 40.0059 193.837C39.8099 193.808 39.6139 193.793 39.4179 193.793C38.9662 193.793 38.5635 193.888 38.2098 194.08C37.8604 194.268 37.5834 194.53 37.3788 194.866C37.1743 195.199 37.072 195.578 37.072 196.004V202H35.1608ZM43.9802 196.17V202H42.069V192.182H43.9035V193.78H44.0249C44.2508 193.26 44.6045 192.842 45.086 192.527C45.5718 192.212 46.1833 192.054 46.9205 192.054C47.5896 192.054 48.1755 192.195 48.6784 192.476C49.1812 192.753 49.5711 193.166 49.8481 193.716C50.1251 194.266 50.2636 194.945 50.2636 195.755V202H48.3524V195.985C48.3524 195.273 48.167 194.717 47.7963 194.317C47.4255 193.912 46.9163 193.71 46.2686 193.71C45.8254 193.71 45.4312 193.805 45.086 193.997C44.7451 194.189 44.4745 194.47 44.2742 194.841C44.0782 195.207 43.9802 195.651 43.9802 196.17ZM57.0583 202.198C56.091 202.198 55.2579 201.991 54.559 201.578C53.8644 201.161 53.3275 200.575 52.9482 199.82C52.5732 199.062 52.3857 198.173 52.3857 197.155C52.3857 196.149 52.5732 195.263 52.9482 194.496C53.3275 193.729 53.8559 193.13 54.5335 192.7C55.2153 192.269 56.0122 192.054 56.9241 192.054C57.4781 192.054 58.015 192.146 58.5349 192.329C59.0548 192.512 59.5214 192.8 59.9347 193.192C60.3481 193.584 60.6741 194.093 60.9127 194.719C61.1514 195.342 61.2707 196.098 61.2707 196.989V197.666H53.466V196.234H59.3978C59.3978 195.732 59.2955 195.286 59.091 194.898C58.8865 194.506 58.5988 194.197 58.2281 193.972C57.8616 193.746 57.4312 193.633 56.9369 193.633C56.3999 193.633 55.9312 193.765 55.5306 194.029C55.1343 194.289 54.8275 194.63 54.6102 195.052C54.3971 195.469 54.2906 195.923 54.2906 196.413V197.532C54.2906 198.188 54.4056 198.746 54.6357 199.207C54.8701 199.667 55.1961 200.018 55.6137 200.261C56.0313 200.5 56.5193 200.619 57.0775 200.619C57.4397 200.619 57.77 200.568 58.0683 200.466C58.3666 200.359 58.6244 200.202 58.8417 199.993C59.059 199.784 59.2252 199.526 59.3403 199.219L61.1492 199.545C61.0044 200.078 60.7444 200.545 60.3694 200.945C59.9987 201.342 59.532 201.651 58.9695 201.872C58.4113 202.089 57.7742 202.198 57.0583 202.198ZM63.3912 202V192.182H65.2385V193.741H65.3408C65.5198 193.213 65.8351 192.798 66.2868 192.495C66.7428 192.188 67.2584 192.035 67.8337 192.035C67.953 192.035 68.0937 192.039 68.2556 192.048C68.4218 192.056 68.5518 192.067 68.6455 192.08V193.908C68.5688 193.886 68.4324 193.863 68.2364 193.837C68.0404 193.808 67.8444 193.793 67.6483 193.793C67.1966 193.793 66.7939 193.888 66.4403 194.08C66.0908 194.268 65.8138 194.53 65.6093 194.866C65.4047 195.199 65.3025 195.578 65.3025 196.004V202H63.3912ZM77.6567 194.579L75.9244 194.886C75.852 194.664 75.7369 194.453 75.5793 194.253C75.4259 194.053 75.2171 193.888 74.9529 193.761C74.6887 193.633 74.3584 193.569 73.9621 193.569C73.4209 193.569 72.9692 193.69 72.607 193.933C72.2448 194.172 72.0637 194.481 72.0637 194.86C72.0637 195.188 72.1851 195.452 72.428 195.653C72.6709 195.853 73.0629 196.017 73.6041 196.145L75.1638 196.503C76.0672 196.712 76.7405 197.033 77.1837 197.468C77.6269 197.903 77.8485 198.467 77.8485 199.162C77.8485 199.75 77.678 200.274 77.3371 200.734C77.0004 201.19 76.5296 201.548 75.9244 201.808C75.3236 202.068 74.6269 202.198 73.8343 202.198C72.7348 202.198 71.8378 201.964 71.1432 201.495C70.4486 201.022 70.0225 200.351 69.8648 199.482L71.7121 199.2C71.8271 199.682 72.0637 200.046 72.4216 200.293C72.7796 200.536 73.2462 200.658 73.8215 200.658C74.4479 200.658 74.9486 200.528 75.3236 200.268C75.6986 200.004 75.8861 199.682 75.8861 199.303C75.8861 198.996 75.771 198.738 75.5409 198.529C75.3151 198.32 74.9678 198.163 74.499 198.056L72.8371 197.692C71.9209 197.483 71.2433 197.151 70.8044 196.695C70.3698 196.239 70.1524 195.661 70.1524 194.962C70.1524 194.383 70.3144 193.876 70.6382 193.441C70.9621 193.006 71.4095 192.668 71.9806 192.425C72.5516 192.178 73.2057 192.054 73.9429 192.054C75.004 192.054 75.8392 192.284 76.4486 192.744C77.058 193.2 77.4607 193.812 77.6567 194.579ZM88.8492 202.198C87.9287 202.198 87.1254 201.987 86.4394 201.565C85.7533 201.143 85.2206 200.553 84.8414 199.795C84.4621 199.036 84.2725 198.15 84.2725 197.136C84.2725 196.117 84.4621 195.227 84.8414 194.464C85.2206 193.701 85.7533 193.109 86.4394 192.687C87.1254 192.265 87.9287 192.054 88.8492 192.054C89.7696 192.054 90.5729 192.265 91.259 192.687C91.945 193.109 92.4777 193.701 92.857 194.464C93.2362 195.227 93.4259 196.117 93.4259 197.136C93.4259 198.15 93.2362 199.036 92.857 199.795C92.4777 200.553 91.945 201.143 91.259 201.565C90.5729 201.987 89.7696 202.198 88.8492 202.198ZM88.8556 200.594C89.4521 200.594 89.9465 200.436 90.3385 200.121C90.7306 199.805 91.0203 199.386 91.2078 198.862C91.3996 198.337 91.4955 197.76 91.4955 197.129C91.4955 196.503 91.3996 195.928 91.2078 195.403C91.0203 194.875 90.7306 194.451 90.3385 194.131C89.9465 193.812 89.4521 193.652 88.8556 193.652C88.2547 193.652 87.7561 193.812 87.3598 194.131C86.9678 194.451 86.6759 194.875 86.4841 195.403C86.2966 195.928 86.2029 196.503 86.2029 197.129C86.2029 197.76 86.2966 198.337 86.4841 198.862C86.6759 199.386 86.9678 199.805 87.3598 200.121C87.7561 200.436 88.2547 200.594 88.8556 200.594ZM97.4704 196.17V202H95.5592V192.182H97.3937V193.78H97.5152C97.741 193.26 98.0947 192.842 98.5763 192.527C99.0621 192.212 99.6736 192.054 100.411 192.054C101.08 192.054 101.666 192.195 102.169 192.476C102.671 192.753 103.061 193.166 103.338 193.716C103.615 194.266 103.754 194.945 103.754 195.755V202H101.843V195.985C101.843 195.273 101.657 194.717 101.286 194.317C100.916 193.912 100.407 193.71 99.7588 193.71C99.3156 193.71 98.9214 193.805 98.5763 193.997C98.2354 194.189 97.9648 194.47 97.7645 194.841C97.5684 195.207 97.4704 195.651 97.4704 196.17ZM115.664 192.182V193.716H110.301V192.182H115.664ZM111.739 189.83H113.65V199.117C113.65 199.488 113.706 199.767 113.816 199.955C113.927 200.138 114.07 200.263 114.245 200.332C114.424 200.396 114.618 200.428 114.826 200.428C114.98 200.428 115.114 200.417 115.229 200.396C115.344 200.374 115.434 200.357 115.498 200.344L115.843 201.923C115.732 201.966 115.574 202.009 115.37 202.051C115.165 202.098 114.91 202.124 114.603 202.128C114.1 202.136 113.631 202.047 113.196 201.859C112.762 201.672 112.41 201.382 112.142 200.99C111.873 200.598 111.739 200.106 111.739 199.513V189.83ZM119.9 196.17V202H117.989V188.909H119.875V193.78H119.996C120.226 193.251 120.578 192.832 121.051 192.521C121.524 192.21 122.142 192.054 122.904 192.054C123.578 192.054 124.166 192.192 124.669 192.469C125.176 192.746 125.568 193.16 125.845 193.71C126.126 194.255 126.267 194.937 126.267 195.755V202H124.355V195.985C124.355 195.265 124.17 194.707 123.799 194.31C123.429 193.91 122.913 193.71 122.252 193.71C121.801 193.71 121.396 193.805 121.038 193.997C120.684 194.189 120.405 194.47 120.201 194.841C120 195.207 119.9 195.651 119.9 196.17ZM133.049 202.198C132.081 202.198 131.248 201.991 130.549 201.578C129.855 201.161 129.318 200.575 128.938 199.82C128.563 199.062 128.376 198.173 128.376 197.155C128.376 196.149 128.563 195.263 128.938 194.496C129.318 193.729 129.846 193.13 130.524 192.7C131.206 192.269 132.002 192.054 132.914 192.054C133.468 192.054 134.005 192.146 134.525 192.329C135.045 192.512 135.512 192.8 135.925 193.192C136.338 193.584 136.664 194.093 136.903 194.719C137.142 195.342 137.261 196.098 137.261 196.989V197.666H129.456V196.234H135.388C135.388 195.732 135.286 195.286 135.081 194.898C134.877 194.506 134.589 194.197 134.218 193.972C133.852 193.746 133.421 193.633 132.927 193.633C132.39 193.633 131.921 193.765 131.521 194.029C131.125 194.289 130.818 194.63 130.6 195.052C130.387 195.469 130.281 195.923 130.281 196.413V197.532C130.281 198.188 130.396 198.746 130.626 199.207C130.86 199.667 131.186 200.018 131.604 200.261C132.022 200.5 132.509 200.619 133.068 200.619C133.43 200.619 133.76 200.568 134.059 200.466C134.357 200.359 134.615 200.202 134.832 199.993C135.049 199.784 135.215 199.526 135.331 199.219L137.139 199.545C136.995 200.078 136.735 200.545 136.36 200.945C135.989 201.342 135.522 201.651 134.96 201.872C134.402 202.089 133.764 202.198 133.049 202.198ZM35.5563 227.682V214.182H37.4228V215.773H37.5826C37.6934 215.569 37.8532 215.332 38.062 215.064C38.2708 214.795 38.5605 214.561 38.9313 214.361C39.302 214.156 39.7921 214.054 40.4015 214.054C41.1941 214.054 41.9015 214.254 42.5236 214.655C43.1458 215.055 43.6337 215.633 43.9874 216.387C44.3453 217.141 44.5243 218.049 44.5243 219.11C44.5243 220.171 44.3475 221.081 43.9938 221.839C43.6401 222.594 43.1543 223.175 42.5364 223.585C41.9185 223.989 41.2132 224.192 40.4206 224.192C39.824 224.192 39.3361 224.092 38.9569 223.891C38.5819 223.691 38.2878 223.457 38.0748 223.188C37.8617 222.92 37.6976 222.681 37.5826 222.472H37.4675V227.682H35.5563ZM37.4292 219.091C37.4292 219.781 37.5293 220.386 37.7296 220.906C37.9299 221.426 38.2196 221.833 38.5989 222.127C38.9782 222.417 39.4426 222.562 39.9924 222.562C40.5634 222.562 41.0407 222.411 41.4242 222.108C41.8077 221.801 42.0975 221.386 42.2935 220.862C42.4938 220.337 42.5939 219.747 42.5939 219.091C42.5939 218.443 42.4959 217.862 42.2999 217.346C42.1081 216.83 41.8184 216.423 41.4306 216.125C41.0471 215.827 40.5676 215.678 39.9924 215.678C39.4384 215.678 38.9696 215.82 38.5861 216.106C38.2069 216.391 37.9192 216.79 37.7232 217.301C37.5272 217.812 37.4292 218.409 37.4292 219.091ZM48.5769 210.909V224H46.6657V210.909H48.5769ZM54.0053 224.217C53.3832 224.217 52.8207 224.102 52.3178 223.872C51.815 223.638 51.4165 223.299 51.1225 222.856C50.8327 222.413 50.6879 221.869 50.6879 221.226C50.6879 220.672 50.7944 220.216 51.0075 219.858C51.2205 219.5 51.5082 219.217 51.8704 219.008C52.2326 218.799 52.6374 218.641 53.0849 218.535C53.5323 218.428 53.9883 218.347 54.4528 218.292C55.0408 218.224 55.5181 218.168 55.8846 218.126C56.2511 218.079 56.5174 218.004 56.6836 217.902C56.8498 217.8 56.9329 217.634 56.9329 217.403V217.359C56.9329 216.8 56.7752 216.368 56.4599 216.061C56.1488 215.754 55.6843 215.601 55.0664 215.601C54.4229 215.601 53.9158 215.744 53.5451 216.029C53.1786 216.31 52.9251 216.624 52.7844 216.969L50.9883 216.56C51.2013 215.963 51.5124 215.482 51.9215 215.115C52.3349 214.744 52.81 214.476 53.3469 214.31C53.8839 214.139 54.4485 214.054 55.0408 214.054C55.4329 214.054 55.8484 214.101 56.2873 214.195C56.7305 214.284 57.1438 214.45 57.5273 214.693C57.9151 214.936 58.2326 215.283 58.4798 215.735C58.7269 216.183 58.8505 216.764 58.8505 217.48V224H56.984V222.658H56.9073C56.7837 222.905 56.5984 223.148 56.3512 223.386C56.104 223.625 55.7866 223.823 55.3988 223.981C55.011 224.138 54.5465 224.217 54.0053 224.217ZM54.4208 222.683C54.9492 222.683 55.4009 222.579 55.7759 222.37C56.1552 222.161 56.4428 221.888 56.6388 221.552C56.8391 221.211 56.9393 220.847 56.9393 220.459V219.193C56.8711 219.261 56.739 219.325 56.543 219.385C56.3512 219.44 56.1317 219.489 55.8846 219.532C55.6374 219.57 55.3967 219.607 55.1623 219.641C54.9279 219.67 54.7319 219.696 54.5742 219.717C54.2035 219.764 53.8647 219.843 53.5579 219.954C53.2553 220.065 53.0124 220.224 52.8292 220.433C52.6502 220.638 52.5607 220.911 52.5607 221.251C52.5607 221.724 52.7354 222.082 53.0849 222.325C53.4343 222.564 53.8796 222.683 54.4208 222.683ZM65.9792 214.182V215.716H60.6163V214.182H65.9792ZM62.0545 211.83H63.9657V221.117C63.9657 221.488 64.0211 221.767 64.1319 221.955C64.2427 222.138 64.3855 222.263 64.5602 222.332C64.7392 222.396 64.9331 222.428 65.1419 222.428C65.2953 222.428 65.4295 222.417 65.5446 222.396C65.6596 222.374 65.7491 222.357 65.813 222.344L66.1582 223.923C66.0474 223.966 65.8897 224.009 65.6852 224.051C65.4806 224.098 65.225 224.124 64.9181 224.128C64.4153 224.136 63.9466 224.047 63.5119 223.859C63.0772 223.672 62.7257 223.382 62.4572 222.99C62.1887 222.598 62.0545 222.106 62.0545 221.513V211.83ZM72.766 214.182V215.716H67.2177V214.182H72.766ZM68.739 224V213.044C68.739 212.43 68.8732 211.921 69.1417 211.516C69.4102 211.107 69.766 210.803 70.2092 210.602C70.6523 210.398 71.1339 210.295 71.6538 210.295C72.0373 210.295 72.3654 210.327 72.6381 210.391C72.9109 210.451 73.1133 210.506 73.2454 210.558L72.7979 212.104C72.7085 212.079 72.5934 212.049 72.4528 212.015C72.3121 211.977 72.1417 211.957 71.9414 211.957C71.4769 211.957 71.1445 212.072 70.9442 212.303C70.7482 212.533 70.6502 212.865 70.6502 213.3V224H68.739ZM78.4869 224.198C77.5664 224.198 76.7631 223.987 76.0771 223.565C75.391 223.143 74.8583 222.553 74.479 221.795C74.0998 221.036 73.9102 220.15 73.9102 219.136C73.9102 218.117 74.0998 217.227 74.479 216.464C74.8583 215.701 75.391 215.109 76.0771 214.687C76.7631 214.265 77.5664 214.054 78.4869 214.054C79.4073 214.054 80.2106 214.265 80.8967 214.687C81.5827 215.109 82.1154 215.701 82.4947 216.464C82.8739 217.227 83.0636 218.117 83.0636 219.136C83.0636 220.15 82.8739 221.036 82.4947 221.795C82.1154 222.553 81.5827 223.143 80.8967 223.565C80.2106 223.987 79.4073 224.198 78.4869 224.198ZM78.4933 222.594C79.0898 222.594 79.5842 222.436 79.9762 222.121C80.3683 221.805 80.658 221.386 80.8455 220.862C81.0373 220.337 81.1332 219.76 81.1332 219.129C81.1332 218.503 81.0373 217.928 80.8455 217.403C80.658 216.875 80.3683 216.451 79.9762 216.131C79.5842 215.812 79.0898 215.652 78.4933 215.652C77.8924 215.652 77.3938 215.812 76.9975 216.131C76.6055 216.451 76.3136 216.875 76.1218 217.403C75.9343 217.928 75.8406 218.503 75.8406 219.129C75.8406 219.76 75.9343 220.337 76.1218 220.862C76.3136 221.386 76.6055 221.805 76.9975 222.121C77.3938 222.436 77.8924 222.594 78.4933 222.594ZM85.1969 224V214.182H87.0442V215.741H87.1465C87.3255 215.213 87.6408 214.798 88.0925 214.495C88.5485 214.188 89.0641 214.035 89.6394 214.035C89.7587 214.035 89.8993 214.039 90.0613 214.048C90.2275 214.056 90.3574 214.067 90.4512 214.08V215.908C90.3745 215.886 90.2381 215.863 90.0421 215.837C89.8461 215.808 89.65 215.793 89.454 215.793C89.0023 215.793 88.5996 215.888 88.2459 216.08C87.8965 216.268 87.6195 216.53 87.415 216.866C87.2104 217.199 87.1081 217.578 87.1081 218.004V224H85.1969ZM92.1051 224V214.182H93.9396V215.78H94.0611C94.2656 215.239 94.6001 214.817 95.0646 214.514C95.5291 214.207 96.0852 214.054 96.733 214.054C97.3892 214.054 97.9389 214.207 98.3821 214.514C98.8295 214.821 99.1598 215.243 99.3729 215.78H99.4751C99.7095 215.256 100.082 214.838 100.594 214.527C101.105 214.212 101.714 214.054 102.422 214.054C103.312 214.054 104.039 214.333 104.602 214.891C105.168 215.45 105.452 216.291 105.452 217.416V224H103.54V217.595C103.54 216.93 103.359 216.449 102.997 216.151C102.635 215.852 102.202 215.703 101.7 215.703C101.077 215.703 100.594 215.895 100.249 216.278C99.9034 216.658 99.7308 217.146 99.7308 217.742V224H97.826V217.474C97.826 216.941 97.6598 216.513 97.3274 216.189C96.995 215.865 96.5625 215.703 96.0298 215.703C95.6676 215.703 95.3331 215.799 95.0263 215.991C94.7237 216.178 94.4787 216.44 94.2912 216.777C94.108 217.114 94.0163 217.504 94.0163 217.947V224H92.1051Z" fill="#132356"/>
<path d="M524.549 188.909H526.53V197.519C526.53 198.435 526.315 199.247 525.885 199.955C525.454 200.658 524.849 201.212 524.07 201.616C523.29 202.017 522.376 202.217 521.327 202.217C520.283 202.217 519.371 202.017 518.592 201.616C517.812 201.212 517.207 200.658 516.776 199.955C516.346 199.247 516.131 198.435 516.131 197.519V188.909H518.106V197.359C518.106 197.952 518.236 198.478 518.496 198.938C518.76 199.398 519.133 199.761 519.614 200.025C520.096 200.285 520.667 200.415 521.327 200.415C521.992 200.415 522.565 200.285 523.047 200.025C523.533 199.761 523.903 199.398 524.159 198.938C524.419 198.478 524.549 197.952 524.549 197.359V188.909ZM531.16 196.17V202H529.249V192.182H531.083V193.78H531.205C531.43 193.26 531.784 192.842 532.266 192.527C532.752 192.212 533.363 192.054 534.1 192.054C534.769 192.054 535.355 192.195 535.858 192.476C536.361 192.753 536.751 193.166 537.028 193.716C537.305 194.266 537.443 194.945 537.443 195.755V202H535.532V195.985C535.532 195.273 535.347 194.717 534.976 194.317C534.605 193.912 534.096 193.71 533.448 193.71C533.005 193.71 532.611 193.805 532.266 193.997C531.925 194.189 531.654 194.47 531.454 194.841C531.258 195.207 531.16 195.651 531.16 196.17ZM540.006 202V192.182H541.918V202H540.006ZM540.972 190.667C540.639 190.667 540.354 190.556 540.115 190.335C539.881 190.109 539.764 189.84 539.764 189.529C539.764 189.214 539.881 188.945 540.115 188.724C540.354 188.498 540.639 188.385 540.972 188.385C541.304 188.385 541.587 188.498 541.822 188.724C542.06 188.945 542.18 189.214 542.18 189.529C542.18 189.84 542.06 190.109 541.822 190.335C541.587 190.556 541.304 190.667 540.972 190.667ZM551.117 205.682V200.472H551.002C550.887 200.681 550.721 200.92 550.504 201.188C550.291 201.457 549.997 201.691 549.622 201.891C549.247 202.092 548.761 202.192 548.164 202.192C547.372 202.192 546.664 201.989 546.042 201.585C545.424 201.175 544.938 200.594 544.585 199.839C544.235 199.081 544.061 198.171 544.061 197.11C544.061 196.049 544.237 195.141 544.591 194.387C544.949 193.633 545.439 193.055 546.061 192.655C546.684 192.254 547.389 192.054 548.177 192.054C548.786 192.054 549.277 192.156 549.647 192.361C550.022 192.561 550.312 192.795 550.517 193.064C550.725 193.332 550.887 193.569 551.002 193.773H551.162V192.182H553.029V205.682H551.117ZM548.586 200.562C549.136 200.562 549.6 200.417 549.98 200.127C550.363 199.833 550.653 199.426 550.849 198.906C551.049 198.386 551.149 197.781 551.149 197.091C551.149 196.409 551.051 195.812 550.855 195.301C550.659 194.79 550.372 194.391 549.992 194.106C549.613 193.82 549.144 193.678 548.586 193.678C548.011 193.678 547.532 193.827 547.148 194.125C546.764 194.423 546.475 194.83 546.279 195.346C546.087 195.862 545.991 196.443 545.991 197.091C545.991 197.747 546.089 198.337 546.285 198.862C546.481 199.386 546.771 199.801 547.154 200.108C547.542 200.411 548.019 200.562 548.586 200.562ZM561.818 197.928V192.182H563.735V202H561.856V200.3H561.754C561.528 200.824 561.166 201.261 560.667 201.61C560.173 201.955 559.557 202.128 558.82 202.128C558.189 202.128 557.631 201.989 557.145 201.712C556.664 201.431 556.284 201.016 556.007 200.466C555.735 199.916 555.598 199.237 555.598 198.427V192.182H557.509V198.197C557.509 198.866 557.695 199.398 558.066 199.795C558.436 200.191 558.918 200.389 559.51 200.389C559.868 200.389 560.224 200.3 560.578 200.121C560.936 199.942 561.232 199.671 561.466 199.309C561.705 198.947 561.822 198.487 561.818 197.928ZM570.535 202.198C569.568 202.198 568.734 201.991 568.036 201.578C567.341 201.161 566.804 200.575 566.425 199.82C566.05 199.062 565.862 198.173 565.862 197.155C565.862 196.149 566.05 195.263 566.425 194.496C566.804 193.729 567.332 193.13 568.01 192.7C568.692 192.269 569.489 192.054 570.401 192.054C570.955 192.054 571.492 192.146 572.011 192.329C572.531 192.512 572.998 192.8 573.411 193.192C573.825 193.584 574.151 194.093 574.389 194.719C574.628 195.342 574.747 196.098 574.747 196.989V197.666H566.943V196.234H572.874C572.874 195.732 572.772 195.286 572.568 194.898C572.363 194.506 572.075 194.197 571.705 193.972C571.338 193.746 570.908 193.633 570.413 193.633C569.877 193.633 569.408 193.765 569.007 194.029C568.611 194.289 568.304 194.63 568.087 195.052C567.874 195.469 567.767 195.923 567.767 196.413V197.532C567.767 198.188 567.882 198.746 568.112 199.207C568.347 199.667 568.673 200.018 569.09 200.261C569.508 200.5 569.996 200.619 570.554 200.619C570.916 200.619 571.247 200.568 571.545 200.466C571.843 200.359 572.101 200.202 572.318 199.993C572.536 199.784 572.702 199.526 572.817 199.219L574.626 199.545C574.481 200.078 574.221 200.545 573.846 200.945C573.475 201.342 573.009 201.651 572.446 201.872C571.888 202.089 571.251 202.198 570.535 202.198ZM581.631 205.682V192.182H583.498V193.773H583.658C583.769 193.569 583.928 193.332 584.137 193.064C584.346 192.795 584.636 192.561 585.006 192.361C585.377 192.156 585.867 192.054 586.477 192.054C587.269 192.054 587.977 192.254 588.599 192.655C589.221 193.055 589.709 193.633 590.063 194.387C590.421 195.141 590.6 196.049 590.6 197.11C590.6 198.171 590.423 199.081 590.069 199.839C589.715 200.594 589.229 201.175 588.612 201.585C587.994 201.989 587.288 202.192 586.496 202.192C585.899 202.192 585.411 202.092 585.032 201.891C584.657 201.691 584.363 201.457 584.15 201.188C583.937 200.92 583.773 200.681 583.658 200.472H583.543V205.682H581.631ZM583.504 197.091C583.504 197.781 583.604 198.386 583.805 198.906C584.005 199.426 584.295 199.833 584.674 200.127C585.053 200.417 585.518 200.562 586.068 200.562C586.639 200.562 587.116 200.411 587.499 200.108C587.883 199.801 588.173 199.386 588.369 198.862C588.569 198.337 588.669 197.747 588.669 197.091C588.669 196.443 588.571 195.862 588.375 195.346C588.183 194.83 587.894 194.423 587.506 194.125C587.122 193.827 586.643 193.678 586.068 193.678C585.514 193.678 585.045 193.82 584.661 194.106C584.282 194.391 583.994 194.79 583.798 195.301C583.602 195.812 583.504 196.409 583.504 197.091ZM592.741 202V192.182H594.588V193.741H594.69C594.869 193.213 595.185 192.798 595.636 192.495C596.092 192.188 596.608 192.035 597.183 192.035C597.303 192.035 597.443 192.039 597.605 192.048C597.771 192.056 597.901 192.067 597.995 192.08V193.908C597.918 193.886 597.782 193.863 597.586 193.837C597.39 193.808 597.194 193.793 596.998 193.793C596.546 193.793 596.144 193.888 595.79 194.08C595.44 194.268 595.163 194.53 594.959 194.866C594.754 195.199 594.652 195.578 594.652 196.004V202H592.741ZM603.433 202.198C602.513 202.198 601.709 201.987 601.023 201.565C600.337 201.143 599.805 200.553 599.425 199.795C599.046 199.036 598.856 198.15 598.856 197.136C598.856 196.117 599.046 195.227 599.425 194.464C599.805 193.701 600.337 193.109 601.023 192.687C601.709 192.265 602.513 192.054 603.433 192.054C604.354 192.054 605.157 192.265 605.843 192.687C606.529 193.109 607.062 193.701 607.441 194.464C607.82 195.227 608.01 196.117 608.01 197.136C608.01 198.15 607.82 199.036 607.441 199.795C607.062 200.553 606.529 201.143 605.843 201.565C605.157 201.987 604.354 202.198 603.433 202.198ZM603.44 200.594C604.036 200.594 604.53 200.436 604.922 200.121C605.315 199.805 605.604 199.386 605.792 198.862C605.984 198.337 606.079 197.76 606.079 197.129C606.079 196.503 605.984 195.928 605.792 195.403C605.604 194.875 605.315 194.451 604.922 194.131C604.53 193.812 604.036 193.652 603.44 193.652C602.839 193.652 602.34 193.812 601.944 194.131C601.552 194.451 601.26 194.875 601.068 195.403C600.881 195.928 600.787 196.503 600.787 197.129C600.787 197.76 600.881 198.337 601.068 198.862C601.26 199.386 601.552 199.805 601.944 200.121C602.34 200.436 602.839 200.594 603.44 200.594ZM610.143 192.182H612.054V202.639C612.054 203.295 611.935 203.849 611.696 204.301C611.462 204.753 611.113 205.096 610.648 205.33C610.188 205.565 609.619 205.682 608.941 205.682C608.873 205.682 608.809 205.682 608.75 205.682C608.686 205.682 608.62 205.68 608.552 205.675V204.033C608.611 204.033 608.665 204.033 608.711 204.033C608.754 204.033 608.803 204.033 608.858 204.033C609.31 204.033 609.636 203.911 609.836 203.668C610.041 203.43 610.143 203.082 610.143 202.626V192.182ZM611.089 190.667C610.757 190.667 610.471 190.556 610.233 190.335C609.998 190.109 609.881 189.84 609.881 189.529C609.881 189.214 609.998 188.945 610.233 188.724C610.471 188.498 610.757 188.385 611.089 188.385C611.422 188.385 611.705 188.498 611.939 188.724C612.178 188.945 612.297 189.214 612.297 189.529C612.297 189.84 612.178 190.109 611.939 190.335C611.705 190.556 611.422 190.667 611.089 190.667ZM618.857 202.198C617.89 202.198 617.057 201.991 616.358 201.578C615.663 201.161 615.126 200.575 614.747 199.82C614.372 199.062 614.185 198.173 614.185 197.155C614.185 196.149 614.372 195.263 614.747 194.496C615.126 193.729 615.655 193.13 616.332 192.7C617.014 192.269 617.811 192.054 618.723 192.054C619.277 192.054 619.814 192.146 620.334 192.329C620.854 192.512 621.32 192.8 621.734 193.192C622.147 193.584 622.473 194.093 622.712 194.719C622.95 195.342 623.07 196.098 623.07 196.989V197.666H615.265V196.234H621.197C621.197 195.732 621.094 195.286 620.89 194.898C620.685 194.506 620.398 194.197 620.027 193.972C619.66 193.746 619.23 193.633 618.736 193.633C618.199 193.633 617.73 193.765 617.329 194.029C616.933 194.289 616.626 194.63 616.409 195.052C616.196 195.469 616.089 195.923 616.089 196.413V197.532C616.089 198.188 616.204 198.746 616.435 199.207C616.669 199.667 616.995 200.018 617.413 200.261C617.83 200.5 618.318 200.619 618.876 200.619C619.239 200.619 619.569 200.568 619.867 200.466C620.165 200.359 620.423 200.202 620.641 199.993C620.858 199.784 621.024 199.526 621.139 199.219L622.948 199.545C622.803 200.078 622.543 200.545 622.168 200.945C621.797 201.342 621.331 201.651 620.768 201.872C620.21 202.089 619.573 202.198 618.857 202.198ZM629.326 202.198C628.375 202.198 627.557 201.983 626.871 201.553C626.189 201.118 625.665 200.519 625.299 199.756C624.932 198.994 624.749 198.12 624.749 197.136C624.749 196.138 624.937 195.259 625.312 194.496C625.687 193.729 626.215 193.13 626.897 192.7C627.579 192.269 628.382 192.054 629.307 192.054C630.052 192.054 630.717 192.192 631.301 192.469C631.885 192.742 632.356 193.126 632.714 193.62C633.076 194.114 633.291 194.692 633.359 195.352H631.499C631.397 194.892 631.162 194.496 630.796 194.163C630.434 193.831 629.948 193.665 629.339 193.665C628.806 193.665 628.339 193.805 627.939 194.087C627.542 194.364 627.233 194.76 627.012 195.276C626.79 195.787 626.679 196.392 626.679 197.091C626.679 197.807 626.788 198.425 627.005 198.945C627.223 199.464 627.53 199.867 627.926 200.153C628.326 200.438 628.797 200.581 629.339 200.581C629.701 200.581 630.029 200.515 630.323 200.383C630.621 200.246 630.87 200.053 631.071 199.801C631.275 199.55 631.418 199.247 631.499 198.893H633.359C633.291 199.528 633.084 200.095 632.739 200.594C632.394 201.092 631.932 201.484 631.352 201.77C630.777 202.055 630.101 202.198 629.326 202.198ZM639.986 192.182V193.716H634.623V192.182H639.986ZM636.061 189.83H637.973V199.117C637.973 199.488 638.028 199.767 638.139 199.955C638.25 200.138 638.392 200.263 638.567 200.332C638.746 200.396 638.94 200.428 639.149 200.428C639.302 200.428 639.436 200.417 639.551 200.396C639.666 200.374 639.756 200.357 639.82 200.344L640.165 201.923C640.054 201.966 639.897 202.009 639.692 202.051C639.487 202.098 639.232 202.124 638.925 202.128C638.422 202.136 637.953 202.047 637.519 201.859C637.084 201.672 636.733 201.382 636.464 200.99C636.196 200.598 636.061 200.106 636.061 199.513V189.83ZM649.299 194.579L647.567 194.886C647.495 194.664 647.38 194.453 647.222 194.253C647.068 194.053 646.86 193.888 646.595 193.761C646.331 193.633 646.001 193.569 645.605 193.569C645.063 193.569 644.612 193.69 644.25 193.933C643.887 194.172 643.706 194.481 643.706 194.86C643.706 195.188 643.828 195.452 644.071 195.653C644.313 195.853 644.706 196.017 645.247 196.145L646.806 196.503C647.71 196.712 648.383 197.033 648.826 197.468C649.269 197.903 649.491 198.467 649.491 199.162C649.491 199.75 649.321 200.274 648.98 200.734C648.643 201.19 648.172 201.548 647.567 201.808C646.966 202.068 646.269 202.198 645.477 202.198C644.377 202.198 643.48 201.964 642.786 201.495C642.091 201.022 641.665 200.351 641.507 199.482L643.355 199.2C643.47 199.682 643.706 200.046 644.064 200.293C644.422 200.536 644.889 200.658 645.464 200.658C646.09 200.658 646.591 200.528 646.966 200.268C647.341 200.004 647.529 199.682 647.529 199.303C647.529 198.996 647.414 198.738 647.184 198.529C646.958 198.32 646.61 198.163 646.142 198.056L644.48 197.692C643.563 197.483 642.886 197.151 642.447 196.695C642.012 196.239 641.795 195.661 641.795 194.962C641.795 194.383 641.957 193.876 642.281 193.441C642.605 193.006 643.052 192.668 643.623 192.425C644.194 192.178 644.848 192.054 645.585 192.054C646.647 192.054 647.482 192.284 648.091 192.744C648.701 193.2 649.103 193.812 649.299 194.579ZM530.879 214.182V215.716H525.516V214.182H530.879ZM526.954 211.83H528.865V221.117C528.865 221.488 528.921 221.767 529.031 221.955C529.142 222.138 529.285 222.263 529.46 222.332C529.639 222.396 529.832 222.428 530.041 222.428C530.195 222.428 530.329 222.417 530.444 222.396C530.559 222.374 530.649 222.357 530.712 222.344L531.058 223.923C530.947 223.966 530.789 224.009 530.585 224.051C530.38 224.098 530.124 224.124 529.818 224.128C529.315 224.136 528.846 224.047 528.411 223.859C527.977 223.672 527.625 223.382 527.357 222.99C527.088 222.598 526.954 222.106 526.954 221.513V211.83ZM537.023 224.198C536.103 224.198 535.299 223.987 534.613 223.565C533.927 223.143 533.394 222.553 533.015 221.795C532.636 221.036 532.446 220.15 532.446 219.136C532.446 218.117 532.636 217.227 533.015 216.464C533.394 215.701 533.927 215.109 534.613 214.687C535.299 214.265 536.103 214.054 537.023 214.054C537.943 214.054 538.747 214.265 539.433 214.687C540.119 215.109 540.652 215.701 541.031 216.464C541.41 217.227 541.6 218.117 541.6 219.136C541.6 220.15 541.41 221.036 541.031 221.795C540.652 222.553 540.119 223.143 539.433 223.565C538.747 223.987 537.943 224.198 537.023 224.198ZM537.029 222.594C537.626 222.594 538.12 222.436 538.512 222.121C538.904 221.805 539.194 221.386 539.382 220.862C539.573 220.337 539.669 219.76 539.669 219.129C539.669 218.503 539.573 217.928 539.382 217.403C539.194 216.875 538.904 216.451 538.512 216.131C538.12 215.812 537.626 215.652 537.029 215.652C536.429 215.652 535.93 215.812 535.534 216.131C535.142 216.451 534.85 216.875 534.658 217.403C534.47 217.928 534.377 218.503 534.377 219.129C534.377 219.76 534.47 220.337 534.658 220.862C534.85 221.386 535.142 221.805 535.534 222.121C535.93 222.436 536.429 222.594 537.029 222.594ZM550.408 210.909V224H548.497V210.909H550.408ZM557.211 224.198C556.243 224.198 555.41 223.991 554.711 223.578C554.017 223.161 553.48 222.575 553.101 221.82C552.726 221.062 552.538 220.173 552.538 219.155C552.538 218.149 552.726 217.263 553.101 216.496C553.48 215.729 554.008 215.13 554.686 214.7C555.368 214.269 556.165 214.054 557.076 214.054C557.63 214.054 558.167 214.146 558.687 214.329C559.207 214.512 559.674 214.8 560.087 215.192C560.5 215.584 560.826 216.093 561.065 216.719C561.304 217.342 561.423 218.098 561.423 218.989V219.666H553.618V218.234H559.55C559.55 217.732 559.448 217.286 559.243 216.898C559.039 216.506 558.751 216.197 558.38 215.972C558.014 215.746 557.584 215.633 557.089 215.633C556.552 215.633 556.084 215.765 555.683 216.029C555.287 216.289 554.98 216.63 554.763 217.052C554.549 217.469 554.443 217.923 554.443 218.413V219.532C554.443 220.188 554.558 220.746 554.788 221.207C555.022 221.667 555.348 222.018 555.766 222.261C556.184 222.5 556.672 222.619 557.23 222.619C557.592 222.619 557.922 222.568 558.221 222.466C558.519 222.359 558.777 222.202 558.994 221.993C559.211 221.784 559.378 221.526 559.493 221.219L561.302 221.545C561.157 222.078 560.897 222.545 560.522 222.945C560.151 223.342 559.684 223.651 559.122 223.872C558.564 224.089 557.927 224.198 557.211 224.198ZM566.401 224.217C565.779 224.217 565.216 224.102 564.713 223.872C564.21 223.638 563.812 223.299 563.518 222.856C563.228 222.413 563.083 221.869 563.083 221.226C563.083 220.672 563.19 220.216 563.403 219.858C563.616 219.5 563.904 219.217 564.266 219.008C564.628 218.799 565.033 218.641 565.48 218.535C565.928 218.428 566.384 218.347 566.848 218.292C567.436 218.224 567.914 218.168 568.28 218.126C568.647 218.079 568.913 218.004 569.079 217.902C569.245 217.8 569.328 217.634 569.328 217.403V217.359C569.328 216.8 569.171 216.368 568.855 216.061C568.544 215.754 568.08 215.601 567.462 215.601C566.818 215.601 566.311 215.744 565.941 216.029C565.574 216.31 565.321 216.624 565.18 216.969L563.384 216.56C563.597 215.963 563.908 215.482 564.317 215.115C564.73 214.744 565.206 214.476 565.742 214.31C566.279 214.139 566.844 214.054 567.436 214.054C567.828 214.054 568.244 214.101 568.683 214.195C569.126 214.284 569.539 214.45 569.923 214.693C570.311 214.936 570.628 215.283 570.875 215.735C571.122 216.183 571.246 216.764 571.246 217.48V224H569.38V222.658H569.303C569.179 222.905 568.994 223.148 568.747 223.386C568.5 223.625 568.182 223.823 567.794 223.981C567.407 224.138 566.942 224.217 566.401 224.217ZM566.816 222.683C567.345 222.683 567.796 222.579 568.171 222.37C568.551 222.161 568.838 221.888 569.034 221.552C569.235 221.211 569.335 220.847 569.335 220.459V219.193C569.267 219.261 569.134 219.325 568.938 219.385C568.747 219.44 568.527 219.489 568.28 219.532C568.033 219.57 567.792 219.607 567.558 219.641C567.323 219.67 567.127 219.696 566.97 219.717C566.599 219.764 566.26 219.843 565.953 219.954C565.651 220.065 565.408 220.224 565.225 220.433C565.046 220.638 564.956 220.911 564.956 221.251C564.956 221.724 565.131 222.082 565.48 222.325C565.83 222.564 566.275 222.683 566.816 222.683ZM573.792 224V214.182H575.639V215.741H575.741C575.92 215.213 576.236 214.798 576.687 214.495C577.143 214.188 577.659 214.035 578.234 214.035C578.353 214.035 578.494 214.039 578.656 214.048C578.822 214.056 578.952 214.067 579.046 214.08V215.908C578.969 215.886 578.833 215.863 578.637 215.837C578.441 215.808 578.245 215.793 578.049 215.793C577.597 215.793 577.194 215.888 576.841 216.08C576.491 216.268 576.214 216.53 576.01 216.866C575.805 217.199 575.703 217.578 575.703 218.004V224H573.792ZM582.611 218.17V224H580.7V214.182H582.534V215.78H582.656C582.882 215.26 583.235 214.842 583.717 214.527C584.203 214.212 584.814 214.054 585.551 214.054C586.22 214.054 586.806 214.195 587.309 214.476C587.812 214.753 588.202 215.166 588.479 215.716C588.756 216.266 588.894 216.945 588.894 217.755V224H586.983V217.985C586.983 217.273 586.798 216.717 586.427 216.317C586.056 215.912 585.547 215.71 584.899 215.71C584.456 215.71 584.062 215.805 583.717 215.997C583.376 216.189 583.105 216.47 582.905 216.841C582.709 217.207 582.611 217.651 582.611 218.17ZM600.894 214.182V215.716H595.346V214.182H600.894ZM596.867 224V213.044C596.867 212.43 597.001 211.921 597.27 211.516C597.538 211.107 597.894 210.803 598.337 210.602C598.78 210.398 599.262 210.295 599.782 210.295C600.165 210.295 600.493 210.327 600.766 210.391C601.039 210.451 601.241 210.506 601.373 210.558L600.926 212.104C600.836 212.079 600.721 212.049 600.581 212.015C600.44 211.977 600.27 211.957 600.069 211.957C599.605 211.957 599.272 212.072 599.072 212.303C598.876 212.533 598.778 212.865 598.778 213.3V224H596.867ZM602.866 224V214.182H604.713V215.741H604.815C604.994 215.213 605.31 214.798 605.761 214.495C606.217 214.188 606.733 214.035 607.308 214.035C607.428 214.035 607.568 214.039 607.73 214.048C607.896 214.056 608.026 214.067 608.12 214.08V215.908C608.043 215.886 607.907 215.863 607.711 215.837C607.515 215.808 607.319 215.793 607.123 215.793C606.671 215.793 606.269 215.888 605.915 216.08C605.565 216.268 605.288 216.53 605.084 216.866C604.879 217.199 604.777 217.578 604.777 218.004V224H602.866ZM613.558 224.198C612.638 224.198 611.834 223.987 611.148 223.565C610.462 223.143 609.93 222.553 609.55 221.795C609.171 221.036 608.981 220.15 608.981 219.136C608.981 218.117 609.171 217.227 609.55 216.464C609.93 215.701 610.462 215.109 611.148 214.687C611.834 214.265 612.638 214.054 613.558 214.054C614.479 214.054 615.282 214.265 615.968 214.687C616.654 215.109 617.187 215.701 617.566 216.464C617.945 217.227 618.135 218.117 618.135 219.136C618.135 220.15 617.945 221.036 617.566 221.795C617.187 222.553 616.654 223.143 615.968 223.565C615.282 223.987 614.479 224.198 613.558 224.198ZM613.565 222.594C614.161 222.594 614.655 222.436 615.047 222.121C615.44 221.805 615.729 221.386 615.917 220.862C616.109 220.337 616.204 219.76 616.204 219.129C616.204 218.503 616.109 217.928 615.917 217.403C615.729 216.875 615.44 216.451 615.047 216.131C614.655 215.812 614.161 215.652 613.565 215.652C612.964 215.652 612.465 215.812 612.069 216.131C611.677 216.451 611.385 216.875 611.193 217.403C611.006 217.928 610.912 218.503 610.912 219.129C610.912 219.76 611.006 220.337 611.193 220.862C611.385 221.386 611.677 221.805 612.069 222.121C612.465 222.436 612.964 222.594 613.565 222.594ZM620.268 224V214.182H622.103V215.78H622.224C622.429 215.239 622.763 214.817 623.228 214.514C623.692 214.207 624.248 214.054 624.896 214.054C625.552 214.054 626.102 214.207 626.545 214.514C626.993 214.821 627.323 215.243 627.536 215.78H627.638C627.873 215.256 628.245 214.838 628.757 214.527C629.268 214.212 629.878 214.054 630.585 214.054C631.476 214.054 632.202 214.333 632.765 214.891C633.331 215.45 633.615 216.291 633.615 217.416V224H631.704V217.595C631.704 216.93 631.522 216.449 631.16 216.151C630.798 215.852 630.366 215.703 629.863 215.703C629.241 215.703 628.757 215.895 628.412 216.278C628.066 216.658 627.894 217.146 627.894 217.742V224H625.989V217.474C625.989 216.941 625.823 216.513 625.491 216.189C625.158 215.865 624.726 215.703 624.193 215.703C623.831 215.703 623.496 215.799 623.189 215.991C622.887 216.178 622.642 216.44 622.454 216.777C622.271 217.114 622.179 217.504 622.179 217.947V224H620.268ZM637.436 224.121C637.086 224.121 636.786 223.998 636.534 223.751C636.283 223.499 636.157 223.197 636.157 222.843C636.157 222.494 636.283 222.195 636.534 221.948C636.786 221.697 637.086 221.571 637.436 221.571C637.785 221.571 638.085 221.697 638.337 221.948C638.588 222.195 638.714 222.494 638.714 222.843C638.714 223.077 638.654 223.293 638.535 223.489C638.42 223.68 638.267 223.834 638.075 223.949C637.883 224.064 637.67 224.121 637.436 224.121Z" fill="#132356"/>
<path d="M305.195 192.348C305.127 191.743 304.846 191.274 304.352 190.942C303.857 190.605 303.235 190.437 302.485 190.437C301.948 190.437 301.484 190.522 301.092 190.692C300.7 190.859 300.395 191.089 300.178 191.383C299.964 191.673 299.858 192.003 299.858 192.374C299.858 192.685 299.93 192.953 300.075 193.179C300.224 193.405 300.418 193.594 300.657 193.748C300.9 193.897 301.16 194.023 301.437 194.125C301.714 194.223 301.98 194.304 302.236 194.368L303.514 194.7C303.932 194.803 304.36 194.941 304.799 195.116C305.238 195.29 305.645 195.521 306.02 195.806C306.395 196.092 306.697 196.445 306.928 196.867C307.162 197.289 307.279 197.794 307.279 198.382C307.279 199.124 307.087 199.782 306.704 200.357C306.325 200.933 305.773 201.386 305.048 201.719C304.328 202.051 303.457 202.217 302.434 202.217C301.454 202.217 300.606 202.062 299.89 201.751C299.174 201.44 298.614 200.999 298.209 200.428C297.804 199.852 297.58 199.17 297.538 198.382H299.519C299.558 198.855 299.711 199.249 299.979 199.565C300.252 199.876 300.599 200.108 301.021 200.261C301.447 200.411 301.914 200.485 302.421 200.485C302.979 200.485 303.476 200.398 303.911 200.223C304.349 200.044 304.695 199.797 304.946 199.482C305.197 199.162 305.323 198.789 305.323 198.363C305.323 197.975 305.212 197.658 304.991 197.411C304.773 197.163 304.477 196.959 304.102 196.797C303.732 196.635 303.312 196.492 302.843 196.369L301.296 195.947C300.248 195.661 299.417 195.241 298.803 194.688C298.194 194.134 297.889 193.401 297.889 192.489C297.889 191.734 298.094 191.076 298.503 190.513C298.912 189.951 299.466 189.514 300.165 189.203C300.864 188.888 301.652 188.73 302.53 188.73C303.416 188.73 304.198 188.886 304.876 189.197C305.558 189.508 306.094 189.936 306.487 190.482C306.879 191.023 307.083 191.645 307.1 192.348H305.195ZM314.069 192.182V193.716H308.706V192.182H314.069ZM310.144 189.83H312.056V199.117C312.056 199.488 312.111 199.767 312.222 199.955C312.333 200.138 312.475 200.263 312.65 200.332C312.829 200.396 313.023 200.428 313.232 200.428C313.385 200.428 313.519 200.417 313.634 200.396C313.749 200.374 313.839 200.357 313.903 200.344L314.248 201.923C314.137 201.966 313.98 202.009 313.775 202.051C313.57 202.098 313.315 202.124 313.008 202.128C312.505 202.136 312.036 202.047 311.602 201.859C311.167 201.672 310.816 201.382 310.547 200.99C310.279 200.598 310.144 200.106 310.144 199.513V189.83ZM322.403 197.928V192.182H324.32V202H322.441V200.3H322.339C322.113 200.824 321.751 201.261 321.252 201.61C320.758 201.955 320.142 202.128 319.405 202.128C318.774 202.128 318.216 201.989 317.73 201.712C317.249 201.431 316.869 201.016 316.592 200.466C316.32 199.916 316.183 199.237 316.183 198.427V192.182H318.094V198.197C318.094 198.866 318.28 199.398 318.651 199.795C319.021 200.191 319.503 200.389 320.095 200.389C320.453 200.389 320.809 200.3 321.163 200.121C321.521 199.942 321.817 199.671 322.051 199.309C322.29 198.947 322.407 198.487 322.403 197.928ZM330.564 202.192C329.771 202.192 329.064 201.989 328.442 201.585C327.824 201.175 327.338 200.594 326.984 199.839C326.635 199.081 326.46 198.171 326.46 197.11C326.46 196.049 326.637 195.141 326.991 194.387C327.349 193.633 327.839 193.055 328.461 192.655C329.083 192.254 329.788 192.054 330.577 192.054C331.186 192.054 331.676 192.156 332.047 192.361C332.422 192.561 332.711 192.795 332.916 193.064C333.125 193.332 333.287 193.569 333.402 193.773H333.517V188.909H335.428V202H333.562V200.472H333.402C333.287 200.681 333.121 200.92 332.903 201.188C332.69 201.457 332.396 201.691 332.021 201.891C331.646 202.092 331.16 202.192 330.564 202.192ZM330.986 200.562C331.535 200.562 332 200.417 332.379 200.127C332.763 199.833 333.052 199.426 333.248 198.906C333.449 198.386 333.549 197.781 333.549 197.091C333.549 196.409 333.451 195.812 333.255 195.301C333.059 194.79 332.771 194.391 332.392 194.106C332.013 193.82 331.544 193.678 330.986 193.678C330.41 193.678 329.931 193.827 329.547 194.125C329.164 194.423 328.874 194.83 328.678 195.346C328.486 195.862 328.39 196.443 328.39 197.091C328.39 197.747 328.488 198.337 328.684 198.862C328.881 199.386 329.17 199.801 329.554 200.108C329.942 200.411 330.419 200.562 330.986 200.562ZM342.387 202.198C341.42 202.198 340.587 201.991 339.888 201.578C339.194 201.161 338.657 200.575 338.277 199.82C337.902 199.062 337.715 198.173 337.715 197.155C337.715 196.149 337.902 195.263 338.277 194.496C338.657 193.729 339.185 193.13 339.863 192.7C340.544 192.269 341.341 192.054 342.253 192.054C342.807 192.054 343.344 192.146 343.864 192.329C344.384 192.512 344.85 192.8 345.264 193.192C345.677 193.584 346.003 194.093 346.242 194.719C346.48 195.342 346.6 196.098 346.6 196.989V197.666H338.795V196.234H344.727C344.727 195.732 344.625 195.286 344.42 194.898C344.216 194.506 343.928 194.197 343.557 193.972C343.191 193.746 342.76 193.633 342.266 193.633C341.729 193.633 341.26 193.765 340.86 194.029C340.463 194.289 340.157 194.63 339.939 195.052C339.726 195.469 339.62 195.923 339.62 196.413V197.532C339.62 198.188 339.735 198.746 339.965 199.207C340.199 199.667 340.525 200.018 340.943 200.261C341.36 200.5 341.848 200.619 342.407 200.619C342.769 200.619 343.099 200.568 343.397 200.466C343.696 200.359 343.953 200.202 344.171 199.993C344.388 199.784 344.554 199.526 344.669 199.219L346.478 199.545C346.333 200.078 346.074 200.545 345.699 200.945C345.328 201.342 344.861 201.651 344.299 201.872C343.74 202.089 343.103 202.198 342.387 202.198ZM350.632 196.17V202H348.72V192.182H350.555V193.78H350.676C350.902 193.26 351.256 192.842 351.737 192.527C352.223 192.212 352.835 192.054 353.572 192.054C354.241 192.054 354.827 192.195 355.33 192.476C355.833 192.753 356.222 193.166 356.499 193.716C356.776 194.266 356.915 194.945 356.915 195.755V202H355.004V195.985C355.004 195.273 354.818 194.717 354.448 194.317C354.077 193.912 353.568 193.71 352.92 193.71C352.477 193.71 352.083 193.805 351.737 193.997C351.396 194.189 351.126 194.47 350.926 194.841C350.73 195.207 350.632 195.651 350.632 196.17ZM364.061 192.182V193.716H358.698V192.182H364.061ZM360.137 189.83H362.048V199.117C362.048 199.488 362.103 199.767 362.214 199.955C362.325 200.138 362.468 200.263 362.642 200.332C362.821 200.396 363.015 200.428 363.224 200.428C363.377 200.428 363.512 200.417 363.627 200.396C363.742 200.374 363.831 200.357 363.895 200.344L364.24 201.923C364.129 201.966 363.972 202.009 363.767 202.051C363.563 202.098 363.307 202.124 363 202.128C362.497 202.136 362.029 202.047 361.594 201.859C361.159 201.672 360.808 201.382 360.539 200.99C360.271 200.598 360.137 200.106 360.137 199.513V189.83ZM373.374 194.579L371.642 194.886C371.57 194.664 371.455 194.453 371.297 194.253C371.144 194.053 370.935 193.888 370.671 193.761C370.406 193.633 370.076 193.569 369.68 193.569C369.139 193.569 368.687 193.69 368.325 193.933C367.963 194.172 367.781 194.481 367.781 194.86C367.781 195.188 367.903 195.452 368.146 195.653C368.389 195.853 368.781 196.017 369.322 196.145L370.882 196.503C371.785 196.712 372.458 197.033 372.901 197.468C373.345 197.903 373.566 198.467 373.566 199.162C373.566 199.75 373.396 200.274 373.055 200.734C372.718 201.19 372.247 201.548 371.642 201.808C371.041 202.068 370.345 202.198 369.552 202.198C368.453 202.198 367.556 201.964 366.861 201.495C366.166 201.022 365.74 200.351 365.583 199.482L367.43 199.2C367.545 199.682 367.781 200.046 368.139 200.293C368.497 200.536 368.964 200.658 369.539 200.658C370.166 200.658 370.666 200.528 371.041 200.268C371.416 200.004 371.604 199.682 371.604 199.303C371.604 198.996 371.489 198.738 371.259 198.529C371.033 198.32 370.686 198.163 370.217 198.056L368.555 197.692C367.639 197.483 366.961 197.151 366.522 196.695C366.088 196.239 365.87 195.661 365.87 194.962C365.87 194.383 366.032 193.876 366.356 193.441C366.68 193.006 367.127 192.668 367.698 192.425C368.269 192.178 368.923 192.054 369.661 192.054C370.722 192.054 371.557 192.284 372.166 192.744C372.776 193.2 373.178 193.812 373.374 194.579ZM305.691 210.909H307.673V219.519C307.673 220.435 307.458 221.247 307.027 221.955C306.597 222.658 305.992 223.212 305.212 223.616C304.432 224.017 303.518 224.217 302.47 224.217C301.426 224.217 300.514 224.017 299.734 223.616C298.954 223.212 298.349 222.658 297.919 221.955C297.488 221.247 297.273 220.435 297.273 219.519V210.909H299.248V219.359C299.248 219.952 299.378 220.478 299.638 220.938C299.902 221.398 300.275 221.761 300.757 222.025C301.238 222.285 301.809 222.415 302.47 222.415C303.135 222.415 303.708 222.285 304.189 222.025C304.675 221.761 305.046 221.398 305.302 220.938C305.562 220.478 305.691 219.952 305.691 219.359V210.909ZM310.391 227.682V214.182H312.258V215.773H312.418C312.528 215.569 312.688 215.332 312.897 215.064C313.106 214.795 313.396 214.561 313.766 214.361C314.137 214.156 314.627 214.054 315.236 214.054C316.029 214.054 316.736 214.254 317.359 214.655C317.981 215.055 318.469 215.633 318.822 216.387C319.18 217.141 319.359 218.049 319.359 219.11C319.359 220.171 319.182 221.081 318.829 221.839C318.475 222.594 317.989 223.175 317.371 223.585C316.753 223.989 316.048 224.192 315.256 224.192C314.659 224.192 314.171 224.092 313.792 223.891C313.417 223.691 313.123 223.457 312.91 223.188C312.697 222.92 312.533 222.681 312.418 222.472H312.302V227.682H310.391ZM312.264 219.091C312.264 219.781 312.364 220.386 312.565 220.906C312.765 221.426 313.055 221.833 313.434 222.127C313.813 222.417 314.278 222.562 314.827 222.562C315.398 222.562 315.876 222.411 316.259 222.108C316.643 221.801 316.932 221.386 317.128 220.862C317.329 220.337 317.429 219.747 317.429 219.091C317.429 218.443 317.331 217.862 317.135 217.346C316.943 216.83 316.653 216.423 316.266 216.125C315.882 215.827 315.403 215.678 314.827 215.678C314.273 215.678 313.805 215.82 313.421 216.106C313.042 216.391 312.754 216.79 312.558 217.301C312.362 217.812 312.264 218.409 312.264 219.091ZM328.858 216.579L327.126 216.886C327.053 216.664 326.938 216.453 326.78 216.253C326.627 216.053 326.418 215.888 326.154 215.761C325.89 215.633 325.56 215.569 325.163 215.569C324.622 215.569 324.17 215.69 323.808 215.933C323.446 216.172 323.265 216.481 323.265 216.86C323.265 217.188 323.386 217.452 323.629 217.653C323.872 217.853 324.264 218.017 324.805 218.145L326.365 218.503C327.268 218.712 327.942 219.033 328.385 219.468C328.828 219.903 329.05 220.467 329.05 221.162C329.05 221.75 328.879 222.274 328.538 222.734C328.202 223.19 327.731 223.548 327.126 223.808C326.525 224.068 325.828 224.198 325.035 224.198C323.936 224.198 323.039 223.964 322.344 223.495C321.65 223.022 321.224 222.351 321.066 221.482L322.913 221.2C323.028 221.682 323.265 222.046 323.623 222.293C323.981 222.536 324.447 222.658 325.023 222.658C325.649 222.658 326.15 222.528 326.525 222.268C326.9 222.004 327.087 221.682 327.087 221.303C327.087 220.996 326.972 220.738 326.742 220.529C326.516 220.32 326.169 220.163 325.7 220.056L324.038 219.692C323.122 219.483 322.445 219.151 322.006 218.695C321.571 218.239 321.354 217.661 321.354 216.962C321.354 216.383 321.516 215.876 321.839 215.441C322.163 215.006 322.611 214.668 323.182 214.425C323.753 214.178 324.407 214.054 325.144 214.054C326.205 214.054 327.04 214.284 327.65 214.744C328.259 215.2 328.662 215.812 328.858 216.579ZM332.909 220.67L332.896 218.337H333.228L337.14 214.182H339.429L334.967 218.912H334.667L332.909 220.67ZM331.151 224V210.909H333.062V224H331.151ZM337.351 224L333.836 219.334L335.152 217.998L339.697 224H337.351ZM341.171 224V214.182H343.082V224H341.171ZM342.136 212.667C341.803 212.667 341.518 212.556 341.279 212.335C341.045 212.109 340.928 211.84 340.928 211.529C340.928 211.214 341.045 210.945 341.279 210.724C341.518 210.498 341.803 210.385 342.136 210.385C342.468 210.385 342.752 210.498 342.986 210.724C343.225 210.945 343.344 211.214 343.344 211.529C343.344 211.84 343.225 212.109 342.986 212.335C342.752 212.556 342.468 212.667 342.136 212.667ZM347.564 210.909V224H345.653V210.909H347.564ZM352.047 210.909V224H350.135V210.909H352.047ZM358.849 224.198C357.882 224.198 357.049 223.991 356.35 223.578C355.655 223.161 355.119 222.575 354.739 221.82C354.364 221.062 354.177 220.173 354.177 219.155C354.177 218.149 354.364 217.263 354.739 216.496C355.119 215.729 355.647 215.13 356.324 214.7C357.006 214.269 357.803 214.054 358.715 214.054C359.269 214.054 359.806 214.146 360.326 214.329C360.846 214.512 361.312 214.8 361.726 215.192C362.139 215.584 362.465 216.093 362.704 216.719C362.942 217.342 363.062 218.098 363.062 218.989V219.666H355.257V218.234H361.189C361.189 217.732 361.087 217.286 360.882 216.898C360.677 216.506 360.39 216.197 360.019 215.972C359.653 215.746 359.222 215.633 358.728 215.633C358.191 215.633 357.722 215.765 357.322 216.029C356.925 216.289 356.619 216.63 356.401 217.052C356.188 217.469 356.082 217.923 356.082 218.413V219.532C356.082 220.188 356.197 220.746 356.427 221.207C356.661 221.667 356.987 222.018 357.405 222.261C357.822 222.5 358.31 222.619 358.869 222.619C359.231 222.619 359.561 222.568 359.859 222.466C360.158 222.359 360.415 222.202 360.633 221.993C360.85 221.784 361.016 221.526 361.131 221.219L362.94 221.545C362.795 222.078 362.535 222.545 362.16 222.945C361.79 223.342 361.323 223.651 360.761 223.872C360.202 224.089 359.565 224.198 358.849 224.198ZM368.858 224.192C368.065 224.192 367.358 223.989 366.736 223.585C366.118 223.175 365.632 222.594 365.278 221.839C364.929 221.081 364.754 220.171 364.754 219.11C364.754 218.049 364.931 217.141 365.285 216.387C365.642 215.633 366.133 215.055 366.755 214.655C367.377 214.254 368.082 214.054 368.87 214.054C369.48 214.054 369.97 214.156 370.341 214.361C370.716 214.561 371.005 214.795 371.21 215.064C371.419 215.332 371.581 215.569 371.696 215.773H371.811V210.909H373.722V224H371.856V222.472H371.696C371.581 222.681 371.415 222.92 371.197 223.188C370.984 223.457 370.69 223.691 370.315 223.891C369.94 224.092 369.454 224.192 368.858 224.192ZM369.28 222.562C369.829 222.562 370.294 222.417 370.673 222.127C371.057 221.833 371.346 221.426 371.542 220.906C371.743 220.386 371.843 219.781 371.843 219.091C371.843 218.409 371.745 217.812 371.549 217.301C371.353 216.79 371.065 216.391 370.686 216.106C370.307 215.82 369.838 215.678 369.28 215.678C368.704 215.678 368.225 215.827 367.841 216.125C367.458 216.423 367.168 216.83 366.972 217.346C366.78 217.862 366.684 218.443 366.684 219.091C366.684 219.747 366.782 220.337 366.978 220.862C367.174 221.386 367.464 221.801 367.848 222.108C368.236 222.411 368.713 222.562 369.28 222.562Z" fill="#132356"/>
<defs>
<linearGradient id="paint0_linear_6_33" x1="1.66579e-06" y1="94" x2="141" y2="94" gradientUnits="userSpaceOnUse">
<stop stop-color="#8B98D7"/>
<stop offset="1" stop-color="#132356" stop-opacity="0.9"/>
</linearGradient>
<linearGradient id="paint1_linear_6_33" x1="98" y1="14.9362" x2="116" y2="14.9362" gradientUnits="userSpaceOnUse">
<stop stop-color="#8B98D7"/>
<stop offset="1" stop-color="#132356" stop-opacity="0.76"/>
</linearGradient>
<linearGradient id="paint2_linear_6_33" x1="116" y1="27.9716" x2="124" y2="27.9716" gradientUnits="userSpaceOnUse">
<stop stop-color="#8B98D7"/>
<stop offset="1" stop-color="#132356" stop-opacity="0.66"/>
</linearGradient>
<linearGradient id="paint3_linear_6_33" x1="102" y1="2.48227" x2="107" y2="2.48227" gradientUnits="userSpaceOnUse">
<stop stop-color="#8B98D7"/>
<stop offset="1" stop-color="#132356" stop-opacity="0.48"/>
</linearGradient>
<linearGradient id="paint4_linear_6_33" x1="512" y1="94" x2="653" y2="94" gradientUnits="userSpaceOnUse">
<stop stop-color="#8B98D7"/>
<stop offset="1" stop-color="#132356" stop-opacity="0.9"/>
</linearGradient>
<linearGradient id="paint5_linear_6_33" x1="613" y1="20.4326" x2="632" y2="20.4326" gradientUnits="userSpaceOnUse">
<stop stop-color="#8B98D7"/>
<stop offset="1" stop-color="#132356" stop-opacity="0.81"/>
</linearGradient>
<linearGradient id="paint6_linear_6_33" x1="632" y1="34.9787" x2="638" y2="34.9787" gradientUnits="userSpaceOnUse">
<stop stop-color="#8B98D7"/>
<stop offset="1" stop-color="#132356" stop-opacity="0.81"/>
</linearGradient>
<linearGradient id="paint7_linear_6_33" x1="265" y1="94" x2="406" y2="94" gradientUnits="userSpaceOnUse">
<stop stop-color="#132356"/>
<stop offset="1" stop-color="#8B98D7" stop-opacity="0.9"/>
</linearGradient>
<linearGradient id="paint8_linear_6_33" x1="378" y1="22.689" x2="393" y2="22.689" gradientUnits="userSpaceOnUse">
<stop stop-color="#132356"/>
<stop offset="1" stop-color="#8B98D7" stop-opacity="0.55"/>
</linearGradient>
<linearGradient id="paint9_linear_6_33" x1="378.958" y1="7.68252" x2="383.958" y2="7.68252" gradientUnits="userSpaceOnUse">
<stop stop-color="#132356"/>
<stop offset="1" stop-color="#8B98D7" stop-opacity="0.55"/>
</linearGradient>
</defs>
</svg>
