<svg width="141" height="802" viewBox="0 0 141 802" fill="none" xmlns="http://www.w3.org/2000/svg">
<circle cx="70.5" cy="94.5" r="70.5" fill="url(#paint0_linear_7_2)"/>
<circle cx="107" cy="15" r="9" fill="url(#paint1_linear_7_2)"/>
<circle cx="120" cy="28" r="4" fill="url(#paint2_linear_7_2)"/>
<circle cx="104.5" cy="2.5" r="2.5" fill="url(#paint3_linear_7_2)"/>
<circle cx="70.5" cy="671.5" r="70.5" fill="url(#paint4_linear_7_2)"/>
<circle cx="110.5" cy="597.5" r="9.5" fill="url(#paint5_linear_7_2)"/>
<circle cx="123" cy="612" r="3" fill="url(#paint6_linear_7_2)"/>
<circle cx="70.5" cy="376.5" r="70.5" fill="url(#paint7_linear_7_2)"/>
<circle cx="120.5" cy="304.742" r="7.5" transform="rotate(57.021 120.5 304.742)" fill="url(#paint8_linear_7_2)"/>
<circle cx="116.458" cy="289.7" r="2.5" transform="rotate(-175.204 116.458 289.7)" fill="url(#paint9_linear_7_2)"/>
<path d="M43.7898 103.259C42.8172 103.252 41.8786 103.089 40.9737 102.769C40.075 102.449 39.2687 101.929 38.5547 101.209C37.8407 100.489 37.2744 99.5346 36.8558 98.3466C36.4434 97.1586 36.2372 95.6998 36.2372 93.9702C36.2434 92.3821 36.425 90.9633 36.782 89.7138C37.1451 88.4581 37.6622 87.3932 38.3331 86.5192C39.0102 85.6451 39.8196 84.9803 40.7614 84.5249C41.7031 84.0632 42.7588 83.8324 43.9283 83.8324C45.1901 83.8324 46.3042 84.0786 47.2706 84.571C48.237 85.0573 49.0125 85.719 49.5973 86.5561C50.1882 87.3932 50.5452 88.3319 50.6683 89.3722H46.7259C46.572 88.7135 46.2488 88.1965 45.7564 87.821C45.264 87.4455 44.6546 87.2578 43.9283 87.2578C42.6972 87.2578 41.7616 87.7933 41.1214 88.8643C40.4875 89.9354 40.1643 91.3911 40.152 93.2315H40.2812C40.5644 92.6714 40.946 92.1944 41.4261 91.8004C41.9124 91.4003 42.4633 91.0956 43.0788 90.8864C43.7005 90.6709 44.3561 90.5632 45.0455 90.5632C46.1657 90.5632 47.1629 90.8279 48.0369 91.3572C48.911 91.8804 49.6004 92.6006 50.1051 93.5178C50.6098 94.4349 50.8622 95.4844 50.8622 96.6662C50.8622 97.9465 50.5637 99.0852 49.9666 100.082C49.3757 101.08 48.5478 101.861 47.483 102.428C46.4242 102.988 45.1932 103.265 43.7898 103.259ZM43.7713 100.119C44.3868 100.119 44.9377 99.9716 45.424 99.6761C45.9103 99.3807 46.2919 98.9806 46.5689 98.4759C46.8459 97.9711 46.9844 97.4048 46.9844 96.777C46.9844 96.1491 46.8459 95.5859 46.5689 95.0874C46.2981 94.5888 45.9226 94.1918 45.4425 93.8963C44.9624 93.6009 44.4145 93.4531 43.799 93.4531C43.3374 93.4531 42.9096 93.5393 42.5156 93.7116C42.1278 93.884 41.7862 94.1241 41.4908 94.4318C41.2015 94.7396 40.9737 95.0966 40.8075 95.5028C40.6413 95.9029 40.5582 96.3307 40.5582 96.7862C40.5582 97.3956 40.6967 97.9527 40.9737 98.4574C41.2569 98.9621 41.6385 99.3653 42.1186 99.6669C42.6049 99.9685 43.1558 100.119 43.7713 100.119ZM61.1108 103.415C59.5227 103.409 58.1563 103.018 57.0114 102.243C55.8726 101.467 54.9955 100.344 54.38 98.8729C53.7706 97.4018 53.469 95.6321 53.4751 93.5639C53.4751 91.5019 53.7798 89.7446 54.3892 88.2919C55.0047 86.8393 55.8819 85.7344 57.0206 84.9773C58.1655 84.214 59.5289 83.8324 61.1108 83.8324C62.6927 83.8324 64.053 84.214 65.1918 84.9773C66.3366 85.7405 67.2169 86.8485 67.8324 88.3011C68.4479 89.7476 68.7526 91.5019 68.7464 93.5639C68.7464 95.6383 68.4387 97.411 67.8232 98.8821C67.2138 100.353 66.3397 101.477 65.201 102.252C64.0623 103.028 62.6989 103.415 61.1108 103.415ZM61.1108 100.101C62.1941 100.101 63.0589 99.5561 63.7053 98.4666C64.3516 97.3771 64.6716 95.7429 64.6655 93.5639C64.6655 92.1297 64.5178 90.9356 64.2223 89.9815C63.933 89.0275 63.5206 88.3104 62.9851 87.8303C62.4557 87.3501 61.831 87.1101 61.1108 87.1101C60.0336 87.1101 59.1719 87.6487 58.5256 88.7259C57.8793 89.803 57.553 91.4157 57.5469 93.5639C57.5469 95.0166 57.6915 96.2292 57.9808 97.2017C58.2763 98.1681 58.6918 98.8944 59.2273 99.3807C59.7628 99.8608 60.3906 100.101 61.1108 100.101ZM79.0112 103.415C77.4231 103.409 76.0566 103.018 74.9118 102.243C73.773 101.467 72.8959 100.344 72.2804 98.8729C71.671 97.4018 71.3694 95.6321 71.3755 93.5639C71.3755 91.5019 71.6802 89.7446 72.2896 88.2919C72.9051 86.8393 73.7823 85.7344 74.921 84.9773C76.0659 84.214 77.4293 83.8324 79.0112 83.8324C80.5931 83.8324 81.9534 84.214 83.0922 84.9773C84.237 85.7405 85.1172 86.8485 85.7328 88.3011C86.3483 89.7476 86.653 91.5019 86.6468 93.5639C86.6468 95.6383 86.3391 97.411 85.7235 98.8821C85.1142 100.353 84.2401 101.477 83.1014 102.252C81.9627 103.028 80.5993 103.415 79.0112 103.415ZM79.0112 100.101C80.0945 100.101 80.9593 99.5561 81.6056 98.4666C82.252 97.3771 82.572 95.7429 82.5659 93.5639C82.5659 92.1297 82.4181 90.9356 82.1227 89.9815C81.8334 89.0275 81.421 88.3104 80.8855 87.8303C80.3561 87.3501 79.7314 87.1101 79.0112 87.1101C77.934 87.1101 77.0723 87.6487 76.426 88.7259C75.7797 89.803 75.4534 91.4157 75.4473 93.5639C75.4473 95.0166 75.5919 96.2292 75.8812 97.2017C76.1767 98.1681 76.5922 98.8944 77.1277 99.3807C77.6632 99.8608 78.291 100.101 79.0112 100.101ZM89.6083 103V84.0909H93.6062V92.4283H93.8555L100.66 84.0909H105.452L98.435 92.5575L105.535 103H100.752L95.5728 95.2259L93.6062 97.6264V103H89.6083Z" fill="#F2F2F2"/>
<path d="M44.7592 366.091V385H40.7614V369.886H40.6506L36.3203 372.6V369.055L41.0014 366.091H44.7592ZM56.6674 385.415C55.0794 385.409 53.7129 385.018 52.568 384.243C51.4293 383.467 50.5521 382.344 49.9366 380.873C49.3272 379.402 49.0256 377.632 49.0318 375.564C49.0318 373.502 49.3365 371.745 49.9458 370.292C50.5614 368.839 51.4385 367.734 52.5772 366.977C53.7221 366.214 55.0855 365.832 56.6674 365.832C58.2493 365.832 59.6097 366.214 60.7484 366.977C61.8933 367.741 62.7735 368.848 63.389 370.301C64.0046 371.748 64.3092 373.502 64.3031 375.564C64.3031 377.638 63.9953 379.411 63.3798 380.882C62.7704 382.353 61.8964 383.477 60.7576 384.252C59.6189 385.028 58.2555 385.415 56.6674 385.415ZM56.6674 382.101C57.7508 382.101 58.6156 381.556 59.2619 380.467C59.9082 379.377 60.2283 377.743 60.2221 375.564C60.2221 374.13 60.0744 372.936 59.7789 371.982C59.4896 371.027 59.0772 370.31 58.5417 369.83C58.0124 369.35 57.3876 369.11 56.6674 369.11C55.5903 369.11 54.7285 369.649 54.0822 370.726C53.4359 371.803 53.1097 373.416 53.1035 375.564C53.1035 377.017 53.2482 378.229 53.5375 379.202C53.8329 380.168 54.2484 380.894 54.7839 381.381C55.3194 381.861 55.9473 382.101 56.6674 382.101ZM74.5678 385.415C72.9798 385.409 71.6133 385.018 70.4684 384.243C69.3297 383.467 68.4525 382.344 67.837 380.873C67.2276 379.402 66.926 377.632 66.9322 375.564C66.9322 373.502 67.2369 371.745 67.8462 370.292C68.4618 368.839 69.3389 367.734 70.4776 366.977C71.6225 366.214 72.9859 365.832 74.5678 365.832C76.1497 365.832 77.5101 366.214 78.6488 366.977C79.7937 367.741 80.6739 368.848 81.2894 370.301C81.9049 371.748 82.2096 373.502 82.2035 375.564C82.2035 377.638 81.8957 379.411 81.2802 380.882C80.6708 382.353 79.7968 383.477 78.658 384.252C77.5193 385.028 76.1559 385.415 74.5678 385.415ZM74.5678 382.101C75.6512 382.101 76.516 381.556 77.1623 380.467C77.8086 379.377 78.1287 377.743 78.1225 375.564C78.1225 374.13 77.9748 372.936 77.6793 371.982C77.39 371.027 76.9776 370.31 76.4421 369.83C75.9128 369.35 75.288 369.11 74.5678 369.11C73.4906 369.11 72.6289 369.649 71.9826 370.726C71.3363 371.803 71.0101 373.416 71.0039 375.564C71.0039 377.017 71.1486 378.229 71.4379 379.202C71.7333 380.168 72.1488 380.894 72.6843 381.381C73.2198 381.861 73.8477 382.101 74.5678 382.101ZM85.165 385V366.091H89.1628V374.428H89.4121L96.2168 366.091H101.009L93.9917 374.558L101.092 385H96.3091L91.1294 377.226L89.1628 379.626V385H85.165Z" fill="#F2F2F2"/>
<path d="M43.4389 680.259C42.134 680.259 40.9706 680.018 39.9489 679.538C38.9332 679.058 38.1269 678.397 37.5298 677.553C36.9328 676.71 36.6219 675.744 36.5973 674.654H40.4751C40.5182 675.387 40.826 675.981 41.3984 676.436C41.9709 676.892 42.651 677.119 43.4389 677.119C44.0668 677.119 44.6207 676.981 45.1009 676.704C45.5871 676.421 45.9657 676.03 46.2365 675.531C46.5135 675.027 46.652 674.448 46.652 673.795C46.652 673.131 46.5104 672.546 46.2273 672.041C45.9503 671.536 45.5656 671.143 45.0732 670.859C44.5807 670.576 44.0175 670.432 43.3835 670.425C42.8295 670.425 42.291 670.539 41.7678 670.767C41.2507 670.995 40.8475 671.306 40.5582 671.7L37.0036 671.062L37.8991 661.091H49.4588V664.359H41.1953L40.706 669.096H40.8168C41.1491 668.628 41.6508 668.24 42.3217 667.933C42.9927 667.625 43.7436 667.471 44.5746 667.471C45.7133 667.471 46.7289 667.739 47.6214 668.274C48.514 668.81 49.2188 669.545 49.7358 670.481C50.2528 671.41 50.5083 672.481 50.5021 673.694C50.5083 674.968 50.2128 676.101 49.6158 677.092C49.0249 678.076 48.197 678.852 47.1321 679.418C46.0734 679.978 44.8423 680.259 43.4389 680.259ZM60.7045 680.415C59.1165 680.409 57.75 680.018 56.6051 679.243C55.4664 678.467 54.5893 677.344 53.9737 675.873C53.3643 674.402 53.0627 672.632 53.0689 670.564C53.0689 668.502 53.3736 666.745 53.983 665.292C54.5985 663.839 55.4756 662.734 56.6143 661.977C57.7592 661.214 59.1226 660.832 60.7045 660.832C62.2865 660.832 63.6468 661.214 64.7855 661.977C65.9304 662.741 66.8106 663.848 67.4261 665.301C68.0417 666.748 68.3464 668.502 68.3402 670.564C68.3402 672.638 68.0324 674.411 67.4169 675.882C66.8075 677.353 65.9335 678.477 64.7947 679.252C63.656 680.028 62.2926 680.415 60.7045 680.415ZM60.7045 677.101C61.7879 677.101 62.6527 676.556 63.299 675.467C63.9453 674.377 64.2654 672.743 64.2592 670.564C64.2592 669.13 64.1115 667.936 63.8161 666.982C63.5268 666.027 63.1143 665.31 62.5788 664.83C62.0495 664.35 61.4247 664.11 60.7045 664.11C59.6274 664.11 58.7656 664.649 58.1193 665.726C57.473 666.803 57.1468 668.416 57.1406 670.564C57.1406 672.017 57.2853 673.229 57.5746 674.202C57.87 675.168 58.2855 675.894 58.821 676.381C59.3565 676.861 59.9844 677.101 60.7045 677.101ZM78.6049 680.415C77.0169 680.409 75.6504 680.018 74.5055 679.243C73.3668 678.467 72.4896 677.344 71.8741 675.873C71.2647 674.402 70.9631 672.632 70.9693 670.564C70.9693 668.502 71.274 666.745 71.8833 665.292C72.4989 663.839 73.376 662.734 74.5147 661.977C75.6596 661.214 77.023 660.832 78.6049 660.832C80.1868 660.832 81.5472 661.214 82.6859 661.977C83.8308 662.741 84.711 663.848 85.3265 665.301C85.9421 666.748 86.2467 668.502 86.2406 670.564C86.2406 672.638 85.9328 674.411 85.3173 675.882C84.7079 677.353 83.8339 678.477 82.6951 679.252C81.5564 680.028 80.193 680.415 78.6049 680.415ZM78.6049 677.101C79.6883 677.101 80.5531 676.556 81.1994 675.467C81.8457 674.377 82.1658 672.743 82.1596 670.564C82.1596 669.13 82.0119 667.936 81.7164 666.982C81.4271 666.027 81.0147 665.31 80.4792 664.83C79.9499 664.35 79.3251 664.11 78.6049 664.11C77.5278 664.11 76.666 664.649 76.0197 665.726C75.3734 666.803 75.0472 668.416 75.041 670.564C75.041 672.017 75.1857 673.229 75.475 674.202C75.7704 675.168 76.1859 675.894 76.7214 676.381C77.2569 676.861 77.8848 677.101 78.6049 677.101ZM94.7418 677.119V664.045H98.0472V677.119H94.7418ZM89.8576 672.235V668.93H102.931V672.235H89.8576Z" fill="#F2F2F2"/>
<path d="M4.34153 202V188.909H6.31667V200.3H12.2485V202H4.34153ZM18.5798 202.198C17.6125 202.198 16.7794 201.991 16.0805 201.578C15.3859 201.161 14.849 200.575 14.4697 199.82C14.0947 199.062 13.9072 198.173 13.9072 197.155C13.9072 196.149 14.0947 195.263 14.4697 194.496C14.849 193.729 15.3774 193.13 16.055 192.7C16.7368 192.269 17.5336 192.054 18.4456 192.054C18.9996 192.054 19.5365 192.146 20.0564 192.329C20.5763 192.512 21.0429 192.8 21.4562 193.192C21.8696 193.584 22.1956 194.093 22.4342 194.719C22.6729 195.342 22.7922 196.098 22.7922 196.989V197.666H14.9875V196.234H20.9193C20.9193 195.732 20.817 195.286 20.6125 194.898C20.4079 194.506 20.1203 194.197 19.7496 193.972C19.3831 193.746 18.9527 193.633 18.4584 193.633C17.9214 193.633 17.4527 193.765 17.0521 194.029C16.6558 194.289 16.349 194.63 16.1317 195.052C15.9186 195.469 15.8121 195.923 15.8121 196.413V197.532C15.8121 198.188 15.9271 198.746 16.1572 199.207C16.3916 199.667 16.7176 200.018 17.1352 200.261C17.5528 200.5 18.0407 200.619 18.599 200.619C18.9612 200.619 19.2915 200.568 19.5898 200.466C19.8881 200.359 20.1459 200.202 20.3632 199.993C20.5805 199.784 20.7467 199.526 20.8618 199.219L22.6707 199.545C22.5258 200.078 22.2659 200.545 21.8909 200.945C21.5202 201.342 21.0535 201.651 20.491 201.872C19.9328 202.089 19.2957 202.198 18.5798 202.198ZM27.77 202.217C27.1478 202.217 26.5853 202.102 26.0825 201.872C25.5796 201.638 25.1812 201.299 24.8872 200.856C24.5974 200.413 24.4525 199.869 24.4525 199.226C24.4525 198.672 24.559 198.216 24.7721 197.858C24.9852 197.5 25.2728 197.217 25.635 197.008C25.9972 196.799 26.4021 196.641 26.8495 196.535C27.297 196.428 27.7529 196.347 28.2174 196.292C28.8055 196.224 29.2828 196.168 29.6492 196.126C30.0157 196.079 30.282 196.004 30.4482 195.902C30.6144 195.8 30.6975 195.634 30.6975 195.403V195.359C30.6975 194.8 30.5399 194.368 30.2245 194.061C29.9134 193.754 29.449 193.601 28.8311 193.601C28.1876 193.601 27.6805 193.744 27.3097 194.029C26.9433 194.31 26.6897 194.624 26.5491 194.969L24.7529 194.56C24.966 193.963 25.2771 193.482 25.6862 193.115C26.0995 192.744 26.5747 192.476 27.1116 192.31C27.6485 192.139 28.2132 192.054 28.8055 192.054C29.1975 192.054 29.613 192.101 30.0519 192.195C30.4951 192.284 30.9085 192.45 31.292 192.693C31.6798 192.936 31.9972 193.283 32.2444 193.735C32.4916 194.183 32.6151 194.764 32.6151 195.48V202H30.7487V200.658H30.672C30.5484 200.905 30.363 201.148 30.1159 201.386C29.8687 201.625 29.5512 201.823 29.1634 201.981C28.7757 202.138 28.3112 202.217 27.77 202.217ZM28.1855 200.683C28.7139 200.683 29.1656 200.579 29.5406 200.37C29.9198 200.161 30.2075 199.888 30.4035 199.552C30.6038 199.211 30.7039 198.847 30.7039 198.459V197.193C30.6357 197.261 30.5036 197.325 30.3076 197.385C30.1159 197.44 29.8964 197.489 29.6492 197.532C29.4021 197.57 29.1613 197.607 28.9269 197.641C28.6926 197.67 28.4965 197.696 28.3389 197.717C27.9681 197.764 27.6294 197.843 27.3225 197.954C27.02 198.065 26.7771 198.224 26.5938 198.433C26.4149 198.638 26.3254 198.911 26.3254 199.251C26.3254 199.724 26.5001 200.082 26.8495 200.325C27.199 200.564 27.6443 200.683 28.1855 200.683ZM35.1608 202V192.182H37.0081V193.741H37.1104C37.2893 193.213 37.6047 192.798 38.0564 192.495C38.5123 192.188 39.028 192.035 39.6032 192.035C39.7226 192.035 39.8632 192.039 40.0251 192.048C40.1913 192.056 40.3213 192.067 40.415 192.08V193.908C40.3383 193.886 40.202 193.863 40.0059 193.837C39.8099 193.808 39.6139 193.793 39.4179 193.793C38.9662 193.793 38.5635 193.888 38.2098 194.08C37.8604 194.268 37.5834 194.53 37.3788 194.866C37.1743 195.199 37.072 195.578 37.072 196.004V202H35.1608ZM43.9802 196.17V202H42.069V192.182H43.9035V193.78H44.0249C44.2508 193.26 44.6045 192.842 45.086 192.527C45.5718 192.212 46.1833 192.054 46.9205 192.054C47.5896 192.054 48.1755 192.195 48.6784 192.476C49.1812 192.753 49.5711 193.166 49.8481 193.716C50.1251 194.266 50.2636 194.945 50.2636 195.755V202H48.3524V195.985C48.3524 195.273 48.167 194.717 47.7963 194.317C47.4255 193.912 46.9163 193.71 46.2686 193.71C45.8254 193.71 45.4312 193.805 45.086 193.997C44.7451 194.189 44.4745 194.47 44.2742 194.841C44.0782 195.207 43.9802 195.651 43.9802 196.17ZM57.0583 202.198C56.091 202.198 55.2579 201.991 54.559 201.578C53.8644 201.161 53.3275 200.575 52.9482 199.82C52.5732 199.062 52.3857 198.173 52.3857 197.155C52.3857 196.149 52.5732 195.263 52.9482 194.496C53.3275 193.729 53.8559 193.13 54.5335 192.7C55.2153 192.269 56.0122 192.054 56.9241 192.054C57.4781 192.054 58.015 192.146 58.5349 192.329C59.0548 192.512 59.5214 192.8 59.9347 193.192C60.3481 193.584 60.6741 194.093 60.9127 194.719C61.1514 195.342 61.2707 196.098 61.2707 196.989V197.666H53.466V196.234H59.3978C59.3978 195.732 59.2955 195.286 59.091 194.898C58.8865 194.506 58.5988 194.197 58.2281 193.972C57.8616 193.746 57.4312 193.633 56.9369 193.633C56.3999 193.633 55.9312 193.765 55.5306 194.029C55.1343 194.289 54.8275 194.63 54.6102 195.052C54.3971 195.469 54.2906 195.923 54.2906 196.413V197.532C54.2906 198.188 54.4056 198.746 54.6357 199.207C54.8701 199.667 55.1961 200.018 55.6137 200.261C56.0313 200.5 56.5193 200.619 57.0775 200.619C57.4397 200.619 57.77 200.568 58.0683 200.466C58.3666 200.359 58.6244 200.202 58.8417 199.993C59.059 199.784 59.2252 199.526 59.3403 199.219L61.1492 199.545C61.0044 200.078 60.7444 200.545 60.3694 200.945C59.9987 201.342 59.532 201.651 58.9695 201.872C58.4113 202.089 57.7742 202.198 57.0583 202.198ZM63.3912 202V192.182H65.2385V193.741H65.3408C65.5198 193.213 65.8351 192.798 66.2868 192.495C66.7428 192.188 67.2584 192.035 67.8337 192.035C67.953 192.035 68.0937 192.039 68.2556 192.048C68.4218 192.056 68.5518 192.067 68.6455 192.08V193.908C68.5688 193.886 68.4324 193.863 68.2364 193.837C68.0404 193.808 67.8444 193.793 67.6483 193.793C67.1966 193.793 66.7939 193.888 66.4403 194.08C66.0908 194.268 65.8138 194.53 65.6093 194.866C65.4047 195.199 65.3025 195.578 65.3025 196.004V202H63.3912ZM77.6567 194.579L75.9244 194.886C75.852 194.664 75.7369 194.453 75.5793 194.253C75.4259 194.053 75.2171 193.888 74.9529 193.761C74.6887 193.633 74.3584 193.569 73.9621 193.569C73.4209 193.569 72.9692 193.69 72.607 193.933C72.2448 194.172 72.0637 194.481 72.0637 194.86C72.0637 195.188 72.1851 195.452 72.428 195.653C72.6709 195.853 73.0629 196.017 73.6041 196.145L75.1638 196.503C76.0672 196.712 76.7405 197.033 77.1837 197.468C77.6269 197.903 77.8485 198.467 77.8485 199.162C77.8485 199.75 77.678 200.274 77.3371 200.734C77.0004 201.19 76.5296 201.548 75.9244 201.808C75.3236 202.068 74.6269 202.198 73.8343 202.198C72.7348 202.198 71.8378 201.964 71.1432 201.495C70.4486 201.022 70.0225 200.351 69.8648 199.482L71.7121 199.2C71.8271 199.682 72.0637 200.046 72.4216 200.293C72.7796 200.536 73.2462 200.658 73.8215 200.658C74.4479 200.658 74.9486 200.528 75.3236 200.268C75.6986 200.004 75.8861 199.682 75.8861 199.303C75.8861 198.996 75.771 198.738 75.5409 198.529C75.3151 198.32 74.9678 198.163 74.499 198.056L72.8371 197.692C71.9209 197.483 71.2433 197.151 70.8044 196.695C70.3698 196.239 70.1524 195.661 70.1524 194.962C70.1524 194.383 70.3144 193.876 70.6382 193.441C70.9621 193.006 71.4095 192.668 71.9806 192.425C72.5516 192.178 73.2057 192.054 73.9429 192.054C75.004 192.054 75.8392 192.284 76.4486 192.744C77.058 193.2 77.4607 193.812 77.6567 194.579ZM88.8492 202.198C87.9287 202.198 87.1254 201.987 86.4394 201.565C85.7533 201.143 85.2206 200.553 84.8414 199.795C84.4621 199.036 84.2725 198.15 84.2725 197.136C84.2725 196.117 84.4621 195.227 84.8414 194.464C85.2206 193.701 85.7533 193.109 86.4394 192.687C87.1254 192.265 87.9287 192.054 88.8492 192.054C89.7696 192.054 90.5729 192.265 91.259 192.687C91.945 193.109 92.4777 193.701 92.857 194.464C93.2362 195.227 93.4259 196.117 93.4259 197.136C93.4259 198.15 93.2362 199.036 92.857 199.795C92.4777 200.553 91.945 201.143 91.259 201.565C90.5729 201.987 89.7696 202.198 88.8492 202.198ZM88.8556 200.594C89.4521 200.594 89.9465 200.436 90.3385 200.121C90.7306 199.805 91.0203 199.386 91.2078 198.862C91.3996 198.337 91.4955 197.76 91.4955 197.129C91.4955 196.503 91.3996 195.928 91.2078 195.403C91.0203 194.875 90.7306 194.451 90.3385 194.131C89.9465 193.812 89.4521 193.652 88.8556 193.652C88.2547 193.652 87.7561 193.812 87.3598 194.131C86.9678 194.451 86.6759 194.875 86.4841 195.403C86.2966 195.928 86.2029 196.503 86.2029 197.129C86.2029 197.76 86.2966 198.337 86.4841 198.862C86.6759 199.386 86.9678 199.805 87.3598 200.121C87.7561 200.436 88.2547 200.594 88.8556 200.594ZM97.4704 196.17V202H95.5592V192.182H97.3937V193.78H97.5152C97.741 193.26 98.0947 192.842 98.5763 192.527C99.0621 192.212 99.6736 192.054 100.411 192.054C101.08 192.054 101.666 192.195 102.169 192.476C102.671 192.753 103.061 193.166 103.338 193.716C103.615 194.266 103.754 194.945 103.754 195.755V202H101.843V195.985C101.843 195.273 101.657 194.717 101.286 194.317C100.916 193.912 100.407 193.71 99.7588 193.71C99.3156 193.71 98.9214 193.805 98.5763 193.997C98.2354 194.189 97.9648 194.47 97.7645 194.841C97.5684 195.207 97.4704 195.651 97.4704 196.17ZM115.664 192.182V193.716H110.301V192.182H115.664ZM111.739 189.83H113.65V199.117C113.65 199.488 113.706 199.767 113.816 199.955C113.927 200.138 114.07 200.263 114.245 200.332C114.424 200.396 114.618 200.428 114.826 200.428C114.98 200.428 115.114 200.417 115.229 200.396C115.344 200.374 115.434 200.357 115.498 200.344L115.843 201.923C115.732 201.966 115.574 202.009 115.37 202.051C115.165 202.098 114.91 202.124 114.603 202.128C114.1 202.136 113.631 202.047 113.196 201.859C112.762 201.672 112.41 201.382 112.142 200.99C111.873 200.598 111.739 200.106 111.739 199.513V189.83ZM119.9 196.17V202H117.989V188.909H119.875V193.78H119.996C120.226 193.251 120.578 192.832 121.051 192.521C121.524 192.21 122.142 192.054 122.904 192.054C123.578 192.054 124.166 192.192 124.669 192.469C125.176 192.746 125.568 193.16 125.845 193.71C126.126 194.255 126.267 194.937 126.267 195.755V202H124.355V195.985C124.355 195.265 124.17 194.707 123.799 194.31C123.429 193.91 122.913 193.71 122.252 193.71C121.801 193.71 121.396 193.805 121.038 193.997C120.684 194.189 120.405 194.47 120.201 194.841C120 195.207 119.9 195.651 119.9 196.17ZM133.049 202.198C132.081 202.198 131.248 201.991 130.549 201.578C129.855 201.161 129.318 200.575 128.938 199.82C128.563 199.062 128.376 198.173 128.376 197.155C128.376 196.149 128.563 195.263 128.938 194.496C129.318 193.729 129.846 193.13 130.524 192.7C131.206 192.269 132.002 192.054 132.914 192.054C133.468 192.054 134.005 192.146 134.525 192.329C135.045 192.512 135.512 192.8 135.925 193.192C136.338 193.584 136.664 194.093 136.903 194.719C137.142 195.342 137.261 196.098 137.261 196.989V197.666H129.456V196.234H135.388C135.388 195.732 135.286 195.286 135.081 194.898C134.877 194.506 134.589 194.197 134.218 193.972C133.852 193.746 133.421 193.633 132.927 193.633C132.39 193.633 131.921 193.765 131.521 194.029C131.125 194.289 130.818 194.63 130.6 195.052C130.387 195.469 130.281 195.923 130.281 196.413V197.532C130.281 198.188 130.396 198.746 130.626 199.207C130.86 199.667 131.186 200.018 131.604 200.261C132.022 200.5 132.509 200.619 133.068 200.619C133.43 200.619 133.76 200.568 134.059 200.466C134.357 200.359 134.615 200.202 134.832 199.993C135.049 199.784 135.215 199.526 135.331 199.219L137.139 199.545C136.995 200.078 136.735 200.545 136.36 200.945C135.989 201.342 135.522 201.651 134.96 201.872C134.402 202.089 133.764 202.198 133.049 202.198ZM35.5563 227.682V214.182H37.4228V215.773H37.5826C37.6934 215.569 37.8532 215.332 38.062 215.064C38.2708 214.795 38.5605 214.561 38.9313 214.361C39.302 214.156 39.7921 214.054 40.4015 214.054C41.1941 214.054 41.9015 214.254 42.5236 214.655C43.1458 215.055 43.6337 215.633 43.9874 216.387C44.3453 217.141 44.5243 218.049 44.5243 219.11C44.5243 220.171 44.3475 221.081 43.9938 221.839C43.6401 222.594 43.1543 223.175 42.5364 223.585C41.9185 223.989 41.2132 224.192 40.4206 224.192C39.824 224.192 39.3361 224.092 38.9569 223.891C38.5819 223.691 38.2878 223.457 38.0748 223.188C37.8617 222.92 37.6976 222.681 37.5826 222.472H37.4675V227.682H35.5563ZM37.4292 219.091C37.4292 219.781 37.5293 220.386 37.7296 220.906C37.9299 221.426 38.2196 221.833 38.5989 222.127C38.9782 222.417 39.4426 222.562 39.9924 222.562C40.5634 222.562 41.0407 222.411 41.4242 222.108C41.8077 221.801 42.0975 221.386 42.2935 220.862C42.4938 220.337 42.5939 219.747 42.5939 219.091C42.5939 218.443 42.4959 217.862 42.2999 217.346C42.1081 216.83 41.8184 216.423 41.4306 216.125C41.0471 215.827 40.5676 215.678 39.9924 215.678C39.4384 215.678 38.9696 215.82 38.5861 216.106C38.2069 216.391 37.9192 216.79 37.7232 217.301C37.5272 217.812 37.4292 218.409 37.4292 219.091ZM48.5769 210.909V224H46.6657V210.909H48.5769ZM54.0053 224.217C53.3832 224.217 52.8207 224.102 52.3178 223.872C51.815 223.638 51.4165 223.299 51.1225 222.856C50.8327 222.413 50.6879 221.869 50.6879 221.226C50.6879 220.672 50.7944 220.216 51.0075 219.858C51.2205 219.5 51.5082 219.217 51.8704 219.008C52.2326 218.799 52.6374 218.641 53.0849 218.535C53.5323 218.428 53.9883 218.347 54.4528 218.292C55.0408 218.224 55.5181 218.168 55.8846 218.126C56.2511 218.079 56.5174 218.004 56.6836 217.902C56.8498 217.8 56.9329 217.634 56.9329 217.403V217.359C56.9329 216.8 56.7752 216.368 56.4599 216.061C56.1488 215.754 55.6843 215.601 55.0664 215.601C54.4229 215.601 53.9158 215.744 53.5451 216.029C53.1786 216.31 52.9251 216.624 52.7844 216.969L50.9883 216.56C51.2013 215.963 51.5124 215.482 51.9215 215.115C52.3349 214.744 52.81 214.476 53.3469 214.31C53.8839 214.139 54.4485 214.054 55.0408 214.054C55.4329 214.054 55.8484 214.101 56.2873 214.195C56.7305 214.284 57.1438 214.45 57.5273 214.693C57.9151 214.936 58.2326 215.283 58.4798 215.735C58.7269 216.183 58.8505 216.764 58.8505 217.48V224H56.984V222.658H56.9073C56.7837 222.905 56.5984 223.148 56.3512 223.386C56.104 223.625 55.7866 223.823 55.3988 223.981C55.011 224.138 54.5465 224.217 54.0053 224.217ZM54.4208 222.683C54.9492 222.683 55.4009 222.579 55.7759 222.37C56.1552 222.161 56.4428 221.888 56.6388 221.552C56.8391 221.211 56.9393 220.847 56.9393 220.459V219.193C56.8711 219.261 56.739 219.325 56.543 219.385C56.3512 219.44 56.1317 219.489 55.8846 219.532C55.6374 219.57 55.3967 219.607 55.1623 219.641C54.9279 219.67 54.7319 219.696 54.5742 219.717C54.2035 219.764 53.8647 219.843 53.5579 219.954C53.2553 220.065 53.0124 220.224 52.8292 220.433C52.6502 220.638 52.5607 220.911 52.5607 221.251C52.5607 221.724 52.7354 222.082 53.0849 222.325C53.4343 222.564 53.8796 222.683 54.4208 222.683ZM65.9792 214.182V215.716H60.6163V214.182H65.9792ZM62.0545 211.83H63.9657V221.117C63.9657 221.488 64.0211 221.767 64.1319 221.955C64.2427 222.138 64.3855 222.263 64.5602 222.332C64.7392 222.396 64.9331 222.428 65.1419 222.428C65.2953 222.428 65.4295 222.417 65.5446 222.396C65.6596 222.374 65.7491 222.357 65.813 222.344L66.1582 223.923C66.0474 223.966 65.8897 224.009 65.6852 224.051C65.4806 224.098 65.225 224.124 64.9181 224.128C64.4153 224.136 63.9466 224.047 63.5119 223.859C63.0772 223.672 62.7257 223.382 62.4572 222.99C62.1887 222.598 62.0545 222.106 62.0545 221.513V211.83ZM72.766 214.182V215.716H67.2177V214.182H72.766ZM68.739 224V213.044C68.739 212.43 68.8732 211.921 69.1417 211.516C69.4102 211.107 69.766 210.803 70.2092 210.602C70.6523 210.398 71.1339 210.295 71.6538 210.295C72.0373 210.295 72.3654 210.327 72.6381 210.391C72.9109 210.451 73.1133 210.506 73.2454 210.558L72.7979 212.104C72.7085 212.079 72.5934 212.049 72.4528 212.015C72.3121 211.977 72.1417 211.957 71.9414 211.957C71.4769 211.957 71.1445 212.072 70.9442 212.303C70.7482 212.533 70.6502 212.865 70.6502 213.3V224H68.739ZM78.4869 224.198C77.5664 224.198 76.7631 223.987 76.0771 223.565C75.391 223.143 74.8583 222.553 74.479 221.795C74.0998 221.036 73.9102 220.15 73.9102 219.136C73.9102 218.117 74.0998 217.227 74.479 216.464C74.8583 215.701 75.391 215.109 76.0771 214.687C76.7631 214.265 77.5664 214.054 78.4869 214.054C79.4073 214.054 80.2106 214.265 80.8967 214.687C81.5827 215.109 82.1154 215.701 82.4947 216.464C82.8739 217.227 83.0636 218.117 83.0636 219.136C83.0636 220.15 82.8739 221.036 82.4947 221.795C82.1154 222.553 81.5827 223.143 80.8967 223.565C80.2106 223.987 79.4073 224.198 78.4869 224.198ZM78.4933 222.594C79.0898 222.594 79.5842 222.436 79.9762 222.121C80.3683 221.805 80.658 221.386 80.8455 220.862C81.0373 220.337 81.1332 219.76 81.1332 219.129C81.1332 218.503 81.0373 217.928 80.8455 217.403C80.658 216.875 80.3683 216.451 79.9762 216.131C79.5842 215.812 79.0898 215.652 78.4933 215.652C77.8924 215.652 77.3938 215.812 76.9975 216.131C76.6055 216.451 76.3136 216.875 76.1218 217.403C75.9343 217.928 75.8406 218.503 75.8406 219.129C75.8406 219.76 75.9343 220.337 76.1218 220.862C76.3136 221.386 76.6055 221.805 76.9975 222.121C77.3938 222.436 77.8924 222.594 78.4933 222.594ZM85.1969 224V214.182H87.0442V215.741H87.1465C87.3255 215.213 87.6408 214.798 88.0925 214.495C88.5485 214.188 89.0641 214.035 89.6394 214.035C89.7587 214.035 89.8993 214.039 90.0613 214.048C90.2275 214.056 90.3574 214.067 90.4512 214.08V215.908C90.3745 215.886 90.2381 215.863 90.0421 215.837C89.8461 215.808 89.65 215.793 89.454 215.793C89.0023 215.793 88.5996 215.888 88.2459 216.08C87.8965 216.268 87.6195 216.53 87.415 216.866C87.2104 217.199 87.1081 217.578 87.1081 218.004V224H85.1969ZM92.1051 224V214.182H93.9396V215.78H94.0611C94.2656 215.239 94.6001 214.817 95.0646 214.514C95.5291 214.207 96.0852 214.054 96.733 214.054C97.3892 214.054 97.9389 214.207 98.3821 214.514C98.8295 214.821 99.1598 215.243 99.3729 215.78H99.4751C99.7095 215.256 100.082 214.838 100.594 214.527C101.105 214.212 101.714 214.054 102.422 214.054C103.312 214.054 104.039 214.333 104.602 214.891C105.168 215.45 105.452 216.291 105.452 217.416V224H103.54V217.595C103.54 216.93 103.359 216.449 102.997 216.151C102.635 215.852 102.202 215.703 101.7 215.703C101.077 215.703 100.594 215.895 100.249 216.278C99.9034 216.658 99.7308 217.146 99.7308 217.742V224H97.826V217.474C97.826 216.941 97.6598 216.513 97.3274 216.189C96.995 215.865 96.5625 215.703 96.0298 215.703C95.6676 215.703 95.3331 215.799 95.0263 215.991C94.7237 216.178 94.4787 216.44 94.2912 216.777C94.108 217.114 94.0163 217.504 94.0163 217.947V224H92.1051Z" fill="#132356"/>
<path d="M12.5489 765.909H14.5305V774.519C14.5305 775.435 14.3153 776.247 13.8849 776.955C13.4545 777.658 12.8493 778.212 12.0695 778.616C11.2897 779.017 10.3756 779.217 9.32733 779.217C8.28329 779.217 7.37136 779.017 6.59153 778.616C5.8117 778.212 5.20659 777.658 4.77619 776.955C4.34579 776.247 4.13059 775.435 4.13059 774.519V765.909H6.10574V774.359C6.10574 774.952 6.23571 775.478 6.49565 775.938C6.75985 776.398 7.13272 776.761 7.61426 777.025C8.09579 777.285 8.66681 777.415 9.32733 777.415C9.9921 777.415 10.5653 777.285 11.0468 777.025C11.5326 776.761 11.9033 776.398 12.159 775.938C12.4189 775.478 12.5489 774.952 12.5489 774.359V765.909ZM19.1599 773.17V779H17.2487V769.182H19.0832V770.78H19.2046C19.4305 770.26 19.7842 769.842 20.2657 769.527C20.7515 769.212 21.363 769.054 22.1002 769.054C22.7693 769.054 23.3552 769.195 23.858 769.476C24.3609 769.753 24.7508 770.166 25.0278 770.716C25.3048 771.266 25.4433 771.945 25.4433 772.755V779H23.532V772.985C23.532 772.273 23.3467 771.717 22.9759 771.317C22.6052 770.912 22.096 770.71 21.4482 770.71C21.0051 770.71 20.6109 770.805 20.2657 770.997C19.9248 771.189 19.6542 771.47 19.4539 771.841C19.2579 772.207 19.1599 772.651 19.1599 773.17ZM28.0065 779V769.182H29.9177V779H28.0065ZM28.9717 767.667C28.6393 767.667 28.3538 767.556 28.1151 767.335C27.8808 767.109 27.7636 766.84 27.7636 766.529C27.7636 766.214 27.8808 765.945 28.1151 765.724C28.3538 765.498 28.6393 765.385 28.9717 765.385C29.3041 765.385 29.5874 765.498 29.8218 765.724C30.0605 765.945 30.1798 766.214 30.1798 766.529C30.1798 766.84 30.0605 767.109 29.8218 767.335C29.5874 767.556 29.3041 767.667 28.9717 767.667ZM39.1175 782.682V777.472H39.0024C38.8873 777.681 38.7211 777.92 38.5038 778.188C38.2907 778.457 37.9967 778.691 37.6217 778.891C37.2467 779.092 36.7609 779.192 36.1643 779.192C35.3717 779.192 34.6643 778.989 34.0422 778.585C33.4243 778.175 32.9385 777.594 32.5848 776.839C32.2354 776.081 32.0606 775.171 32.0606 774.11C32.0606 773.049 32.2375 772.141 32.5912 771.387C32.9491 770.633 33.4392 770.055 34.0613 769.655C34.6835 769.254 35.3888 769.054 36.1771 769.054C36.7865 769.054 37.2765 769.156 37.6473 769.361C38.0223 769.561 38.3121 769.795 38.5166 770.064C38.7254 770.332 38.8873 770.569 39.0024 770.773H39.1622V769.182H41.0287V782.682H39.1175ZM36.5862 777.562C37.1359 777.562 37.6004 777.417 37.9797 777.127C38.3632 776.833 38.653 776.426 38.849 775.906C39.0493 775.386 39.1494 774.781 39.1494 774.091C39.1494 773.409 39.0514 772.812 38.8554 772.301C38.6594 771.79 38.3717 771.391 37.9925 771.106C37.6132 770.82 37.1444 770.678 36.5862 770.678C36.0109 770.678 35.5315 770.827 35.148 771.125C34.7645 771.423 34.4747 771.83 34.2787 772.346C34.0869 772.862 33.991 773.443 33.991 774.091C33.991 774.747 34.089 775.337 34.2851 775.862C34.4811 776.386 34.7709 776.801 35.1544 777.108C35.5422 777.411 36.0194 777.562 36.5862 777.562ZM49.8177 774.928V769.182H51.7354V779H49.8561V777.3H49.7538C49.528 777.824 49.1657 778.261 48.6672 778.61C48.1729 778.955 47.5571 779.128 46.8199 779.128C46.1892 779.128 45.6309 778.989 45.1452 778.712C44.6636 778.431 44.2844 778.016 44.0074 777.466C43.7346 776.916 43.5983 776.237 43.5983 775.427V769.182H45.5095V775.197C45.5095 775.866 45.6949 776.398 46.0656 776.795C46.4363 777.191 46.9179 777.389 47.5102 777.389C47.8682 777.389 48.224 777.3 48.5777 777.121C48.9356 776.942 49.2318 776.671 49.4662 776.309C49.7048 775.947 49.822 775.487 49.8177 774.928ZM58.5349 779.198C57.5676 779.198 56.7345 778.991 56.0356 778.578C55.341 778.161 54.8041 777.575 54.4248 776.82C54.0498 776.062 53.8623 775.173 53.8623 774.155C53.8623 773.149 54.0498 772.263 54.4248 771.496C54.8041 770.729 55.3325 770.13 56.01 769.7C56.6919 769.269 57.4887 769.054 58.4007 769.054C58.9546 769.054 59.4916 769.146 60.0115 769.329C60.5313 769.512 60.998 769.8 61.4113 770.192C61.8247 770.584 62.1507 771.093 62.3893 771.719C62.6279 772.342 62.7472 773.098 62.7472 773.989V774.666H54.9426V773.234H60.8744C60.8744 772.732 60.7721 772.286 60.5676 771.898C60.363 771.506 60.0754 771.197 59.7046 770.972C59.3382 770.746 58.9078 770.633 58.4134 770.633C57.8765 770.633 57.4078 770.765 57.0072 771.029C56.6109 771.289 56.3041 771.63 56.0867 772.052C55.8737 772.469 55.7671 772.923 55.7671 773.413V774.532C55.7671 775.188 55.8822 775.746 56.1123 776.207C56.3467 776.667 56.6727 777.018 57.0903 777.261C57.5079 777.5 57.9958 777.619 58.5541 777.619C58.9163 777.619 59.2465 777.568 59.5448 777.466C59.8431 777.359 60.1009 777.202 60.3183 776.993C60.5356 776.784 60.7018 776.526 60.8169 776.219L62.6258 776.545C62.4809 777.078 62.221 777.545 61.846 777.945C61.4752 778.342 61.0086 778.651 60.4461 778.872C59.8879 779.089 59.2508 779.198 58.5349 779.198ZM69.6315 782.682V769.182H71.498V770.773H71.6578C71.7686 770.569 71.9284 770.332 72.1372 770.064C72.346 769.795 72.6357 769.561 73.0065 769.361C73.3772 769.156 73.8673 769.054 74.4767 769.054C75.2693 769.054 75.9767 769.254 76.5988 769.655C77.221 770.055 77.7089 770.633 78.0626 771.387C78.4205 772.141 78.5995 773.049 78.5995 774.11C78.5995 775.171 78.4227 776.081 78.069 776.839C77.7153 777.594 77.2295 778.175 76.6116 778.585C75.9937 778.989 75.2884 779.192 74.4958 779.192C73.8992 779.192 73.4113 779.092 73.032 778.891C72.657 778.691 72.363 778.457 72.1499 778.188C71.9369 777.92 71.7728 777.681 71.6578 777.472H71.5427V782.682H69.6315ZM71.5044 774.091C71.5044 774.781 71.6045 775.386 71.8048 775.906C72.0051 776.426 72.2948 776.833 72.6741 777.127C73.0534 777.417 73.5178 777.562 74.0676 777.562C74.6386 777.562 75.1159 777.411 75.4994 777.108C75.8829 776.801 76.1727 776.386 76.3687 775.862C76.569 775.337 76.6691 774.747 76.6691 774.091C76.6691 773.443 76.5711 772.862 76.3751 772.346C76.1833 771.83 75.8936 771.423 75.5058 771.125C75.1222 770.827 74.6428 770.678 74.0676 770.678C73.5136 770.678 73.0448 770.82 72.6613 771.106C72.282 771.391 71.9944 771.79 71.7984 772.301C71.6024 772.812 71.5044 773.409 71.5044 774.091ZM80.7409 779V769.182H82.5882V770.741H82.6904C82.8694 770.213 83.1847 769.798 83.6365 769.495C84.0924 769.188 84.608 769.035 85.1833 769.035C85.3026 769.035 85.4433 769.039 85.6052 769.048C85.7714 769.056 85.9014 769.067 85.9951 769.08V770.908C85.9184 770.886 85.782 770.863 85.586 770.837C85.39 770.808 85.194 770.793 84.998 770.793C84.5463 770.793 84.1436 770.888 83.7899 771.08C83.4404 771.268 83.1634 771.53 82.9589 771.866C82.7544 772.199 82.6521 772.578 82.6521 773.004V779H80.7409ZM91.4332 779.198C90.5127 779.198 89.7094 778.987 89.0233 778.565C88.3373 778.143 87.8046 777.553 87.4253 776.795C87.0461 776.036 86.8564 775.15 86.8564 774.136C86.8564 773.117 87.0461 772.227 87.4253 771.464C87.8046 770.701 88.3373 770.109 89.0233 769.687C89.7094 769.265 90.5127 769.054 91.4332 769.054C92.3536 769.054 93.1569 769.265 93.843 769.687C94.529 770.109 95.0617 770.701 95.441 771.464C95.8202 772.227 96.0099 773.117 96.0099 774.136C96.0099 775.15 95.8202 776.036 95.441 776.795C95.0617 777.553 94.529 778.143 93.843 778.565C93.1569 778.987 92.3536 779.198 91.4332 779.198ZM91.4395 777.594C92.0361 777.594 92.5305 777.436 92.9225 777.121C93.3145 776.805 93.6043 776.386 93.7918 775.862C93.9836 775.337 94.0795 774.76 94.0795 774.129C94.0795 773.503 93.9836 772.928 93.7918 772.403C93.6043 771.875 93.3145 771.451 92.9225 771.131C92.5305 770.812 92.0361 770.652 91.4395 770.652C90.8387 770.652 90.3401 770.812 89.9438 771.131C89.5518 771.451 89.2599 771.875 89.0681 772.403C88.8806 772.928 88.7868 773.503 88.7868 774.129C88.7868 774.76 88.8806 775.337 89.0681 775.862C89.2599 776.386 89.5518 776.805 89.9438 777.121C90.3401 777.436 90.8387 777.594 91.4395 777.594ZM98.1432 769.182H100.054V779.639C100.054 780.295 99.9351 780.849 99.6965 781.301C99.4621 781.753 99.1127 782.096 98.6482 782.33C98.1879 782.565 97.6191 782.682 96.9415 782.682C96.8733 782.682 96.8094 782.682 96.7497 782.682C96.6858 782.682 96.6198 782.68 96.5516 782.675V781.033C96.6112 781.033 96.6645 781.033 96.7114 781.033C96.754 781.033 96.803 781.033 96.8584 781.033C97.3101 781.033 97.6361 780.911 97.8364 780.668C98.0409 780.43 98.1432 780.082 98.1432 779.626V769.182ZM99.0892 767.667C98.7568 767.667 98.4713 767.556 98.2327 767.335C97.9983 767.109 97.8811 766.84 97.8811 766.529C97.8811 766.214 97.9983 765.945 98.2327 765.724C98.4713 765.498 98.7568 765.385 99.0892 765.385C99.4216 765.385 99.705 765.498 99.9394 765.724C100.178 765.945 100.297 766.214 100.297 766.529C100.297 766.84 100.178 767.109 99.9394 767.335C99.705 767.556 99.4216 767.667 99.0892 767.667ZM106.857 779.198C105.89 779.198 105.057 778.991 104.358 778.578C103.663 778.161 103.126 777.575 102.747 776.82C102.372 776.062 102.185 775.173 102.185 774.155C102.185 773.149 102.372 772.263 102.747 771.496C103.126 770.729 103.655 770.13 104.332 769.7C105.014 769.269 105.811 769.054 106.723 769.054C107.277 769.054 107.814 769.146 108.334 769.329C108.854 769.512 109.32 769.8 109.734 770.192C110.147 770.584 110.473 771.093 110.712 771.719C110.95 772.342 111.07 773.098 111.07 773.989V774.666H103.265V773.234H109.197C109.197 772.732 109.094 772.286 108.89 771.898C108.685 771.506 108.398 771.197 108.027 770.972C107.66 770.746 107.23 770.633 106.736 770.633C106.199 770.633 105.73 770.765 105.329 771.029C104.933 771.289 104.626 771.63 104.409 772.052C104.196 772.469 104.089 772.923 104.089 773.413V774.532C104.089 775.188 104.204 775.746 104.435 776.207C104.669 776.667 104.995 777.018 105.413 777.261C105.83 777.5 106.318 777.619 106.876 777.619C107.239 777.619 107.569 777.568 107.867 777.466C108.165 777.359 108.423 777.202 108.641 776.993C108.858 776.784 109.024 776.526 109.139 776.219L110.948 776.545C110.803 777.078 110.543 777.545 110.168 777.945C109.797 778.342 109.331 778.651 108.768 778.872C108.21 779.089 107.573 779.198 106.857 779.198ZM117.326 779.198C116.375 779.198 115.557 778.983 114.871 778.553C114.189 778.118 113.665 777.519 113.299 776.756C112.932 775.994 112.749 775.12 112.749 774.136C112.749 773.138 112.937 772.259 113.312 771.496C113.687 770.729 114.215 770.13 114.897 769.7C115.579 769.269 116.382 769.054 117.307 769.054C118.052 769.054 118.717 769.192 119.301 769.469C119.885 769.742 120.356 770.126 120.714 770.62C121.076 771.114 121.291 771.692 121.359 772.352H119.499C119.397 771.892 119.162 771.496 118.796 771.163C118.434 770.831 117.948 770.665 117.339 770.665C116.806 770.665 116.339 770.805 115.939 771.087C115.542 771.364 115.233 771.76 115.012 772.276C114.79 772.787 114.679 773.392 114.679 774.091C114.679 774.807 114.788 775.425 115.005 775.945C115.223 776.464 115.53 776.867 115.926 777.153C116.326 777.438 116.797 777.581 117.339 777.581C117.701 777.581 118.029 777.515 118.323 777.383C118.621 777.246 118.87 777.053 119.071 776.801C119.275 776.55 119.418 776.247 119.499 775.893H121.359C121.291 776.528 121.084 777.095 120.739 777.594C120.394 778.092 119.932 778.484 119.352 778.77C118.777 779.055 118.101 779.198 117.326 779.198ZM127.986 769.182V770.716H122.623V769.182H127.986ZM124.061 766.83H125.973V776.117C125.973 776.488 126.028 776.767 126.139 776.955C126.25 777.138 126.392 777.263 126.567 777.332C126.746 777.396 126.94 777.428 127.149 777.428C127.302 777.428 127.436 777.417 127.551 777.396C127.666 777.374 127.756 777.357 127.82 777.344L128.165 778.923C128.054 778.966 127.897 779.009 127.692 779.051C127.487 779.098 127.232 779.124 126.925 779.128C126.422 779.136 125.953 779.047 125.519 778.859C125.084 778.672 124.733 778.382 124.464 777.99C124.196 777.598 124.061 777.106 124.061 776.513V766.83ZM137.299 771.579L135.567 771.886C135.495 771.664 135.38 771.453 135.222 771.253C135.068 771.053 134.86 770.888 134.595 770.761C134.331 770.633 134.001 770.569 133.605 770.569C133.063 770.569 132.612 770.69 132.25 770.933C131.887 771.172 131.706 771.481 131.706 771.86C131.706 772.188 131.828 772.452 132.071 772.653C132.313 772.853 132.706 773.017 133.247 773.145L134.806 773.503C135.71 773.712 136.383 774.033 136.826 774.468C137.269 774.903 137.491 775.467 137.491 776.162C137.491 776.75 137.321 777.274 136.98 777.734C136.643 778.19 136.172 778.548 135.567 778.808C134.966 779.068 134.269 779.198 133.477 779.198C132.377 779.198 131.48 778.964 130.786 778.495C130.091 778.022 129.665 777.351 129.507 776.482L131.355 776.2C131.47 776.682 131.706 777.046 132.064 777.293C132.422 777.536 132.889 777.658 133.464 777.658C134.09 777.658 134.591 777.528 134.966 777.268C135.341 777.004 135.529 776.682 135.529 776.303C135.529 775.996 135.414 775.738 135.184 775.529C134.958 775.32 134.61 775.163 134.142 775.056L132.48 774.692C131.563 774.483 130.886 774.151 130.447 773.695C130.012 773.239 129.795 772.661 129.795 771.962C129.795 771.383 129.957 770.876 130.281 770.441C130.605 770.006 131.052 769.668 131.623 769.425C132.194 769.178 132.848 769.054 133.585 769.054C134.647 769.054 135.482 769.284 136.091 769.744C136.701 770.2 137.103 770.812 137.299 771.579ZM18.8786 791.182V792.716H13.5157V791.182H18.8786ZM14.9539 788.83H16.8651V798.117C16.8651 798.488 16.9205 798.767 17.0313 798.955C17.1421 799.138 17.2849 799.263 17.4596 799.332C17.6386 799.396 17.8325 799.428 18.0413 799.428C18.1947 799.428 18.3289 799.417 18.444 799.396C18.559 799.374 18.6485 799.357 18.7124 799.344L19.0576 800.923C18.9468 800.966 18.7892 801.009 18.5846 801.051C18.3801 801.098 18.1244 801.124 17.8176 801.128C17.3147 801.136 16.846 801.047 16.4113 800.859C15.9767 800.672 15.6251 800.382 15.3566 799.99C15.0882 799.598 14.9539 799.106 14.9539 798.513V788.83ZM25.023 801.198C24.1025 801.198 23.2993 800.987 22.6132 800.565C21.9271 800.143 21.3944 799.553 21.0152 798.795C20.6359 798.036 20.4463 797.15 20.4463 796.136C20.4463 795.117 20.6359 794.227 21.0152 793.464C21.3944 792.701 21.9271 792.109 22.6132 791.687C23.2993 791.265 24.1025 791.054 25.023 791.054C25.9434 791.054 26.7467 791.265 27.4328 791.687C28.1189 792.109 28.6515 792.701 29.0308 793.464C29.4101 794.227 29.5997 795.117 29.5997 796.136C29.5997 797.15 29.4101 798.036 29.0308 798.795C28.6515 799.553 28.1189 800.143 27.4328 800.565C26.7467 800.987 25.9434 801.198 25.023 801.198ZM25.0294 799.594C25.626 799.594 26.1203 799.436 26.5123 799.121C26.9044 798.805 27.1942 798.386 27.3817 797.862C27.5734 797.337 27.6693 796.76 27.6693 796.129C27.6693 795.503 27.5734 794.928 27.3817 794.403C27.1942 793.875 26.9044 793.451 26.5123 793.131C26.1203 792.812 25.626 792.652 25.0294 792.652C24.4285 792.652 23.93 792.812 23.5336 793.131C23.1416 793.451 22.8497 793.875 22.6579 794.403C22.4704 794.928 22.3767 795.503 22.3767 796.129C22.3767 796.76 22.4704 797.337 22.6579 797.862C22.8497 798.386 23.1416 798.805 23.5336 799.121C23.93 799.436 24.4285 799.594 25.0294 799.594ZM38.4079 787.909V801H36.4967V787.909H38.4079ZM45.2107 801.198C44.2433 801.198 43.4102 800.991 42.7114 800.578C42.0168 800.161 41.4798 799.575 41.1006 798.82C40.7256 798.062 40.5381 797.173 40.5381 796.155C40.5381 795.149 40.7256 794.263 41.1006 793.496C41.4798 792.729 42.0083 792.13 42.6858 791.7C43.3676 791.269 44.1645 791.054 45.0764 791.054C45.6304 791.054 46.1673 791.146 46.6872 791.329C47.2071 791.512 47.6737 791.8 48.0871 792.192C48.5004 792.584 48.8264 793.093 49.0651 793.719C49.3037 794.342 49.423 795.098 49.423 795.989V796.666H41.6183V795.234H47.5502C47.5502 794.732 47.4479 794.286 47.2433 793.898C47.0388 793.506 46.7512 793.197 46.3804 792.972C46.0139 792.746 45.5835 792.633 45.0892 792.633C44.5523 792.633 44.0835 792.765 43.683 793.029C43.2867 793.289 42.9798 793.63 42.7625 794.052C42.5494 794.469 42.4429 794.923 42.4429 795.413V796.532C42.4429 797.188 42.558 797.746 42.7881 798.207C43.0225 798.667 43.3485 799.018 43.7661 799.261C44.1837 799.5 44.6716 799.619 45.2298 799.619C45.5921 799.619 45.9223 799.568 46.2206 799.466C46.5189 799.359 46.7767 799.202 46.9941 798.993C47.2114 798.784 47.3776 798.526 47.4926 798.219L49.3016 798.545C49.1567 799.078 48.8968 799.545 48.5218 799.945C48.151 800.342 47.6844 800.651 47.1219 800.872C46.5637 801.089 45.9266 801.198 45.2107 801.198ZM54.4008 801.217C53.7787 801.217 53.2162 801.102 52.7133 800.872C52.2105 800.638 51.8121 800.299 51.518 799.856C51.2282 799.413 51.0834 798.869 51.0834 798.226C51.0834 797.672 51.1899 797.216 51.403 796.858C51.616 796.5 51.9037 796.217 52.2659 796.008C52.6281 795.799 53.0329 795.641 53.4804 795.535C53.9278 795.428 54.3838 795.347 54.8483 795.292C55.4363 795.224 55.9136 795.168 56.2801 795.126C56.6466 795.079 56.9129 795.004 57.0791 794.902C57.2453 794.8 57.3284 794.634 57.3284 794.403V794.359C57.3284 793.8 57.1707 793.368 56.8554 793.061C56.5443 792.754 56.0798 792.601 55.4619 792.601C54.8184 792.601 54.3113 792.744 53.9406 793.029C53.5741 793.31 53.3206 793.624 53.18 793.969L51.3838 793.56C51.5969 792.963 51.9079 792.482 52.317 792.115C52.7304 791.744 53.2055 791.476 53.7425 791.31C54.2794 791.139 54.844 791.054 55.4363 791.054C55.8284 791.054 56.2439 791.101 56.6828 791.195C57.126 791.284 57.5393 791.45 57.9229 791.693C58.3106 791.936 58.6281 792.283 58.8753 792.735C59.1224 793.183 59.246 793.764 59.246 794.48V801H57.3795V799.658H57.3028C57.1792 799.905 56.9939 800.148 56.7467 800.386C56.4996 800.625 56.1821 800.823 55.7943 800.981C55.4065 801.138 54.942 801.217 54.4008 801.217ZM54.8163 799.683C55.3447 799.683 55.7964 799.579 56.1714 799.37C56.5507 799.161 56.8383 798.888 57.0344 798.552C57.2346 798.211 57.3348 797.847 57.3348 797.459V796.193C57.2666 796.261 57.1345 796.325 56.9385 796.385C56.7467 796.44 56.5273 796.489 56.2801 796.532C56.0329 796.57 55.7922 796.607 55.5578 796.641C55.3234 796.67 55.1274 796.696 54.9697 796.717C54.599 796.764 54.2602 796.843 53.9534 796.954C53.6508 797.065 53.4079 797.224 53.2247 797.433C53.0457 797.638 52.9562 797.911 52.9562 798.251C52.9562 798.724 53.1309 799.082 53.4804 799.325C53.8298 799.564 54.2751 799.683 54.8163 799.683ZM61.7916 801V791.182H63.6389V792.741H63.7412C63.9202 792.213 64.2355 791.798 64.6872 791.495C65.1432 791.188 65.6588 791.035 66.2341 791.035C66.3534 791.035 66.4941 791.039 66.656 791.048C66.8222 791.056 66.9521 791.067 67.0459 791.08V792.908C66.9692 792.886 66.8328 792.863 66.6368 792.837C66.4408 792.808 66.2448 792.793 66.0487 792.793C65.597 792.793 65.1943 792.888 64.8406 793.08C64.4912 793.268 64.2142 793.53 64.0097 793.866C63.8051 794.199 63.7029 794.578 63.7029 795.004V801H61.7916ZM70.6111 795.17V801H68.6998V791.182H70.5344V792.78H70.6558C70.8817 792.26 71.2354 791.842 71.7169 791.527C72.2027 791.212 72.8142 791.054 73.5514 791.054C74.2204 791.054 74.8064 791.195 75.3092 791.476C75.8121 791.753 76.202 792.166 76.479 792.716C76.7559 793.266 76.8944 793.945 76.8944 794.755V801H74.9832V794.985C74.9832 794.273 74.7979 793.717 74.4271 793.317C74.0564 792.912 73.5471 792.71 72.8994 792.71C72.4562 792.71 72.0621 792.805 71.7169 792.997C71.376 793.189 71.1054 793.47 70.9051 793.841C70.7091 794.207 70.6111 794.651 70.6111 795.17ZM88.8939 791.182V792.716H83.3456V791.182H88.8939ZM84.8669 801V790.044C84.8669 789.43 85.0012 788.921 85.2696 788.516C85.5381 788.107 85.8939 787.803 86.3371 787.602C86.7803 787.398 87.2618 787.295 87.7817 787.295C88.1652 787.295 88.4933 787.327 88.7661 787.391C89.0388 787.451 89.2412 787.506 89.3733 787.558L88.9259 789.104C88.8364 789.079 88.7213 789.049 88.5807 789.015C88.4401 788.977 88.2696 788.957 88.0693 788.957C87.6048 788.957 87.2725 789.072 87.0722 789.303C86.8762 789.533 86.7781 789.865 86.7781 790.3V801H84.8669ZM90.8659 801V791.182H92.7132V792.741H92.8154C92.9944 792.213 93.3097 791.798 93.7615 791.495C94.2174 791.188 94.733 791.035 95.3083 791.035C95.4276 791.035 95.5683 791.039 95.7302 791.048C95.8964 791.056 96.0264 791.067 96.1201 791.08V792.908C96.0434 792.886 95.907 792.863 95.711 792.837C95.515 792.808 95.319 792.793 95.123 792.793C94.6713 792.793 94.2686 792.888 93.9149 793.08C93.5654 793.268 93.2884 793.53 93.0839 793.866C92.8794 794.199 92.7771 794.578 92.7771 795.004V801H90.8659ZM101.558 801.198C100.638 801.198 99.8344 800.987 99.1483 800.565C98.4623 800.143 97.9296 799.553 97.5503 798.795C97.1711 798.036 96.9814 797.15 96.9814 796.136C96.9814 795.117 97.1711 794.227 97.5503 793.464C97.9296 792.701 98.4623 792.109 99.1483 791.687C99.8344 791.265 100.638 791.054 101.558 791.054C102.479 791.054 103.282 791.265 103.968 791.687C104.654 792.109 105.187 792.701 105.566 793.464C105.945 794.227 106.135 795.117 106.135 796.136C106.135 797.15 105.945 798.036 105.566 798.795C105.187 799.553 104.654 800.143 103.968 800.565C103.282 800.987 102.479 801.198 101.558 801.198ZM101.565 799.594C102.161 799.594 102.655 799.436 103.047 799.121C103.44 798.805 103.729 798.386 103.917 797.862C104.109 797.337 104.204 796.76 104.204 796.129C104.204 795.503 104.109 794.928 103.917 794.403C103.729 793.875 103.44 793.451 103.047 793.131C102.655 792.812 102.161 792.652 101.565 792.652C100.964 792.652 100.465 792.812 100.069 793.131C99.6768 793.451 99.3849 793.875 99.1931 794.403C99.0056 794.928 98.9118 795.503 98.9118 796.129C98.9118 796.76 99.0056 797.337 99.1931 797.862C99.3849 798.386 99.6768 798.805 100.069 799.121C100.465 799.436 100.964 799.594 101.565 799.594ZM108.268 801V791.182H110.103V792.78H110.224C110.429 792.239 110.763 791.817 111.228 791.514C111.692 791.207 112.248 791.054 112.896 791.054C113.552 791.054 114.102 791.207 114.545 791.514C114.993 791.821 115.323 792.243 115.536 792.78H115.638C115.873 792.256 116.245 791.838 116.757 791.527C117.268 791.212 117.878 791.054 118.585 791.054C119.476 791.054 120.202 791.333 120.765 791.891C121.331 792.45 121.615 793.291 121.615 794.416V801H119.704V794.595C119.704 793.93 119.522 793.449 119.16 793.151C118.798 792.852 118.366 792.703 117.863 792.703C117.241 792.703 116.757 792.895 116.412 793.278C116.066 793.658 115.894 794.146 115.894 794.742V801H113.989V794.474C113.989 793.941 113.823 793.513 113.491 793.189C113.158 792.865 112.726 792.703 112.193 792.703C111.831 792.703 111.496 792.799 111.189 792.991C110.887 793.178 110.642 793.44 110.454 793.777C110.271 794.114 110.179 794.504 110.179 794.947V801H108.268ZM125.436 801.121C125.086 801.121 124.786 800.998 124.534 800.751C124.283 800.499 124.157 800.197 124.157 799.843C124.157 799.494 124.283 799.195 124.534 798.948C124.786 798.697 125.086 798.571 125.436 798.571C125.785 798.571 126.085 798.697 126.337 798.948C126.588 799.195 126.714 799.494 126.714 799.843C126.714 800.077 126.654 800.293 126.535 800.489C126.42 800.68 126.267 800.834 126.075 800.949C125.883 801.064 125.67 801.121 125.436 801.121Z" fill="#132356"/>
<path d="M40.1953 474.348C40.1271 473.743 39.8459 473.274 39.3516 472.942C38.8572 472.605 38.2351 472.437 37.4851 472.437C36.9482 472.437 36.4837 472.522 36.0916 472.692C35.6996 472.859 35.3949 473.089 35.1776 473.383C34.9645 473.673 34.858 474.003 34.858 474.374C34.858 474.685 34.9304 474.953 35.0753 475.179C35.2244 475.405 35.4183 475.594 35.657 475.748C35.8999 475.897 36.1598 476.023 36.4368 476.125C36.7138 476.223 36.9801 476.304 37.2358 476.368L38.5142 476.7C38.9318 476.803 39.3601 476.941 39.799 477.116C40.2379 477.29 40.6449 477.521 41.0199 477.806C41.3949 478.092 41.6974 478.445 41.9276 478.867C42.1619 479.289 42.2791 479.794 42.2791 480.382C42.2791 481.124 42.0874 481.782 41.7038 482.357C41.3246 482.933 40.7727 483.386 40.0483 483.719C39.3281 484.051 38.4567 484.217 37.4339 484.217C36.4538 484.217 35.6058 484.062 34.8899 483.751C34.174 483.44 33.6136 482.999 33.2088 482.428C32.804 481.852 32.5803 481.17 32.5376 480.382H34.5192C34.5575 480.855 34.7109 481.249 34.9794 481.565C35.2521 481.876 35.5994 482.108 36.0213 482.261C36.4474 482.411 36.9141 482.485 37.4212 482.485C37.9794 482.485 38.4759 482.398 38.9105 482.223C39.3494 482.044 39.6946 481.797 39.946 481.482C40.1974 481.162 40.3232 480.789 40.3232 480.363C40.3232 479.975 40.2124 479.658 39.9908 479.411C39.7734 479.163 39.4773 478.959 39.1023 478.797C38.7315 478.635 38.3118 478.492 37.843 478.369L36.2962 477.947C35.2479 477.661 34.4169 477.241 33.8033 476.688C33.1939 476.134 32.8892 475.401 32.8892 474.489C32.8892 473.734 33.0938 473.076 33.5028 472.513C33.9119 471.951 34.4659 471.514 35.1648 471.203C35.8636 470.888 36.652 470.73 37.5298 470.73C38.4162 470.73 39.1982 470.886 39.8757 471.197C40.5575 471.508 41.0945 471.936 41.4865 472.482C41.8786 473.023 42.0831 473.645 42.1001 474.348H40.1953ZM49.0691 474.182V475.716H43.7061V474.182H49.0691ZM45.1444 471.83H47.0556V481.117C47.0556 481.488 47.111 481.767 47.2218 481.955C47.3326 482.138 47.4753 482.263 47.65 482.332C47.829 482.396 48.0229 482.428 48.2317 482.428C48.3851 482.428 48.5194 482.417 48.6344 482.396C48.7495 482.374 48.839 482.357 48.9029 482.344L49.248 483.923C49.1373 483.966 48.9796 484.009 48.775 484.051C48.5705 484.098 48.3148 484.124 48.008 484.128C47.5051 484.136 47.0364 484.047 46.6017 483.859C46.1671 483.672 45.8155 483.382 45.5471 482.99C45.2786 482.598 45.1444 482.106 45.1444 481.513V471.83ZM57.4027 479.928V474.182H59.3203V484H57.4411V482.3H57.3388C57.1129 482.824 56.7507 483.261 56.2521 483.61C55.7578 483.955 55.142 484.128 54.4048 484.128C53.7741 484.128 53.2159 483.989 52.7301 483.712C52.2486 483.431 51.8693 483.016 51.5923 482.466C51.3196 481.916 51.1832 481.237 51.1832 480.427V474.182H53.0945V480.197C53.0945 480.866 53.2798 481.398 53.6506 481.795C54.0213 482.191 54.5028 482.389 55.0952 482.389C55.4531 482.389 55.8089 482.3 56.1626 482.121C56.5206 481.942 56.8168 481.671 57.0511 481.309C57.2898 480.947 57.407 480.487 57.4027 479.928ZM65.5637 484.192C64.7711 484.192 64.0637 483.989 63.4416 483.585C62.8237 483.175 62.3379 482.594 61.9842 481.839C61.6348 481.081 61.46 480.171 61.46 479.11C61.46 478.049 61.6369 477.141 61.9906 476.387C62.3485 475.633 62.8386 475.055 63.4608 474.655C64.0829 474.254 64.7882 474.054 65.5765 474.054C66.1859 474.054 66.676 474.156 67.0467 474.361C67.4217 474.561 67.7115 474.795 67.916 475.064C68.1248 475.332 68.2868 475.569 68.4018 475.773H68.5169V470.909H70.4281V484H68.5616V482.472H68.4018C68.2868 482.681 68.1206 482.92 67.9032 483.188C67.6902 483.457 67.3961 483.691 67.0211 483.891C66.6461 484.092 66.1603 484.192 65.5637 484.192ZM65.9856 482.562C66.5353 482.562 66.9998 482.417 67.3791 482.127C67.7626 481.833 68.0524 481.426 68.2484 480.906C68.4487 480.386 68.5488 479.781 68.5488 479.091C68.5488 478.409 68.4508 477.812 68.2548 477.301C68.0588 476.79 67.7711 476.391 67.3919 476.106C67.0126 475.82 66.5439 475.678 65.9856 475.678C65.4103 475.678 64.9309 475.827 64.5474 476.125C64.1639 476.423 63.8741 476.83 63.6781 477.346C63.4863 477.862 63.3904 478.443 63.3904 479.091C63.3904 479.747 63.4885 480.337 63.6845 480.862C63.8805 481.386 64.1703 481.801 64.5538 482.108C64.9416 482.411 65.4189 482.562 65.9856 482.562ZM77.3874 484.198C76.4201 484.198 75.587 483.991 74.8881 483.578C74.1935 483.161 73.6566 482.575 73.2773 481.82C72.9023 481.062 72.7148 480.173 72.7148 479.155C72.7148 478.149 72.9023 477.263 73.2773 476.496C73.6566 475.729 74.185 475.13 74.8626 474.7C75.5444 474.269 76.3413 474.054 77.2532 474.054C77.8072 474.054 78.3441 474.146 78.864 474.329C79.3839 474.512 79.8505 474.8 80.2638 475.192C80.6772 475.584 81.0032 476.093 81.2418 476.719C81.4805 477.342 81.5998 478.098 81.5998 478.989V479.666H73.7951V478.234H79.7269C79.7269 477.732 79.6246 477.286 79.4201 476.898C79.2156 476.506 78.9279 476.197 78.5572 475.972C78.1907 475.746 77.7603 475.633 77.266 475.633C76.729 475.633 76.2603 475.765 75.8597 476.029C75.4634 476.289 75.1566 476.63 74.9393 477.052C74.7262 477.469 74.6197 477.923 74.6197 478.413V479.532C74.6197 480.188 74.7347 480.746 74.9648 481.207C75.1992 481.667 75.5252 482.018 75.9428 482.261C76.3604 482.5 76.8484 482.619 77.4066 482.619C77.7688 482.619 78.0991 482.568 78.3974 482.466C78.6957 482.359 78.9535 482.202 79.1708 481.993C79.3881 481.784 79.5543 481.526 79.6694 481.219L81.4783 481.545C81.3335 482.078 81.0735 482.545 80.6985 482.945C80.3278 483.342 79.8612 483.651 79.2987 483.872C78.7404 484.089 78.1033 484.198 77.3874 484.198ZM85.6316 478.17V484H83.7203V474.182H85.5549V475.78H85.6763C85.9022 475.26 86.2559 474.842 86.7374 474.527C87.2232 474.212 87.8347 474.054 88.5719 474.054C89.2409 474.054 89.8269 474.195 90.3297 474.476C90.8326 474.753 91.2225 475.166 91.4995 475.716C91.7765 476.266 91.915 476.945 91.915 477.755V484H90.0037V477.985C90.0037 477.273 89.8184 476.717 89.4476 476.317C89.0769 475.912 88.5676 475.71 87.9199 475.71C87.4767 475.71 87.0826 475.805 86.7374 475.997C86.3965 476.189 86.1259 476.47 85.9256 476.841C85.7296 477.207 85.6316 477.651 85.6316 478.17ZM99.0613 474.182V475.716H93.6983V474.182H99.0613ZM95.1365 471.83H97.0478V481.117C97.0478 481.488 97.1032 481.767 97.214 481.955C97.3248 482.138 97.4675 482.263 97.6422 482.332C97.8212 482.396 98.0151 482.428 98.2239 482.428C98.3773 482.428 98.5115 482.417 98.6266 482.396C98.7417 482.374 98.8311 482.357 98.8951 482.344L99.2402 483.923C99.1294 483.966 98.9718 484.009 98.7672 484.051C98.5627 484.098 98.307 484.124 98.0002 484.128C97.4973 484.136 97.0286 484.047 96.5939 483.859C96.1593 483.672 95.8077 483.382 95.5392 482.99C95.2708 482.598 95.1365 482.106 95.1365 481.513V471.83ZM108.374 476.579L106.642 476.886C106.57 476.664 106.455 476.453 106.297 476.253C106.144 476.053 105.935 475.888 105.671 475.761C105.406 475.633 105.076 475.569 104.68 475.569C104.139 475.569 103.687 475.69 103.325 475.933C102.963 476.172 102.781 476.481 102.781 476.86C102.781 477.188 102.903 477.452 103.146 477.653C103.389 477.853 103.781 478.017 104.322 478.145L105.882 478.503C106.785 478.712 107.458 479.033 107.901 479.468C108.345 479.903 108.566 480.467 108.566 481.162C108.566 481.75 108.396 482.274 108.055 482.734C107.718 483.19 107.247 483.548 106.642 483.808C106.041 484.068 105.345 484.198 104.552 484.198C103.453 484.198 102.556 483.964 101.861 483.495C101.166 483.022 100.74 482.351 100.583 481.482L102.43 481.2C102.545 481.682 102.781 482.046 103.139 482.293C103.497 482.536 103.964 482.658 104.539 482.658C105.166 482.658 105.666 482.528 106.041 482.268C106.416 482.004 106.604 481.682 106.604 481.303C106.604 480.996 106.489 480.738 106.259 480.529C106.033 480.32 105.686 480.163 105.217 480.056L103.555 479.692C102.639 479.483 101.961 479.151 101.522 478.695C101.088 478.239 100.87 477.661 100.87 476.962C100.87 476.383 101.032 475.876 101.356 475.441C101.68 475.006 102.127 474.668 102.698 474.425C103.269 474.178 103.923 474.054 104.661 474.054C105.722 474.054 106.557 474.284 107.166 474.744C107.776 475.2 108.178 475.812 108.374 476.579ZM40.6915 492.909H42.673V501.519C42.673 502.435 42.4578 503.247 42.0274 503.955C41.597 504.658 40.9919 505.212 40.2121 505.616C39.4323 506.017 38.5182 506.217 37.4699 506.217C36.4259 506.217 35.5139 506.017 34.7341 505.616C33.9543 505.212 33.3492 504.658 32.9188 503.955C32.4884 503.247 32.2732 502.435 32.2732 501.519V492.909H34.2483V501.359C34.2483 501.952 34.3783 502.478 34.6382 502.938C34.9024 503.398 35.2753 503.761 35.7568 504.025C36.2384 504.285 36.8094 504.415 37.4699 504.415C38.1347 504.415 38.7078 504.285 39.1894 504.025C39.6752 503.761 40.0459 503.398 40.3016 502.938C40.5615 502.478 40.6915 501.952 40.6915 501.359V492.909ZM45.3912 509.682V496.182H47.2577V497.773H47.4175C47.5283 497.569 47.6881 497.332 47.8969 497.064C48.1057 496.795 48.3955 496.561 48.7662 496.361C49.137 496.156 49.627 496.054 50.2364 496.054C51.029 496.054 51.7364 496.254 52.3586 496.655C52.9807 497.055 53.4687 497.633 53.8224 498.387C54.1803 499.141 54.3593 500.049 54.3593 501.11C54.3593 502.171 54.1824 503.081 53.8287 503.839C53.4751 504.594 52.9893 505.175 52.3714 505.585C51.7535 505.989 51.0482 506.192 50.2556 506.192C49.659 506.192 49.1711 506.092 48.7918 505.891C48.4168 505.691 48.1228 505.457 47.9097 505.188C47.6966 504.92 47.5326 504.681 47.4175 504.472H47.3025V509.682H45.3912ZM47.2641 501.091C47.2641 501.781 47.3643 502.386 47.5645 502.906C47.7648 503.426 48.0546 503.833 48.4339 504.127C48.8131 504.417 49.2776 504.562 49.8273 504.562C50.3983 504.562 50.8756 504.411 51.2591 504.108C51.6427 503.801 51.9324 503.386 52.1285 502.862C52.3287 502.337 52.4289 501.747 52.4289 501.091C52.4289 500.443 52.3309 499.862 52.1349 499.346C51.9431 498.83 51.6533 498.423 51.2655 498.125C50.882 497.827 50.4026 497.678 49.8273 497.678C49.2733 497.678 48.8046 497.82 48.4211 498.106C48.0418 498.391 47.7542 498.79 47.5582 499.301C47.3621 499.812 47.2641 500.409 47.2641 501.091ZM63.8579 498.579L62.1256 498.886C62.0532 498.664 61.9381 498.453 61.7805 498.253C61.627 498.053 61.4182 497.888 61.154 497.761C60.8898 497.633 60.5596 497.569 60.1633 497.569C59.6221 497.569 59.1704 497.69 58.8082 497.933C58.4459 498.172 58.2648 498.481 58.2648 498.86C58.2648 499.188 58.3863 499.452 58.6292 499.653C58.8721 499.853 59.2641 500.017 59.8053 500.145L61.365 500.503C62.2684 500.712 62.9417 501.033 63.3849 501.468C63.828 501.903 64.0496 502.467 64.0496 503.162C64.0496 503.75 63.8792 504.274 63.5383 504.734C63.2016 505.19 62.7307 505.548 62.1256 505.808C61.5248 506.068 60.828 506.198 60.0354 506.198C58.936 506.198 58.039 505.964 57.3444 505.495C56.6498 505.022 56.2236 504.351 56.066 503.482L57.9133 503.2C58.0283 503.682 58.2648 504.046 58.6228 504.293C58.9807 504.536 59.4474 504.658 60.0226 504.658C60.6491 504.658 61.1498 504.528 61.5248 504.268C61.8998 504.004 62.0873 503.682 62.0873 503.303C62.0873 502.996 61.9722 502.738 61.7421 502.529C61.5162 502.32 61.1689 502.163 60.7002 502.056L59.0383 501.692C58.1221 501.483 57.4445 501.151 57.0056 500.695C56.5709 500.239 56.3536 499.661 56.3536 498.962C56.3536 498.383 56.5155 497.876 56.8394 497.441C57.1633 497.006 57.6107 496.668 58.1817 496.425C58.7528 496.178 59.4069 496.054 60.1441 496.054C61.2052 496.054 62.0404 496.284 62.6498 496.744C63.2591 497.2 63.6618 497.812 63.8579 498.579ZM67.9088 502.67L67.896 500.337H68.2284L72.1404 496.182H74.4287L69.9671 500.912H69.6666L67.9088 502.67ZM66.151 506V492.909H68.0622V506H66.151ZM72.3513 506L68.8357 501.334L70.1524 499.998L74.6972 506H72.3513ZM76.1705 506V496.182H78.0818V506H76.1705ZM77.1357 494.667C76.8034 494.667 76.5178 494.556 76.2792 494.335C76.0448 494.109 75.9276 493.84 75.9276 493.529C75.9276 493.214 76.0448 492.945 76.2792 492.724C76.5178 492.498 76.8034 492.385 77.1357 492.385C77.4681 492.385 77.7515 492.498 77.9859 492.724C78.2245 492.945 78.3438 493.214 78.3438 493.529C78.3438 493.84 78.2245 494.109 77.9859 494.335C77.7515 494.556 77.4681 494.667 77.1357 494.667ZM82.5642 492.909V506H80.653V492.909H82.5642ZM87.0466 492.909V506H85.1354V492.909H87.0466ZM93.8493 506.198C92.882 506.198 92.0489 505.991 91.3501 505.578C90.6555 505.161 90.1185 504.575 89.7393 503.82C89.3643 503.062 89.1768 502.173 89.1768 501.155C89.1768 500.149 89.3643 499.263 89.7393 498.496C90.1185 497.729 90.6469 497.13 91.3245 496.7C92.0063 496.269 92.8032 496.054 93.7151 496.054C94.2691 496.054 94.806 496.146 95.3259 496.329C95.8458 496.512 96.3124 496.8 96.7258 497.192C97.1391 497.584 97.4651 498.093 97.7037 498.719C97.9424 499.342 98.0617 500.098 98.0617 500.989V501.666H90.257V500.234H96.1888C96.1888 499.732 96.0866 499.286 95.882 498.898C95.6775 498.506 95.3898 498.197 95.0191 497.972C94.6526 497.746 94.2222 497.633 93.7279 497.633C93.191 497.633 92.7222 497.765 92.3216 498.029C91.9253 498.289 91.6185 498.63 91.4012 499.052C91.1881 499.469 91.0816 499.923 91.0816 500.413V501.532C91.0816 502.188 91.1966 502.746 91.4268 503.207C91.6611 503.667 91.9871 504.018 92.4047 504.261C92.8224 504.5 93.3103 504.619 93.8685 504.619C94.2307 504.619 94.561 504.568 94.8593 504.466C95.1576 504.359 95.4154 504.202 95.6327 503.993C95.8501 503.784 96.0162 503.526 96.1313 503.219L97.9403 503.545C97.7954 504.078 97.5354 504.545 97.1604 504.945C96.7897 505.342 96.3231 505.651 95.7606 505.872C95.2023 506.089 94.5653 506.198 93.8493 506.198ZM103.858 506.192C103.065 506.192 102.358 505.989 101.736 505.585C101.118 505.175 100.632 504.594 100.278 503.839C99.9287 503.081 99.754 502.171 99.754 501.11C99.754 500.049 99.9308 499.141 100.285 498.387C100.642 497.633 101.133 497.055 101.755 496.655C102.377 496.254 103.082 496.054 103.87 496.054C104.48 496.054 104.97 496.156 105.341 496.361C105.716 496.561 106.005 496.795 106.21 497.064C106.419 497.332 106.581 497.569 106.696 497.773H106.811V492.909H108.722V506H106.856V504.472H106.696C106.581 504.681 106.415 504.92 106.197 505.188C105.984 505.457 105.69 505.691 105.315 505.891C104.94 506.092 104.454 506.192 103.858 506.192ZM104.28 504.562C104.829 504.562 105.294 504.417 105.673 504.127C106.057 503.833 106.346 503.426 106.542 502.906C106.743 502.386 106.843 501.781 106.843 501.091C106.843 500.409 106.745 499.812 106.549 499.301C106.353 498.79 106.065 498.391 105.686 498.106C105.307 497.82 104.838 497.678 104.28 497.678C103.704 497.678 103.225 497.827 102.841 498.125C102.458 498.423 102.168 498.83 101.972 499.346C101.78 499.862 101.684 500.443 101.684 501.091C101.684 501.747 101.782 502.337 101.978 502.862C102.174 503.386 102.464 503.801 102.848 504.108C103.236 504.411 103.713 504.562 104.28 504.562Z" fill="#132356"/>
<defs>
<linearGradient id="paint0_linear_7_2" x1="1.66579e-06" y1="94" x2="141" y2="94" gradientUnits="userSpaceOnUse">
<stop stop-color="#8B98D7"/>
<stop offset="1" stop-color="#132356" stop-opacity="0.9"/>
</linearGradient>
<linearGradient id="paint1_linear_7_2" x1="98" y1="14.9362" x2="116" y2="14.9362" gradientUnits="userSpaceOnUse">
<stop stop-color="#8B98D7"/>
<stop offset="1" stop-color="#132356" stop-opacity="0.76"/>
</linearGradient>
<linearGradient id="paint2_linear_7_2" x1="116" y1="27.9716" x2="124" y2="27.9716" gradientUnits="userSpaceOnUse">
<stop stop-color="#8B98D7"/>
<stop offset="1" stop-color="#132356" stop-opacity="0.66"/>
</linearGradient>
<linearGradient id="paint3_linear_7_2" x1="102" y1="2.48227" x2="107" y2="2.48227" gradientUnits="userSpaceOnUse">
<stop stop-color="#8B98D7"/>
<stop offset="1" stop-color="#132356" stop-opacity="0.48"/>
</linearGradient>
<linearGradient id="paint4_linear_7_2" x1="1.66579e-06" y1="671" x2="141" y2="671" gradientUnits="userSpaceOnUse">
<stop stop-color="#8B98D7"/>
<stop offset="1" stop-color="#132356" stop-opacity="0.9"/>
</linearGradient>
<linearGradient id="paint5_linear_7_2" x1="101" y1="597.433" x2="120" y2="597.433" gradientUnits="userSpaceOnUse">
<stop stop-color="#8B98D7"/>
<stop offset="1" stop-color="#132356" stop-opacity="0.81"/>
</linearGradient>
<linearGradient id="paint6_linear_7_2" x1="120" y1="611.979" x2="126" y2="611.979" gradientUnits="userSpaceOnUse">
<stop stop-color="#8B98D7"/>
<stop offset="1" stop-color="#132356" stop-opacity="0.81"/>
</linearGradient>
<linearGradient id="paint7_linear_7_2" x1="1.66579e-06" y1="376" x2="141" y2="376" gradientUnits="userSpaceOnUse">
<stop stop-color="#132356"/>
<stop offset="1" stop-color="#8B98D7" stop-opacity="0.9"/>
</linearGradient>
<linearGradient id="paint8_linear_7_2" x1="113" y1="304.689" x2="128" y2="304.689" gradientUnits="userSpaceOnUse">
<stop stop-color="#132356"/>
<stop offset="1" stop-color="#8B98D7" stop-opacity="0.55"/>
</linearGradient>
<linearGradient id="paint9_linear_7_2" x1="113.958" y1="289.683" x2="118.958" y2="289.683" gradientUnits="userSpaceOnUse">
<stop stop-color="#132356"/>
<stop offset="1" stop-color="#8B98D7" stop-opacity="0.55"/>
</linearGradient>
</defs>
</svg>
