<svg width="141" height="1113" viewBox="0 0 141 1113" fill="none" xmlns="http://www.w3.org/2000/svg">
<circle cx="70.5" cy="94.5" r="70.5" fill="url(#paint0_linear_8_27)"/>
<circle cx="107" cy="15" r="9" fill="url(#paint1_linear_8_27)"/>
<circle cx="120" cy="28" r="4" fill="url(#paint2_linear_8_27)"/>
<circle cx="104.5" cy="2.5" r="2.5" fill="url(#paint3_linear_8_27)"/>
<circle cx="70.5" cy="671.5" r="70.5" fill="url(#paint4_linear_8_27)"/>
<circle cx="70.5" cy="979.5" r="70.5" fill="url(#paint5_linear_8_27)"/>
<circle cx="110.5" cy="597.5" r="9.5" fill="url(#paint6_linear_8_27)"/>
<circle cx="110.5" cy="905.5" r="9.5" fill="url(#paint7_linear_8_27)"/>
<circle cx="123" cy="612" r="3" fill="url(#paint8_linear_8_27)"/>
<circle cx="98" cy="893" r="3" fill="url(#paint9_linear_8_27)"/>
<circle cx="70.5" cy="376.5" r="70.5" fill="url(#paint10_linear_8_27)"/>
<circle cx="120.5" cy="304.742" r="7.5" transform="rotate(57.021 120.5 304.742)" fill="url(#paint11_linear_8_27)"/>
<circle cx="116.458" cy="289.7" r="2.5" transform="rotate(-175.204 116.458 289.7)" fill="url(#paint12_linear_8_27)"/>
<path d="M43.7898 103.259C42.8172 103.252 41.8786 103.089 40.9737 102.769C40.075 102.449 39.2687 101.929 38.5547 101.209C37.8407 100.489 37.2744 99.5346 36.8558 98.3466C36.4434 97.1586 36.2372 95.6998 36.2372 93.9702C36.2434 92.3821 36.425 90.9633 36.782 89.7138C37.1451 88.4581 37.6622 87.3932 38.3331 86.5192C39.0102 85.6451 39.8196 84.9803 40.7614 84.5249C41.7031 84.0632 42.7588 83.8324 43.9283 83.8324C45.1901 83.8324 46.3042 84.0786 47.2706 84.571C48.237 85.0573 49.0125 85.719 49.5973 86.5561C50.1882 87.3932 50.5452 88.3319 50.6683 89.3722H46.7259C46.572 88.7135 46.2488 88.1965 45.7564 87.821C45.264 87.4455 44.6546 87.2578 43.9283 87.2578C42.6972 87.2578 41.7616 87.7933 41.1214 88.8643C40.4875 89.9354 40.1643 91.3911 40.152 93.2315H40.2812C40.5644 92.6714 40.946 92.1944 41.4261 91.8004C41.9124 91.4003 42.4633 91.0956 43.0788 90.8864C43.7005 90.6709 44.3561 90.5632 45.0455 90.5632C46.1657 90.5632 47.1629 90.8279 48.0369 91.3572C48.911 91.8804 49.6004 92.6006 50.1051 93.5178C50.6098 94.4349 50.8622 95.4844 50.8622 96.6662C50.8622 97.9465 50.5637 99.0852 49.9666 100.082C49.3757 101.08 48.5478 101.861 47.483 102.428C46.4242 102.988 45.1932 103.265 43.7898 103.259ZM43.7713 100.119C44.3868 100.119 44.9377 99.9716 45.424 99.6761C45.9103 99.3807 46.2919 98.9806 46.5689 98.4759C46.8459 97.9711 46.9844 97.4048 46.9844 96.777C46.9844 96.1491 46.8459 95.5859 46.5689 95.0874C46.2981 94.5888 45.9226 94.1918 45.4425 93.8963C44.9624 93.6009 44.4145 93.4531 43.799 93.4531C43.3374 93.4531 42.9096 93.5393 42.5156 93.7116C42.1278 93.884 41.7862 94.1241 41.4908 94.4318C41.2015 94.7396 40.9737 95.0966 40.8075 95.5028C40.6413 95.9029 40.5582 96.3307 40.5582 96.7862C40.5582 97.3956 40.6967 97.9527 40.9737 98.4574C41.2569 98.9621 41.6385 99.3653 42.1186 99.6669C42.6049 99.9685 43.1558 100.119 43.7713 100.119ZM61.1108 103.415C59.5227 103.409 58.1563 103.018 57.0114 102.243C55.8726 101.467 54.9955 100.344 54.38 98.8729C53.7706 97.4018 53.469 95.6321 53.4751 93.5639C53.4751 91.5019 53.7798 89.7446 54.3892 88.2919C55.0047 86.8393 55.8819 85.7344 57.0206 84.9773C58.1655 84.214 59.5289 83.8324 61.1108 83.8324C62.6927 83.8324 64.053 84.214 65.1918 84.9773C66.3366 85.7405 67.2169 86.8485 67.8324 88.3011C68.4479 89.7476 68.7526 91.5019 68.7464 93.5639C68.7464 95.6383 68.4387 97.411 67.8232 98.8821C67.2138 100.353 66.3397 101.477 65.201 102.252C64.0623 103.028 62.6989 103.415 61.1108 103.415ZM61.1108 100.101C62.1941 100.101 63.0589 99.5561 63.7053 98.4666C64.3516 97.3771 64.6716 95.7429 64.6655 93.5639C64.6655 92.1297 64.5178 90.9356 64.2223 89.9815C63.933 89.0275 63.5206 88.3104 62.9851 87.8303C62.4557 87.3501 61.831 87.1101 61.1108 87.1101C60.0336 87.1101 59.1719 87.6487 58.5256 88.7259C57.8793 89.803 57.553 91.4157 57.5469 93.5639C57.5469 95.0166 57.6915 96.2292 57.9808 97.2017C58.2763 98.1681 58.6918 98.8944 59.2273 99.3807C59.7628 99.8608 60.3906 100.101 61.1108 100.101ZM79.0112 103.415C77.4231 103.409 76.0566 103.018 74.9118 102.243C73.773 101.467 72.8959 100.344 72.2804 98.8729C71.671 97.4018 71.3694 95.6321 71.3755 93.5639C71.3755 91.5019 71.6802 89.7446 72.2896 88.2919C72.9051 86.8393 73.7823 85.7344 74.921 84.9773C76.0659 84.214 77.4293 83.8324 79.0112 83.8324C80.5931 83.8324 81.9534 84.214 83.0922 84.9773C84.237 85.7405 85.1172 86.8485 85.7328 88.3011C86.3483 89.7476 86.653 91.5019 86.6468 93.5639C86.6468 95.6383 86.3391 97.411 85.7235 98.8821C85.1142 100.353 84.2401 101.477 83.1014 102.252C81.9627 103.028 80.5993 103.415 79.0112 103.415ZM79.0112 100.101C80.0945 100.101 80.9593 99.5561 81.6056 98.4666C82.252 97.3771 82.572 95.7429 82.5659 93.5639C82.5659 92.1297 82.4181 90.9356 82.1227 89.9815C81.8334 89.0275 81.421 88.3104 80.8855 87.8303C80.3561 87.3501 79.7314 87.1101 79.0112 87.1101C77.934 87.1101 77.0723 87.6487 76.426 88.7259C75.7797 89.803 75.4534 91.4157 75.4473 93.5639C75.4473 95.0166 75.5919 96.2292 75.8812 97.2017C76.1767 98.1681 76.5922 98.8944 77.1277 99.3807C77.6632 99.8608 78.291 100.101 79.0112 100.101ZM89.6083 103V84.0909H93.6062V92.4283H93.8555L100.66 84.0909H105.452L98.435 92.5575L105.535 103H100.752L95.5728 95.2259L93.6062 97.6264V103H89.6083Z" fill="#F2F2F2"/>
<path d="M44.7592 366.091V385H40.7614V369.886H40.6506L36.3203 372.6V369.055L41.0014 366.091H44.7592ZM56.6674 385.415C55.0794 385.409 53.7129 385.018 52.568 384.243C51.4293 383.467 50.5521 382.344 49.9366 380.873C49.3272 379.402 49.0256 377.632 49.0318 375.564C49.0318 373.502 49.3365 371.745 49.9458 370.292C50.5614 368.839 51.4385 367.734 52.5772 366.977C53.7221 366.214 55.0855 365.832 56.6674 365.832C58.2493 365.832 59.6097 366.214 60.7484 366.977C61.8933 367.741 62.7735 368.848 63.389 370.301C64.0046 371.748 64.3092 373.502 64.3031 375.564C64.3031 377.638 63.9953 379.411 63.3798 380.882C62.7704 382.353 61.8964 383.477 60.7576 384.252C59.6189 385.028 58.2555 385.415 56.6674 385.415ZM56.6674 382.101C57.7508 382.101 58.6156 381.556 59.2619 380.467C59.9082 379.377 60.2283 377.743 60.2221 375.564C60.2221 374.13 60.0744 372.936 59.7789 371.982C59.4896 371.027 59.0772 370.31 58.5417 369.83C58.0124 369.35 57.3876 369.11 56.6674 369.11C55.5903 369.11 54.7285 369.649 54.0822 370.726C53.4359 371.803 53.1097 373.416 53.1035 375.564C53.1035 377.017 53.2482 378.229 53.5375 379.202C53.8329 380.168 54.2484 380.894 54.7839 381.381C55.3194 381.861 55.9473 382.101 56.6674 382.101ZM74.5678 385.415C72.9798 385.409 71.6133 385.018 70.4684 384.243C69.3297 383.467 68.4525 382.344 67.837 380.873C67.2276 379.402 66.926 377.632 66.9322 375.564C66.9322 373.502 67.2369 371.745 67.8462 370.292C68.4618 368.839 69.3389 367.734 70.4776 366.977C71.6225 366.214 72.9859 365.832 74.5678 365.832C76.1497 365.832 77.5101 366.214 78.6488 366.977C79.7937 367.741 80.6739 368.848 81.2894 370.301C81.9049 371.748 82.2096 373.502 82.2035 375.564C82.2035 377.638 81.8957 379.411 81.2802 380.882C80.6708 382.353 79.7968 383.477 78.658 384.252C77.5193 385.028 76.1559 385.415 74.5678 385.415ZM74.5678 382.101C75.6512 382.101 76.516 381.556 77.1623 380.467C77.8086 379.377 78.1287 377.743 78.1225 375.564C78.1225 374.13 77.9748 372.936 77.6793 371.982C77.39 371.027 76.9776 370.31 76.4421 369.83C75.9128 369.35 75.288 369.11 74.5678 369.11C73.4906 369.11 72.6289 369.649 71.9826 370.726C71.3363 371.803 71.0101 373.416 71.0039 375.564C71.0039 377.017 71.1486 378.229 71.4379 379.202C71.7333 380.168 72.1488 380.894 72.6843 381.381C73.2198 381.861 73.8477 382.101 74.5678 382.101ZM85.165 385V366.091H89.1628V374.428H89.4121L96.2168 366.091H101.009L93.9917 374.558L101.092 385H96.3091L91.1294 377.226L89.1628 379.626V385H85.165Z" fill="#F2F2F2"/>
<path d="M51.4389 680.259C50.134 680.259 48.9706 680.018 47.9489 679.538C46.9332 679.058 46.1269 678.397 45.5298 677.553C44.9328 676.71 44.6219 675.744 44.5973 674.654H48.4751C48.5182 675.387 48.826 675.981 49.3984 676.436C49.9709 676.892 50.651 677.119 51.4389 677.119C52.0668 677.119 52.6207 676.981 53.1009 676.704C53.5871 676.421 53.9657 676.03 54.2365 675.531C54.5135 675.027 54.652 674.448 54.652 673.795C54.652 673.131 54.5104 672.546 54.2273 672.041C53.9503 671.536 53.5656 671.143 53.0732 670.859C52.5807 670.576 52.0175 670.432 51.3835 670.425C50.8295 670.425 50.291 670.539 49.7678 670.767C49.2507 670.995 48.8475 671.306 48.5582 671.7L45.0036 671.062L45.8991 661.091H57.4588V664.359H49.1953L48.706 669.096H48.8168C49.1491 668.628 49.6508 668.24 50.3217 667.933C50.9927 667.625 51.7436 667.471 52.5746 667.471C53.7133 667.471 54.7289 667.739 55.6214 668.274C56.514 668.81 57.2188 669.545 57.7358 670.481C58.2528 671.41 58.5083 672.481 58.5021 673.694C58.5083 674.968 58.2128 676.101 57.6158 677.092C57.0249 678.076 56.197 678.852 55.1321 679.418C54.0734 679.978 52.8423 680.259 51.4389 680.259ZM68.7045 680.415C67.1165 680.409 65.75 680.018 64.6051 679.243C63.4664 678.467 62.5893 677.344 61.9737 675.873C61.3643 674.402 61.0627 672.632 61.0689 670.564C61.0689 668.502 61.3736 666.745 61.983 665.292C62.5985 663.839 63.4756 662.734 64.6143 661.977C65.7592 661.214 67.1226 660.832 68.7045 660.832C70.2865 660.832 71.6468 661.214 72.7855 661.977C73.9304 662.741 74.8106 663.848 75.4261 665.301C76.0417 666.748 76.3464 668.502 76.3402 670.564C76.3402 672.638 76.0324 674.411 75.4169 675.882C74.8075 677.353 73.9335 678.477 72.7947 679.252C71.656 680.028 70.2926 680.415 68.7045 680.415ZM68.7045 677.101C69.7879 677.101 70.6527 676.556 71.299 675.467C71.9453 674.377 72.2654 672.743 72.2592 670.564C72.2592 669.13 72.1115 667.936 71.8161 666.982C71.5268 666.027 71.1143 665.31 70.5788 664.83C70.0495 664.35 69.4247 664.11 68.7045 664.11C67.6274 664.11 66.7656 664.649 66.1193 665.726C65.473 666.803 65.1468 668.416 65.1406 670.564C65.1406 672.017 65.2853 673.229 65.5746 674.202C65.87 675.168 66.2855 675.894 66.821 676.381C67.3565 676.861 67.9844 677.101 68.7045 677.101ZM84.8414 677.119V664.045H88.1468V677.119H84.8414ZM79.9572 672.235V668.93H93.0311V672.235H79.9572Z" fill="#F2F2F2"/>
<path d="M52.7592 970.091V989H48.7614V973.886H48.6506L44.3203 976.6V973.055L49.0014 970.091H52.7592ZM57.2534 989V986.119L63.9842 979.887C64.5566 979.333 65.0368 978.835 65.4245 978.391C65.8185 977.948 66.117 977.514 66.3201 977.089C66.5233 976.659 66.6248 976.194 66.6248 975.695C66.6248 975.141 66.4986 974.664 66.2463 974.264C65.9939 973.858 65.6492 973.547 65.2122 973.332C64.7752 973.11 64.2797 972.999 63.7257 972.999C63.1471 972.999 62.6423 973.116 62.2115 973.35C61.7806 973.584 61.4482 973.92 61.2143 974.357C60.9804 974.794 60.8635 975.314 60.8635 975.917H57.0687C57.0687 974.68 57.3488 973.606 57.9089 972.695C58.469 971.784 59.2538 971.079 60.2633 970.58C61.2728 970.082 62.4361 969.832 63.7534 969.832C65.1075 969.832 66.2863 970.072 67.2896 970.553C68.2991 971.027 69.0839 971.685 69.644 972.528C70.2041 973.372 70.4842 974.338 70.4842 975.428C70.4842 976.142 70.3426 976.846 70.0595 977.542C69.7825 978.237 69.287 979.01 68.573 979.859C67.859 980.703 66.8526 981.715 65.5538 982.897L62.7931 985.602V985.732H70.7335V989H57.2534ZM79.2809 986.119V973.045H82.5863V986.119H79.2809ZM74.3967 981.235V977.93H87.4705V981.235H74.3967Z" fill="#F2F2F2"/>
<path d="M4.34153 202V188.909H6.31667V200.3H12.2485V202H4.34153ZM18.5798 202.198C17.6125 202.198 16.7794 201.991 16.0805 201.578C15.3859 201.161 14.849 200.575 14.4697 199.82C14.0947 199.062 13.9072 198.173 13.9072 197.155C13.9072 196.149 14.0947 195.263 14.4697 194.496C14.849 193.729 15.3774 193.13 16.055 192.7C16.7368 192.269 17.5336 192.054 18.4456 192.054C18.9996 192.054 19.5365 192.146 20.0564 192.329C20.5763 192.512 21.0429 192.8 21.4562 193.192C21.8696 193.584 22.1956 194.093 22.4342 194.719C22.6729 195.342 22.7922 196.098 22.7922 196.989V197.666H14.9875V196.234H20.9193C20.9193 195.732 20.817 195.286 20.6125 194.898C20.4079 194.506 20.1203 194.197 19.7496 193.972C19.3831 193.746 18.9527 193.633 18.4584 193.633C17.9214 193.633 17.4527 193.765 17.0521 194.029C16.6558 194.289 16.349 194.63 16.1317 195.052C15.9186 195.469 15.8121 195.923 15.8121 196.413V197.532C15.8121 198.188 15.9271 198.746 16.1572 199.207C16.3916 199.667 16.7176 200.018 17.1352 200.261C17.5528 200.5 18.0407 200.619 18.599 200.619C18.9612 200.619 19.2915 200.568 19.5898 200.466C19.8881 200.359 20.1459 200.202 20.3632 199.993C20.5805 199.784 20.7467 199.526 20.8618 199.219L22.6707 199.545C22.5258 200.078 22.2659 200.545 21.8909 200.945C21.5202 201.342 21.0535 201.651 20.491 201.872C19.9328 202.089 19.2957 202.198 18.5798 202.198ZM27.77 202.217C27.1478 202.217 26.5853 202.102 26.0825 201.872C25.5796 201.638 25.1812 201.299 24.8872 200.856C24.5974 200.413 24.4525 199.869 24.4525 199.226C24.4525 198.672 24.559 198.216 24.7721 197.858C24.9852 197.5 25.2728 197.217 25.635 197.008C25.9972 196.799 26.4021 196.641 26.8495 196.535C27.297 196.428 27.7529 196.347 28.2174 196.292C28.8055 196.224 29.2828 196.168 29.6492 196.126C30.0157 196.079 30.282 196.004 30.4482 195.902C30.6144 195.8 30.6975 195.634 30.6975 195.403V195.359C30.6975 194.8 30.5399 194.368 30.2245 194.061C29.9134 193.754 29.449 193.601 28.8311 193.601C28.1876 193.601 27.6805 193.744 27.3097 194.029C26.9433 194.31 26.6897 194.624 26.5491 194.969L24.7529 194.56C24.966 193.963 25.2771 193.482 25.6862 193.115C26.0995 192.744 26.5747 192.476 27.1116 192.31C27.6485 192.139 28.2132 192.054 28.8055 192.054C29.1975 192.054 29.613 192.101 30.0519 192.195C30.4951 192.284 30.9085 192.45 31.292 192.693C31.6798 192.936 31.9972 193.283 32.2444 193.735C32.4916 194.183 32.6151 194.764 32.6151 195.48V202H30.7487V200.658H30.672C30.5484 200.905 30.363 201.148 30.1159 201.386C29.8687 201.625 29.5512 201.823 29.1634 201.981C28.7757 202.138 28.3112 202.217 27.77 202.217ZM28.1855 200.683C28.7139 200.683 29.1656 200.579 29.5406 200.37C29.9198 200.161 30.2075 199.888 30.4035 199.552C30.6038 199.211 30.7039 198.847 30.7039 198.459V197.193C30.6357 197.261 30.5036 197.325 30.3076 197.385C30.1159 197.44 29.8964 197.489 29.6492 197.532C29.4021 197.57 29.1613 197.607 28.9269 197.641C28.6926 197.67 28.4965 197.696 28.3389 197.717C27.9681 197.764 27.6294 197.843 27.3225 197.954C27.02 198.065 26.7771 198.224 26.5938 198.433C26.4149 198.638 26.3254 198.911 26.3254 199.251C26.3254 199.724 26.5001 200.082 26.8495 200.325C27.199 200.564 27.6443 200.683 28.1855 200.683ZM35.1608 202V192.182H37.0081V193.741H37.1104C37.2893 193.213 37.6047 192.798 38.0564 192.495C38.5123 192.188 39.028 192.035 39.6032 192.035C39.7226 192.035 39.8632 192.039 40.0251 192.048C40.1913 192.056 40.3213 192.067 40.415 192.08V193.908C40.3383 193.886 40.202 193.863 40.0059 193.837C39.8099 193.808 39.6139 193.793 39.4179 193.793C38.9662 193.793 38.5635 193.888 38.2098 194.08C37.8604 194.268 37.5834 194.53 37.3788 194.866C37.1743 195.199 37.072 195.578 37.072 196.004V202H35.1608ZM43.9802 196.17V202H42.069V192.182H43.9035V193.78H44.0249C44.2508 193.26 44.6045 192.842 45.086 192.527C45.5718 192.212 46.1833 192.054 46.9205 192.054C47.5896 192.054 48.1755 192.195 48.6784 192.476C49.1812 192.753 49.5711 193.166 49.8481 193.716C50.1251 194.266 50.2636 194.945 50.2636 195.755V202H48.3524V195.985C48.3524 195.273 48.167 194.717 47.7963 194.317C47.4255 193.912 46.9163 193.71 46.2686 193.71C45.8254 193.71 45.4312 193.805 45.086 193.997C44.7451 194.189 44.4745 194.47 44.2742 194.841C44.0782 195.207 43.9802 195.651 43.9802 196.17ZM57.0583 202.198C56.091 202.198 55.2579 201.991 54.559 201.578C53.8644 201.161 53.3275 200.575 52.9482 199.82C52.5732 199.062 52.3857 198.173 52.3857 197.155C52.3857 196.149 52.5732 195.263 52.9482 194.496C53.3275 193.729 53.8559 193.13 54.5335 192.7C55.2153 192.269 56.0122 192.054 56.9241 192.054C57.4781 192.054 58.015 192.146 58.5349 192.329C59.0548 192.512 59.5214 192.8 59.9347 193.192C60.3481 193.584 60.6741 194.093 60.9127 194.719C61.1514 195.342 61.2707 196.098 61.2707 196.989V197.666H53.466V196.234H59.3978C59.3978 195.732 59.2955 195.286 59.091 194.898C58.8865 194.506 58.5988 194.197 58.2281 193.972C57.8616 193.746 57.4312 193.633 56.9369 193.633C56.3999 193.633 55.9312 193.765 55.5306 194.029C55.1343 194.289 54.8275 194.63 54.6102 195.052C54.3971 195.469 54.2906 195.923 54.2906 196.413V197.532C54.2906 198.188 54.4056 198.746 54.6357 199.207C54.8701 199.667 55.1961 200.018 55.6137 200.261C56.0313 200.5 56.5193 200.619 57.0775 200.619C57.4397 200.619 57.77 200.568 58.0683 200.466C58.3666 200.359 58.6244 200.202 58.8417 199.993C59.059 199.784 59.2252 199.526 59.3403 199.219L61.1492 199.545C61.0044 200.078 60.7444 200.545 60.3694 200.945C59.9987 201.342 59.532 201.651 58.9695 201.872C58.4113 202.089 57.7742 202.198 57.0583 202.198ZM63.3912 202V192.182H65.2385V193.741H65.3408C65.5198 193.213 65.8351 192.798 66.2868 192.495C66.7428 192.188 67.2584 192.035 67.8337 192.035C67.953 192.035 68.0937 192.039 68.2556 192.048C68.4218 192.056 68.5518 192.067 68.6455 192.08V193.908C68.5688 193.886 68.4324 193.863 68.2364 193.837C68.0404 193.808 67.8444 193.793 67.6483 193.793C67.1966 193.793 66.7939 193.888 66.4403 194.08C66.0908 194.268 65.8138 194.53 65.6093 194.866C65.4047 195.199 65.3025 195.578 65.3025 196.004V202H63.3912ZM77.6567 194.579L75.9244 194.886C75.852 194.664 75.7369 194.453 75.5793 194.253C75.4259 194.053 75.2171 193.888 74.9529 193.761C74.6887 193.633 74.3584 193.569 73.9621 193.569C73.4209 193.569 72.9692 193.69 72.607 193.933C72.2448 194.172 72.0637 194.481 72.0637 194.86C72.0637 195.188 72.1851 195.452 72.428 195.653C72.6709 195.853 73.0629 196.017 73.6041 196.145L75.1638 196.503C76.0672 196.712 76.7405 197.033 77.1837 197.468C77.6269 197.903 77.8485 198.467 77.8485 199.162C77.8485 199.75 77.678 200.274 77.3371 200.734C77.0004 201.19 76.5296 201.548 75.9244 201.808C75.3236 202.068 74.6269 202.198 73.8343 202.198C72.7348 202.198 71.8378 201.964 71.1432 201.495C70.4486 201.022 70.0225 200.351 69.8648 199.482L71.7121 199.2C71.8271 199.682 72.0637 200.046 72.4216 200.293C72.7796 200.536 73.2462 200.658 73.8215 200.658C74.4479 200.658 74.9486 200.528 75.3236 200.268C75.6986 200.004 75.8861 199.682 75.8861 199.303C75.8861 198.996 75.771 198.738 75.5409 198.529C75.3151 198.32 74.9678 198.163 74.499 198.056L72.8371 197.692C71.9209 197.483 71.2433 197.151 70.8044 196.695C70.3698 196.239 70.1524 195.661 70.1524 194.962C70.1524 194.383 70.3144 193.876 70.6382 193.441C70.9621 193.006 71.4095 192.668 71.9806 192.425C72.5516 192.178 73.2057 192.054 73.9429 192.054C75.004 192.054 75.8392 192.284 76.4486 192.744C77.058 193.2 77.4607 193.812 77.6567 194.579ZM88.8492 202.198C87.9287 202.198 87.1254 201.987 86.4394 201.565C85.7533 201.143 85.2206 200.553 84.8414 199.795C84.4621 199.036 84.2725 198.15 84.2725 197.136C84.2725 196.117 84.4621 195.227 84.8414 194.464C85.2206 193.701 85.7533 193.109 86.4394 192.687C87.1254 192.265 87.9287 192.054 88.8492 192.054C89.7696 192.054 90.5729 192.265 91.259 192.687C91.945 193.109 92.4777 193.701 92.857 194.464C93.2362 195.227 93.4259 196.117 93.4259 197.136C93.4259 198.15 93.2362 199.036 92.857 199.795C92.4777 200.553 91.945 201.143 91.259 201.565C90.5729 201.987 89.7696 202.198 88.8492 202.198ZM88.8556 200.594C89.4521 200.594 89.9465 200.436 90.3385 200.121C90.7306 199.805 91.0203 199.386 91.2078 198.862C91.3996 198.337 91.4955 197.76 91.4955 197.129C91.4955 196.503 91.3996 195.928 91.2078 195.403C91.0203 194.875 90.7306 194.451 90.3385 194.131C89.9465 193.812 89.4521 193.652 88.8556 193.652C88.2547 193.652 87.7561 193.812 87.3598 194.131C86.9678 194.451 86.6759 194.875 86.4841 195.403C86.2966 195.928 86.2029 196.503 86.2029 197.129C86.2029 197.76 86.2966 198.337 86.4841 198.862C86.6759 199.386 86.9678 199.805 87.3598 200.121C87.7561 200.436 88.2547 200.594 88.8556 200.594ZM97.4704 196.17V202H95.5592V192.182H97.3937V193.78H97.5152C97.741 193.26 98.0947 192.842 98.5763 192.527C99.0621 192.212 99.6736 192.054 100.411 192.054C101.08 192.054 101.666 192.195 102.169 192.476C102.671 192.753 103.061 193.166 103.338 193.716C103.615 194.266 103.754 194.945 103.754 195.755V202H101.843V195.985C101.843 195.273 101.657 194.717 101.286 194.317C100.916 193.912 100.407 193.71 99.7588 193.71C99.3156 193.71 98.9214 193.805 98.5763 193.997C98.2354 194.189 97.9648 194.47 97.7645 194.841C97.5684 195.207 97.4704 195.651 97.4704 196.17ZM115.664 192.182V193.716H110.301V192.182H115.664ZM111.739 189.83H113.65V199.117C113.65 199.488 113.706 199.767 113.816 199.955C113.927 200.138 114.07 200.263 114.245 200.332C114.424 200.396 114.618 200.428 114.826 200.428C114.98 200.428 115.114 200.417 115.229 200.396C115.344 200.374 115.434 200.357 115.498 200.344L115.843 201.923C115.732 201.966 115.574 202.009 115.37 202.051C115.165 202.098 114.91 202.124 114.603 202.128C114.1 202.136 113.631 202.047 113.196 201.859C112.762 201.672 112.41 201.382 112.142 200.99C111.873 200.598 111.739 200.106 111.739 199.513V189.83ZM119.9 196.17V202H117.989V188.909H119.875V193.78H119.996C120.226 193.251 120.578 192.832 121.051 192.521C121.524 192.21 122.142 192.054 122.904 192.054C123.578 192.054 124.166 192.192 124.669 192.469C125.176 192.746 125.568 193.16 125.845 193.71C126.126 194.255 126.267 194.937 126.267 195.755V202H124.355V195.985C124.355 195.265 124.17 194.707 123.799 194.31C123.429 193.91 122.913 193.71 122.252 193.71C121.801 193.71 121.396 193.805 121.038 193.997C120.684 194.189 120.405 194.47 120.201 194.841C120 195.207 119.9 195.651 119.9 196.17ZM133.049 202.198C132.081 202.198 131.248 201.991 130.549 201.578C129.855 201.161 129.318 200.575 128.938 199.82C128.563 199.062 128.376 198.173 128.376 197.155C128.376 196.149 128.563 195.263 128.938 194.496C129.318 193.729 129.846 193.13 130.524 192.7C131.206 192.269 132.002 192.054 132.914 192.054C133.468 192.054 134.005 192.146 134.525 192.329C135.045 192.512 135.512 192.8 135.925 193.192C136.338 193.584 136.664 194.093 136.903 194.719C137.142 195.342 137.261 196.098 137.261 196.989V197.666H129.456V196.234H135.388C135.388 195.732 135.286 195.286 135.081 194.898C134.877 194.506 134.589 194.197 134.218 193.972C133.852 193.746 133.421 193.633 132.927 193.633C132.39 193.633 131.921 193.765 131.521 194.029C131.125 194.289 130.818 194.63 130.6 195.052C130.387 195.469 130.281 195.923 130.281 196.413V197.532C130.281 198.188 130.396 198.746 130.626 199.207C130.86 199.667 131.186 200.018 131.604 200.261C132.022 200.5 132.509 200.619 133.068 200.619C133.43 200.619 133.76 200.568 134.059 200.466C134.357 200.359 134.615 200.202 134.832 199.993C135.049 199.784 135.215 199.526 135.331 199.219L137.139 199.545C136.995 200.078 136.735 200.545 136.36 200.945C135.989 201.342 135.522 201.651 134.96 201.872C134.402 202.089 133.764 202.198 133.049 202.198ZM35.5563 227.682V214.182H37.4228V215.773H37.5826C37.6934 215.569 37.8532 215.332 38.062 215.064C38.2708 214.795 38.5605 214.561 38.9313 214.361C39.302 214.156 39.7921 214.054 40.4015 214.054C41.1941 214.054 41.9015 214.254 42.5236 214.655C43.1458 215.055 43.6337 215.633 43.9874 216.387C44.3453 217.141 44.5243 218.049 44.5243 219.11C44.5243 220.171 44.3475 221.081 43.9938 221.839C43.6401 222.594 43.1543 223.175 42.5364 223.585C41.9185 223.989 41.2132 224.192 40.4206 224.192C39.824 224.192 39.3361 224.092 38.9569 223.891C38.5819 223.691 38.2878 223.457 38.0748 223.188C37.8617 222.92 37.6976 222.681 37.5826 222.472H37.4675V227.682H35.5563ZM37.4292 219.091C37.4292 219.781 37.5293 220.386 37.7296 220.906C37.9299 221.426 38.2196 221.833 38.5989 222.127C38.9782 222.417 39.4426 222.562 39.9924 222.562C40.5634 222.562 41.0407 222.411 41.4242 222.108C41.8077 221.801 42.0975 221.386 42.2935 220.862C42.4938 220.337 42.5939 219.747 42.5939 219.091C42.5939 218.443 42.4959 217.862 42.2999 217.346C42.1081 216.83 41.8184 216.423 41.4306 216.125C41.0471 215.827 40.5676 215.678 39.9924 215.678C39.4384 215.678 38.9696 215.82 38.5861 216.106C38.2069 216.391 37.9192 216.79 37.7232 217.301C37.5272 217.812 37.4292 218.409 37.4292 219.091ZM48.5769 210.909V224H46.6657V210.909H48.5769ZM54.0053 224.217C53.3832 224.217 52.8207 224.102 52.3178 223.872C51.815 223.638 51.4165 223.299 51.1225 222.856C50.8327 222.413 50.6879 221.869 50.6879 221.226C50.6879 220.672 50.7944 220.216 51.0075 219.858C51.2205 219.5 51.5082 219.217 51.8704 219.008C52.2326 218.799 52.6374 218.641 53.0849 218.535C53.5323 218.428 53.9883 218.347 54.4528 218.292C55.0408 218.224 55.5181 218.168 55.8846 218.126C56.2511 218.079 56.5174 218.004 56.6836 217.902C56.8498 217.8 56.9329 217.634 56.9329 217.403V217.359C56.9329 216.8 56.7752 216.368 56.4599 216.061C56.1488 215.754 55.6843 215.601 55.0664 215.601C54.4229 215.601 53.9158 215.744 53.5451 216.029C53.1786 216.31 52.9251 216.624 52.7844 216.969L50.9883 216.56C51.2013 215.963 51.5124 215.482 51.9215 215.115C52.3349 214.744 52.81 214.476 53.3469 214.31C53.8839 214.139 54.4485 214.054 55.0408 214.054C55.4329 214.054 55.8484 214.101 56.2873 214.195C56.7305 214.284 57.1438 214.45 57.5273 214.693C57.9151 214.936 58.2326 215.283 58.4798 215.735C58.7269 216.183 58.8505 216.764 58.8505 217.48V224H56.984V222.658H56.9073C56.7837 222.905 56.5984 223.148 56.3512 223.386C56.104 223.625 55.7866 223.823 55.3988 223.981C55.011 224.138 54.5465 224.217 54.0053 224.217ZM54.4208 222.683C54.9492 222.683 55.4009 222.579 55.7759 222.37C56.1552 222.161 56.4428 221.888 56.6388 221.552C56.8391 221.211 56.9393 220.847 56.9393 220.459V219.193C56.8711 219.261 56.739 219.325 56.543 219.385C56.3512 219.44 56.1317 219.489 55.8846 219.532C55.6374 219.57 55.3967 219.607 55.1623 219.641C54.9279 219.67 54.7319 219.696 54.5742 219.717C54.2035 219.764 53.8647 219.843 53.5579 219.954C53.2553 220.065 53.0124 220.224 52.8292 220.433C52.6502 220.638 52.5607 220.911 52.5607 221.251C52.5607 221.724 52.7354 222.082 53.0849 222.325C53.4343 222.564 53.8796 222.683 54.4208 222.683ZM65.9792 214.182V215.716H60.6163V214.182H65.9792ZM62.0545 211.83H63.9657V221.117C63.9657 221.488 64.0211 221.767 64.1319 221.955C64.2427 222.138 64.3855 222.263 64.5602 222.332C64.7392 222.396 64.9331 222.428 65.1419 222.428C65.2953 222.428 65.4295 222.417 65.5446 222.396C65.6596 222.374 65.7491 222.357 65.813 222.344L66.1582 223.923C66.0474 223.966 65.8897 224.009 65.6852 224.051C65.4806 224.098 65.225 224.124 64.9181 224.128C64.4153 224.136 63.9466 224.047 63.5119 223.859C63.0772 223.672 62.7257 223.382 62.4572 222.99C62.1887 222.598 62.0545 222.106 62.0545 221.513V211.83ZM72.766 214.182V215.716H67.2177V214.182H72.766ZM68.739 224V213.044C68.739 212.43 68.8732 211.921 69.1417 211.516C69.4102 211.107 69.766 210.803 70.2092 210.602C70.6523 210.398 71.1339 210.295 71.6538 210.295C72.0373 210.295 72.3654 210.327 72.6381 210.391C72.9109 210.451 73.1133 210.506 73.2454 210.558L72.7979 212.104C72.7085 212.079 72.5934 212.049 72.4528 212.015C72.3121 211.977 72.1417 211.957 71.9414 211.957C71.4769 211.957 71.1445 212.072 70.9442 212.303C70.7482 212.533 70.6502 212.865 70.6502 213.3V224H68.739ZM78.4869 224.198C77.5664 224.198 76.7631 223.987 76.0771 223.565C75.391 223.143 74.8583 222.553 74.479 221.795C74.0998 221.036 73.9102 220.15 73.9102 219.136C73.9102 218.117 74.0998 217.227 74.479 216.464C74.8583 215.701 75.391 215.109 76.0771 214.687C76.7631 214.265 77.5664 214.054 78.4869 214.054C79.4073 214.054 80.2106 214.265 80.8967 214.687C81.5827 215.109 82.1154 215.701 82.4947 216.464C82.8739 217.227 83.0636 218.117 83.0636 219.136C83.0636 220.15 82.8739 221.036 82.4947 221.795C82.1154 222.553 81.5827 223.143 80.8967 223.565C80.2106 223.987 79.4073 224.198 78.4869 224.198ZM78.4933 222.594C79.0898 222.594 79.5842 222.436 79.9762 222.121C80.3683 221.805 80.658 221.386 80.8455 220.862C81.0373 220.337 81.1332 219.76 81.1332 219.129C81.1332 218.503 81.0373 217.928 80.8455 217.403C80.658 216.875 80.3683 216.451 79.9762 216.131C79.5842 215.812 79.0898 215.652 78.4933 215.652C77.8924 215.652 77.3938 215.812 76.9975 216.131C76.6055 216.451 76.3136 216.875 76.1218 217.403C75.9343 217.928 75.8406 218.503 75.8406 219.129C75.8406 219.76 75.9343 220.337 76.1218 220.862C76.3136 221.386 76.6055 221.805 76.9975 222.121C77.3938 222.436 77.8924 222.594 78.4933 222.594ZM85.1969 224V214.182H87.0442V215.741H87.1465C87.3255 215.213 87.6408 214.798 88.0925 214.495C88.5485 214.188 89.0641 214.035 89.6394 214.035C89.7587 214.035 89.8993 214.039 90.0613 214.048C90.2275 214.056 90.3574 214.067 90.4512 214.08V215.908C90.3745 215.886 90.2381 215.863 90.0421 215.837C89.8461 215.808 89.65 215.793 89.454 215.793C89.0023 215.793 88.5996 215.888 88.2459 216.08C87.8965 216.268 87.6195 216.53 87.415 216.866C87.2104 217.199 87.1081 217.578 87.1081 218.004V224H85.1969ZM92.1051 224V214.182H93.9396V215.78H94.0611C94.2656 215.239 94.6001 214.817 95.0646 214.514C95.5291 214.207 96.0852 214.054 96.733 214.054C97.3892 214.054 97.9389 214.207 98.3821 214.514C98.8295 214.821 99.1598 215.243 99.3729 215.78H99.4751C99.7095 215.256 100.082 214.838 100.594 214.527C101.105 214.212 101.714 214.054 102.422 214.054C103.312 214.054 104.039 214.333 104.602 214.891C105.168 215.45 105.452 216.291 105.452 217.416V224H103.54V217.595C103.54 216.93 103.359 216.449 102.997 216.151C102.635 215.852 102.202 215.703 101.7 215.703C101.077 215.703 100.594 215.895 100.249 216.278C99.9034 216.658 99.7308 217.146 99.7308 217.742V224H97.826V217.474C97.826 216.941 97.6598 216.513 97.3274 216.189C96.995 215.865 96.5625 215.703 96.0298 215.703C95.6676 215.703 95.3331 215.799 95.0263 215.991C94.7237 216.178 94.4787 216.44 94.2912 216.777C94.108 217.114 94.0163 217.504 94.0163 217.947V224H92.1051Z" fill="#132356"/>
<path d="M7.13645 779V765.909H9.11159V771.598H15.6379V765.909H17.6194V779H15.6379V773.292H9.11159V779H7.13645ZM20.3424 779V769.182H22.2536V779H20.3424ZM21.3076 767.667C20.9752 767.667 20.6897 767.556 20.4511 767.335C20.2167 767.109 20.0995 766.84 20.0995 766.529C20.0995 766.214 20.2167 765.945 20.4511 765.724C20.6897 765.498 20.9752 765.385 21.3076 765.385C21.64 765.385 21.9234 765.498 22.1578 765.724C22.3964 765.945 22.5157 766.214 22.5157 766.529C22.5157 766.84 22.3964 767.109 22.1578 767.335C21.9234 767.556 21.64 767.667 21.3076 767.667ZM24.8248 779V769.182H26.6721V770.741H26.7744C26.9534 770.213 27.2687 769.798 27.7204 769.495C28.1764 769.188 28.692 769.035 29.2673 769.035C29.3866 769.035 29.5273 769.039 29.6892 769.048C29.8554 769.056 29.9854 769.067 30.0791 769.08V770.908C30.0024 770.886 29.866 770.863 29.67 770.837C29.474 770.808 29.278 770.793 29.0819 770.793C28.6302 770.793 28.2275 770.888 27.8738 771.08C27.5244 771.268 27.2474 771.53 27.0429 771.866C26.8383 772.199 26.7361 772.578 26.7361 773.004V779H24.8248ZM31.733 779V769.182H33.6443V779H31.733ZM32.6982 767.667C32.3659 767.667 32.0803 767.556 31.8417 767.335C31.6073 767.109 31.4901 766.84 31.4901 766.529C31.4901 766.214 31.6073 765.945 31.8417 765.724C32.0803 765.498 32.3659 765.385 32.6982 765.385C33.0306 765.385 33.314 765.498 33.5484 765.724C33.787 765.945 33.9063 766.214 33.9063 766.529C33.9063 766.84 33.787 767.109 33.5484 767.335C33.314 767.556 33.0306 767.667 32.6982 767.667ZM38.1267 773.17V779H36.2155V769.182H38.05V770.78H38.1714C38.3973 770.26 38.751 769.842 39.2325 769.527C39.7183 769.212 40.3298 769.054 41.067 769.054C41.7361 769.054 42.322 769.195 42.8248 769.476C43.3277 769.753 43.7176 770.166 43.9946 770.716C44.2716 771.266 44.4101 771.945 44.4101 772.755V779H42.4988V772.985C42.4988 772.273 42.3135 771.717 41.9427 771.317C41.572 770.912 41.0628 770.71 40.415 770.71C39.9719 770.71 39.5777 770.805 39.2325 770.997C38.8916 771.189 38.621 771.47 38.4207 771.841C38.2247 772.207 38.1267 772.651 38.1267 773.17ZM51.0898 782.886C50.3099 782.886 49.6388 782.784 49.0763 782.58C48.518 782.375 48.0621 782.104 47.7084 781.768C47.3547 781.431 47.0905 781.063 46.9157 780.662L48.5585 779.984C48.6736 780.172 48.827 780.37 49.0187 780.579C49.2148 780.792 49.479 780.973 49.8113 781.122C50.148 781.271 50.5805 781.346 51.1089 781.346C51.8334 781.346 52.4321 781.169 52.9051 780.815C53.3781 780.466 53.6146 779.908 53.6146 779.141V777.21H53.4932C53.3781 777.419 53.2119 777.651 52.9946 777.907C52.7815 778.163 52.4875 778.384 52.1125 778.572C51.7375 778.759 51.2496 778.853 50.6487 778.853C49.8731 778.853 49.1743 778.672 48.5521 778.31C47.9342 777.943 47.4442 777.404 47.0819 776.692C46.724 775.977 46.545 775.097 46.545 774.053C46.545 773.009 46.7219 772.114 47.0756 771.368C47.4335 770.622 47.9236 770.051 48.5457 769.655C49.1679 769.254 49.8731 769.054 50.6615 769.054C51.2709 769.054 51.7631 769.156 52.1381 769.361C52.5131 769.561 52.805 769.795 53.0138 770.064C53.2268 770.332 53.3909 770.569 53.5059 770.773H53.6466V769.182H55.5194V779.217C55.5194 780.061 55.3234 780.754 54.9314 781.295C54.5393 781.836 54.0088 782.237 53.3398 782.496C52.675 782.756 51.925 782.886 51.0898 782.886ZM51.0706 777.268C51.6203 777.268 52.0848 777.14 52.464 776.884C52.8476 776.624 53.1373 776.254 53.3334 775.772C53.5336 775.286 53.6338 774.705 53.6338 774.027C53.6338 773.366 53.5358 772.785 53.3398 772.282C53.1437 771.779 52.8561 771.387 52.4768 771.106C52.0976 770.82 51.6288 770.678 51.0706 770.678C50.4953 770.678 50.0159 770.827 49.6324 771.125C49.2488 771.419 48.9591 771.82 48.7631 772.327C48.5713 772.834 48.4754 773.401 48.4754 774.027C48.4754 774.67 48.5734 775.235 48.7694 775.721C48.9655 776.207 49.2552 776.586 49.6388 776.859C50.0265 777.131 50.5038 777.268 51.0706 777.268ZM62.9997 779V765.909H67.6659C68.6844 765.909 69.5281 766.094 70.1972 766.465C70.8662 766.836 71.3669 767.343 71.6993 767.987C72.0317 768.626 72.1979 769.346 72.1979 770.147C72.1979 770.952 72.0296 771.677 71.6929 772.32C71.3605 772.96 70.8577 773.467 70.1844 773.842C69.5154 774.212 68.6737 774.398 67.6595 774.398H64.4507V772.723H67.4806C68.124 772.723 68.646 772.612 69.0466 772.391C69.4472 772.165 69.7412 771.858 69.9287 771.47C70.1162 771.082 70.21 770.641 70.21 770.147C70.21 769.653 70.1162 769.214 69.9287 768.83C69.7412 768.447 69.445 768.146 69.0402 767.929C68.6396 767.712 68.1112 767.603 67.455 767.603H64.9749V779H62.9997ZM77.1294 779.217C76.5072 779.217 75.9447 779.102 75.4419 778.872C74.939 778.638 74.5406 778.299 74.2465 777.856C73.9568 777.413 73.8119 776.869 73.8119 776.226C73.8119 775.672 73.9184 775.216 74.1315 774.858C74.3445 774.5 74.6322 774.217 74.9944 774.008C75.3566 773.799 75.7615 773.641 76.2089 773.535C76.6563 773.428 77.1123 773.347 77.5768 773.292C78.1649 773.224 78.6421 773.168 79.0086 773.126C79.3751 773.079 79.6414 773.004 79.8076 772.902C79.9738 772.8 80.0569 772.634 80.0569 772.403V772.359C80.0569 771.8 79.8992 771.368 79.5839 771.061C79.2728 770.754 78.8083 770.601 78.1904 770.601C77.547 770.601 77.0399 770.744 76.6691 771.029C76.3026 771.31 76.0491 771.624 75.9085 771.969L74.1123 771.56C74.3254 770.963 74.6365 770.482 75.0455 770.115C75.4589 769.744 75.934 769.476 76.471 769.31C77.0079 769.139 77.5725 769.054 78.1649 769.054C78.5569 769.054 78.9724 769.101 79.4113 769.195C79.8545 769.284 80.2678 769.45 80.6514 769.693C81.0392 769.936 81.3566 770.283 81.6038 770.735C81.8509 771.183 81.9745 771.764 81.9745 772.48V779H80.108V777.658H80.0313C79.9078 777.905 79.7224 778.148 79.4752 778.386C79.2281 778.625 78.9106 778.823 78.5228 778.981C78.135 779.138 77.6705 779.217 77.1294 779.217ZM77.5448 777.683C78.0732 777.683 78.5249 777.579 78.8999 777.37C79.2792 777.161 79.5669 776.888 79.7629 776.552C79.9632 776.211 80.0633 775.847 80.0633 775.459V774.193C79.9951 774.261 79.863 774.325 79.667 774.385C79.4752 774.44 79.2558 774.489 79.0086 774.532C78.7615 774.57 78.5207 774.607 78.2863 774.641C78.0519 774.67 77.8559 774.696 77.6982 774.717C77.3275 774.764 76.9887 774.843 76.6819 774.954C76.3794 775.065 76.1365 775.224 75.9532 775.433C75.7742 775.638 75.6847 775.911 75.6847 776.251C75.6847 776.724 75.8595 777.082 76.2089 777.325C76.5583 777.564 77.0036 777.683 77.5448 777.683ZM84.5202 779V769.182H86.3675V770.741H86.4697C86.6487 770.213 86.964 769.798 87.4157 769.495C87.8717 769.188 88.3873 769.035 88.9626 769.035C89.0819 769.035 89.2226 769.039 89.3845 769.048C89.5507 769.056 89.6807 769.067 89.7744 769.08V770.908C89.6977 770.886 89.5613 770.863 89.3653 770.837C89.1693 770.808 88.9733 770.793 88.7773 770.793C88.3256 770.793 87.9229 770.888 87.5692 771.08C87.2197 771.268 86.9427 771.53 86.7382 771.866C86.5336 772.199 86.4314 772.578 86.4314 773.004V779H84.5202ZM96.5915 769.182V770.716H91.2286V769.182H96.5915ZM92.6668 766.83H94.578V776.117C94.578 776.488 94.6334 776.767 94.7442 776.955C94.855 777.138 94.9978 777.263 95.1725 777.332C95.3515 777.396 95.5454 777.428 95.7542 777.428C95.9076 777.428 96.0418 777.417 96.1569 777.396C96.2719 777.374 96.3614 777.357 96.4253 777.344L96.7705 778.923C96.6597 778.966 96.502 779.009 96.2975 779.051C96.093 779.098 95.8373 779.124 95.5305 779.128C95.0276 779.136 94.5589 779.047 94.1242 778.859C93.6895 778.672 93.338 778.382 93.0695 777.99C92.801 777.598 92.6668 777.106 92.6668 776.513V766.83ZM100.617 773.17V779H98.7057V769.182H100.54V770.78H100.662C100.888 770.26 101.241 769.842 101.723 769.527C102.209 769.212 102.82 769.054 103.557 769.054C104.226 769.054 104.812 769.195 105.315 769.476C105.818 769.753 106.208 770.166 106.485 770.716C106.762 771.266 106.9 771.945 106.9 772.755V779H104.989V772.985C104.989 772.273 104.804 771.717 104.433 771.317C104.062 770.912 103.553 770.71 102.905 770.71C102.462 770.71 102.068 770.805 101.723 770.997C101.382 771.189 101.111 771.47 100.911 771.841C100.715 772.207 100.617 772.651 100.617 773.17ZM113.695 779.198C112.728 779.198 111.895 778.991 111.196 778.578C110.501 778.161 109.964 777.575 109.585 776.82C109.21 776.062 109.022 775.173 109.022 774.155C109.022 773.149 109.21 772.263 109.585 771.496C109.964 770.729 110.493 770.13 111.17 769.7C111.852 769.269 112.649 769.054 113.561 769.054C114.115 769.054 114.652 769.146 115.172 769.329C115.691 769.512 116.158 769.8 116.571 770.192C116.985 770.584 117.311 771.093 117.549 771.719C117.788 772.342 117.907 773.098 117.907 773.989V774.666H110.103V773.234H116.035C116.035 772.732 115.932 772.286 115.728 771.898C115.523 771.506 115.236 771.197 114.865 770.972C114.498 770.746 114.068 770.633 113.574 770.633C113.037 770.633 112.568 770.765 112.167 771.029C111.771 771.289 111.464 771.63 111.247 772.052C111.034 772.469 110.927 772.923 110.927 773.413V774.532C110.927 775.188 111.042 775.746 111.272 776.207C111.507 776.667 111.833 777.018 112.25 777.261C112.668 777.5 113.156 777.619 113.714 777.619C114.076 777.619 114.407 777.568 114.705 777.466C115.003 777.359 115.261 777.202 115.478 776.993C115.696 776.784 115.862 776.526 115.977 776.219L117.786 776.545C117.641 777.078 117.381 777.545 117.006 777.945C116.635 778.342 116.169 778.651 115.606 778.872C115.048 779.089 114.411 779.198 113.695 779.198ZM120.028 779V769.182H121.875V770.741H121.978C122.157 770.213 122.472 769.798 122.924 769.495C123.38 769.188 123.895 769.035 124.47 769.035C124.59 769.035 124.73 769.039 124.892 769.048C125.059 769.056 125.188 769.067 125.282 769.08V770.908C125.206 770.886 125.069 770.863 124.873 770.837C124.677 770.808 124.481 770.793 124.285 770.793C123.833 770.793 123.431 770.888 123.077 771.08C122.728 771.268 122.451 771.53 122.246 771.866C122.041 772.199 121.939 772.578 121.939 773.004V779H120.028ZM134.293 771.579L132.561 771.886C132.489 771.664 132.374 771.453 132.216 771.253C132.063 771.053 131.854 770.888 131.59 770.761C131.325 770.633 130.995 770.569 130.599 770.569C130.058 770.569 129.606 770.69 129.244 770.933C128.881 771.172 128.7 771.481 128.7 771.86C128.7 772.188 128.822 772.452 129.065 772.653C129.308 772.853 129.7 773.017 130.241 773.145L131.801 773.503C132.704 773.712 133.377 774.033 133.82 774.468C134.264 774.903 134.485 775.467 134.485 776.162C134.485 776.75 134.315 777.274 133.974 777.734C133.637 778.19 133.166 778.548 132.561 778.808C131.96 779.068 131.264 779.198 130.471 779.198C129.372 779.198 128.475 778.964 127.78 778.495C127.085 778.022 126.659 777.351 126.502 776.482L128.349 776.2C128.464 776.682 128.7 777.046 129.058 777.293C129.416 777.536 129.883 777.658 130.458 777.658C131.085 777.658 131.585 777.528 131.96 777.268C132.335 777.004 132.523 776.682 132.523 776.303C132.523 775.996 132.408 775.738 132.178 775.529C131.952 775.32 131.604 775.163 131.136 775.056L129.474 774.692C128.558 774.483 127.88 774.151 127.441 773.695C127.006 773.239 126.789 772.661 126.789 771.962C126.789 771.383 126.951 770.876 127.275 770.441C127.599 770.006 128.046 769.668 128.617 769.425C129.188 769.178 129.842 769.054 130.58 769.054C131.641 769.054 132.476 769.284 133.085 769.744C133.695 770.2 134.097 770.812 134.293 771.579ZM21.4155 801.217C20.7933 801.217 20.2308 801.102 19.728 800.872C19.2251 800.638 18.8267 800.299 18.5327 799.856C18.2429 799.413 18.098 798.869 18.098 798.226C18.098 797.672 18.2045 797.216 18.4176 796.858C18.6307 796.5 18.9183 796.217 19.2805 796.008C19.6428 795.799 20.0476 795.641 20.495 795.535C20.9425 795.428 21.3984 795.347 21.8629 795.292C22.451 795.224 22.9283 795.168 23.2947 795.126C23.6612 795.079 23.9276 795.004 24.0938 794.902C24.2599 794.8 24.343 794.634 24.343 794.403V794.359C24.343 793.8 24.1854 793.368 23.87 793.061C23.5589 792.754 23.0945 792.601 22.4766 792.601C21.8331 792.601 21.326 792.744 20.9553 793.029C20.5888 793.31 20.3352 793.624 20.1946 793.969L18.3984 793.56C18.6115 792.963 18.9226 792.482 19.3317 792.115C19.745 791.744 20.2202 791.476 20.7571 791.31C21.294 791.139 21.8587 791.054 22.451 791.054C22.843 791.054 23.2585 791.101 23.6974 791.195C24.1406 791.284 24.554 791.45 24.9375 791.693C25.3253 791.936 25.6428 792.283 25.8899 792.735C26.1371 793.183 26.2607 793.764 26.2607 794.48V801H24.3942V799.658H24.3175C24.1939 799.905 24.0085 800.148 23.7614 800.386C23.5142 800.625 23.1967 800.823 22.8089 800.981C22.4212 801.138 21.9567 801.217 21.4155 801.217ZM21.831 799.683C22.3594 799.683 22.8111 799.579 23.1861 799.37C23.5653 799.161 23.853 798.888 24.049 798.552C24.2493 798.211 24.3494 797.847 24.3494 797.459V796.193C24.2813 796.261 24.1491 796.325 23.9531 796.385C23.7614 796.44 23.5419 796.489 23.2947 796.532C23.0476 796.57 22.8068 796.607 22.5724 796.641C22.3381 796.67 22.142 796.696 21.9844 796.717C21.6136 796.764 21.2749 796.843 20.968 796.954C20.6655 797.065 20.4226 797.224 20.2393 797.433C20.0604 797.638 19.9709 797.911 19.9709 798.251C19.9709 798.724 20.1456 799.082 20.495 799.325C20.8445 799.564 21.2898 799.683 21.831 799.683ZM30.7175 795.17V801H28.8063V791.182H30.6408V792.78H30.7623C30.9881 792.26 31.3418 791.842 31.8233 791.527C32.3091 791.212 32.9206 791.054 33.6578 791.054C34.3269 791.054 34.9128 791.195 35.4157 791.476C35.9185 791.753 36.3084 792.166 36.5854 792.716C36.8624 793.266 37.0009 793.945 37.0009 794.755V801H35.0897V794.985C35.0897 794.273 34.9043 793.717 34.5336 793.317C34.1628 792.912 33.6536 792.71 33.0059 792.71C32.5627 792.71 32.1685 792.805 31.8233 792.997C31.4824 793.189 31.2118 793.47 31.0115 793.841C30.8155 794.207 30.7175 794.651 30.7175 795.17ZM43.2395 801.192C42.4469 801.192 41.7395 800.989 41.1174 800.585C40.4995 800.175 40.0137 799.594 39.66 798.839C39.3105 798.081 39.1358 797.171 39.1358 796.11C39.1358 795.049 39.3127 794.141 39.6664 793.387C40.0243 792.633 40.5144 792.055 41.1365 791.655C41.7587 791.254 42.464 791.054 43.2523 791.054C43.8617 791.054 44.3517 791.156 44.7225 791.361C45.0975 791.561 45.3873 791.795 45.5918 792.064C45.8006 792.332 45.9625 792.569 46.0776 792.773H46.1926V787.909H48.1039V801H46.2374V799.472H46.0776C45.9625 799.681 45.7963 799.92 45.579 800.188C45.3659 800.457 45.0719 800.691 44.6969 800.891C44.3219 801.092 43.8361 801.192 43.2395 801.192ZM43.6614 799.562C44.2111 799.562 44.6756 799.417 45.0549 799.127C45.4384 798.833 45.7282 798.426 45.9242 797.906C46.1245 797.386 46.2246 796.781 46.2246 796.091C46.2246 795.409 46.1266 794.812 45.9306 794.301C45.7346 793.79 45.4469 793.391 45.0676 793.106C44.6884 792.82 44.2196 792.678 43.6614 792.678C43.0861 792.678 42.6067 792.827 42.2232 793.125C41.8397 793.423 41.5499 793.83 41.3539 794.346C41.1621 794.862 41.0662 795.443 41.0662 796.091C41.0662 796.747 41.1642 797.337 41.3603 797.862C41.5563 798.386 41.8461 798.801 42.2296 799.108C42.6174 799.411 43.0946 799.562 43.6614 799.562ZM59.7118 804.886C58.932 804.886 58.2608 804.784 57.6983 804.58C57.1401 804.375 56.6841 804.104 56.3304 803.768C55.9767 803.431 55.7125 803.063 55.5378 802.662L57.1806 801.984C57.2956 802.172 57.449 802.37 57.6408 802.579C57.8368 802.792 58.101 802.973 58.4334 803.122C58.7701 803.271 59.2026 803.346 59.731 803.346C60.4554 803.346 61.0542 803.169 61.5272 802.815C62.0002 802.466 62.2367 801.908 62.2367 801.141V799.21H62.1152C62.0002 799.419 61.834 799.651 61.6167 799.907C61.4036 800.163 61.1096 800.384 60.7346 800.572C60.3596 800.759 59.8716 800.853 59.2708 800.853C58.4952 800.853 57.7963 800.672 57.1742 800.31C56.5563 799.943 56.0662 799.404 55.704 798.692C55.3461 797.977 55.1671 797.097 55.1671 796.053C55.1671 795.009 55.3439 794.114 55.6976 793.368C56.0556 792.622 56.5456 792.051 57.1678 791.655C57.79 791.254 58.4952 791.054 59.2836 791.054C59.8929 791.054 60.3851 791.156 60.7601 791.361C61.1351 791.561 61.427 791.795 61.6358 792.064C61.8489 792.332 62.013 792.569 62.128 792.773H62.2686V791.182H64.1415V801.217C64.1415 802.061 63.9455 802.754 63.5534 803.295C63.1614 803.836 62.6309 804.237 61.9618 804.496C61.2971 804.756 60.5471 804.886 59.7118 804.886ZM59.6926 799.268C60.2424 799.268 60.7069 799.14 61.0861 798.884C61.4696 798.624 61.7594 798.254 61.9554 797.772C62.1557 797.286 62.2559 796.705 62.2559 796.027C62.2559 795.366 62.1578 794.785 61.9618 794.282C61.7658 793.779 61.4782 793.387 61.0989 793.106C60.7196 792.82 60.2509 792.678 59.6926 792.678C59.1174 792.678 58.638 792.827 58.2544 793.125C57.8709 793.419 57.5811 793.82 57.3851 794.327C57.1934 794.834 57.0975 795.401 57.0975 796.027C57.0975 796.67 57.1955 797.235 57.3915 797.721C57.5875 798.207 57.8773 798.586 58.2608 798.859C58.6486 799.131 59.1259 799.268 59.6926 799.268ZM66.7047 801V791.182H68.552V792.741H68.6543C68.8333 792.213 69.1486 791.798 69.6003 791.495C70.0563 791.188 70.5719 791.035 71.1472 791.035C71.2665 791.035 71.4071 791.039 71.5691 791.048C71.7353 791.056 71.8652 791.067 71.959 791.08V792.908C71.8823 792.886 71.7459 792.863 71.5499 792.837C71.3539 792.808 71.1578 792.793 70.9618 792.793C70.5101 792.793 70.1074 792.888 69.7537 793.08C69.4043 793.268 69.1273 793.53 68.9228 793.866C68.7182 794.199 68.6159 794.578 68.6159 795.004V801H66.7047ZM77.397 801.198C76.4766 801.198 75.6733 800.987 74.9872 800.565C74.3011 800.143 73.7685 799.553 73.3892 798.795C73.0099 798.036 72.8203 797.15 72.8203 796.136C72.8203 795.117 73.0099 794.227 73.3892 793.464C73.7685 792.701 74.3011 792.109 74.9872 791.687C75.6733 791.265 76.4766 791.054 77.397 791.054C78.3175 791.054 79.1207 791.265 79.8068 791.687C80.4929 792.109 81.0256 792.701 81.4048 793.464C81.7841 794.227 81.9737 795.117 81.9737 796.136C81.9737 797.15 81.7841 798.036 81.4048 798.795C81.0256 799.553 80.4929 800.143 79.8068 800.565C79.1207 800.987 78.3175 801.198 77.397 801.198ZM77.4034 799.594C78 799.594 78.4943 799.436 78.8864 799.121C79.2784 798.805 79.5682 798.386 79.7557 797.862C79.9474 797.337 80.0433 796.76 80.0433 796.129C80.0433 795.503 79.9474 794.928 79.7557 794.403C79.5682 793.875 79.2784 793.451 78.8864 793.131C78.4943 792.812 78 792.652 77.4034 792.652C76.8026 792.652 76.304 792.812 75.9077 793.131C75.5156 793.451 75.2237 793.875 75.032 794.403C74.8445 794.928 74.7507 795.503 74.7507 796.129C74.7507 796.76 74.8445 797.337 75.032 797.862C75.2237 798.386 75.5156 798.805 75.9077 799.121C76.304 799.436 76.8026 799.594 77.4034 799.594ZM85.9368 801L83.0476 791.182H85.0227L86.9467 798.392H87.0426L88.973 791.182H90.9482L92.8658 798.36H92.9616L94.8729 791.182H96.848L93.9652 801H92.0156L90.0213 793.911H89.8743L87.88 801H85.9368ZM98.6618 801V791.182H100.573V801H98.6618ZM99.627 789.667C99.2946 789.667 99.0091 789.556 98.7704 789.335C98.536 789.109 98.4189 788.84 98.4189 788.529C98.4189 788.214 98.536 787.945 98.7704 787.724C99.0091 787.498 99.2946 787.385 99.627 787.385C99.9593 787.385 100.243 787.498 100.477 787.724C100.716 787.945 100.835 788.214 100.835 788.529C100.835 788.84 100.716 789.109 100.477 789.335C100.243 789.556 99.9593 789.667 99.627 789.667ZM105.055 795.17V801H103.144V791.182H104.979V792.78H105.1C105.326 792.26 105.68 791.842 106.161 791.527C106.647 791.212 107.259 791.054 107.996 791.054C108.665 791.054 109.251 791.195 109.754 791.476C110.256 791.753 110.646 792.166 110.923 792.716C111.2 793.266 111.339 793.945 111.339 794.755V801H109.428V794.985C109.428 794.273 109.242 793.717 108.871 793.317C108.501 792.912 107.991 792.71 107.344 792.71C106.901 792.71 106.506 792.805 106.161 792.997C105.82 793.189 105.55 793.47 105.349 793.841C105.153 794.207 105.055 794.651 105.055 795.17ZM118.018 804.886C117.239 804.886 116.567 804.784 116.005 804.58C115.447 804.375 114.991 804.104 114.637 803.768C114.283 803.431 114.019 803.063 113.844 802.662L115.487 801.984C115.602 802.172 115.756 802.37 115.947 802.579C116.143 802.792 116.408 802.973 116.74 803.122C117.077 803.271 117.509 803.346 118.038 803.346C118.762 803.346 119.361 803.169 119.834 802.815C120.307 802.466 120.543 801.908 120.543 801.141V799.21H120.422C120.307 799.419 120.141 799.651 119.923 799.907C119.71 800.163 119.416 800.384 119.041 800.572C118.666 800.759 118.178 800.853 117.577 800.853C116.802 800.853 116.103 800.672 115.481 800.31C114.863 799.943 114.373 799.404 114.011 798.692C113.653 797.977 113.474 797.097 113.474 796.053C113.474 795.009 113.651 794.114 114.004 793.368C114.362 792.622 114.852 792.051 115.474 791.655C116.097 791.254 116.802 791.054 117.59 791.054C118.2 791.054 118.692 791.156 119.067 791.361C119.442 791.561 119.734 791.795 119.942 792.064C120.156 792.332 120.32 792.569 120.435 792.773H120.575V791.182H122.448V801.217C122.448 802.061 122.252 802.754 121.86 803.295C121.468 803.836 120.938 804.237 120.268 804.496C119.604 804.756 118.854 804.886 118.018 804.886ZM117.999 799.268C118.549 799.268 119.013 799.14 119.393 798.884C119.776 798.624 120.066 798.254 120.262 797.772C120.462 797.286 120.562 796.705 120.562 796.027C120.562 795.366 120.464 794.785 120.268 794.282C120.072 793.779 119.785 793.387 119.406 793.106C119.026 792.82 118.558 792.678 117.999 792.678C117.424 792.678 116.945 792.827 116.561 793.125C116.178 793.419 115.888 793.82 115.692 794.327C115.5 794.834 115.404 795.401 115.404 796.027C115.404 796.67 115.502 797.235 115.698 797.721C115.894 798.207 116.184 798.586 116.567 798.859C116.955 799.131 117.433 799.268 117.999 799.268Z" fill="#132356"/>
<path d="M21.2213 1075.61V1073.91H31.3527V1075.61H27.2682V1087H25.2994V1075.61H21.2213ZM36.2458 1087.2C35.2785 1087.2 34.4454 1086.99 33.7465 1086.58C33.0519 1086.16 32.515 1085.57 32.1357 1084.82C31.7607 1084.06 31.5732 1083.17 31.5732 1082.15C31.5732 1081.15 31.7607 1080.26 32.1357 1079.5C32.515 1078.73 33.0434 1078.13 33.721 1077.7C34.4028 1077.27 35.1997 1077.05 36.1116 1077.05C36.6656 1077.05 37.2025 1077.15 37.7224 1077.33C38.2423 1077.51 38.7089 1077.8 39.1222 1078.19C39.5356 1078.58 39.8616 1079.09 40.1002 1079.72C40.3389 1080.34 40.4582 1081.1 40.4582 1081.99V1082.67H32.6535V1081.23H38.5853C38.5853 1080.73 38.483 1080.29 38.2785 1079.9C38.074 1079.51 37.7863 1079.2 37.4156 1078.97C37.0491 1078.75 36.6187 1078.63 36.1244 1078.63C35.5874 1078.63 35.1187 1078.76 34.7181 1079.03C34.3218 1079.29 34.015 1079.63 33.7977 1080.05C33.5846 1080.47 33.4781 1080.92 33.4781 1081.41V1082.53C33.4781 1083.19 33.5931 1083.75 33.8232 1084.21C34.0576 1084.67 34.3836 1085.02 34.8012 1085.26C35.2188 1085.5 35.7068 1085.62 36.265 1085.62C36.6272 1085.62 36.9575 1085.57 37.2558 1085.47C37.5541 1085.36 37.8119 1085.2 38.0292 1084.99C38.2465 1084.78 38.4127 1084.53 38.5278 1084.22L40.3367 1084.55C40.1919 1085.08 39.9319 1085.54 39.5569 1085.95C39.1862 1086.34 38.7195 1086.65 38.157 1086.87C37.5988 1087.09 36.9617 1087.2 36.2458 1087.2ZM46.7144 1087.2C45.7641 1087.2 44.9459 1086.98 44.2599 1086.55C43.578 1086.12 43.0539 1085.52 42.6874 1084.76C42.3209 1083.99 42.1377 1083.12 42.1377 1082.14C42.1377 1081.14 42.3252 1080.26 42.7002 1079.5C43.0752 1078.73 43.6036 1078.13 44.2854 1077.7C44.9672 1077.27 45.7705 1077.05 46.6952 1077.05C47.441 1077.05 48.1057 1077.19 48.6895 1077.47C49.2733 1077.74 49.7442 1078.13 50.1022 1078.62C50.4644 1079.11 50.6796 1079.69 50.7478 1080.35H48.8877C48.7854 1079.89 48.551 1079.5 48.1846 1079.16C47.8224 1078.83 47.3366 1078.66 46.7272 1078.66C46.1945 1078.66 45.7279 1078.81 45.3273 1079.09C44.931 1079.36 44.6221 1079.76 44.4005 1080.28C44.1789 1080.79 44.0681 1081.39 44.0681 1082.09C44.0681 1082.81 44.1768 1083.42 44.3941 1083.94C44.6114 1084.46 44.9182 1084.87 45.3145 1085.15C45.7151 1085.44 46.186 1085.58 46.7272 1085.58C47.0894 1085.58 47.4175 1085.51 47.7116 1085.38C48.0099 1085.25 48.2591 1085.05 48.4594 1084.8C48.664 1084.55 48.8067 1084.25 48.8877 1083.89H50.7478C50.6796 1084.53 50.4729 1085.1 50.1278 1085.59C49.7826 1086.09 49.3202 1086.48 48.7407 1086.77C48.1654 1087.06 47.49 1087.2 46.7144 1087.2ZM54.7029 1081.17V1087H52.7916V1073.91H54.6773V1078.78H54.7987C55.0289 1078.25 55.3804 1077.83 55.8534 1077.52C56.3264 1077.21 56.9443 1077.05 57.7071 1077.05C58.3804 1077.05 58.9685 1077.19 59.4713 1077.47C59.9784 1077.75 60.3705 1078.16 60.6475 1078.71C60.9287 1079.25 61.0693 1079.94 61.0693 1080.75V1087H59.1581V1080.99C59.1581 1080.26 58.9727 1079.71 58.602 1079.31C58.2313 1078.91 57.7156 1078.71 57.0551 1078.71C56.6034 1078.71 56.1986 1078.81 55.8406 1079C55.4869 1079.19 55.2078 1079.47 55.0033 1079.84C54.803 1080.21 54.7029 1080.65 54.7029 1081.17ZM65.531 1081.17V1087H63.6198V1077.18H65.4543V1078.78H65.5757C65.8016 1078.26 66.1553 1077.84 66.6368 1077.53C67.1226 1077.21 67.7341 1077.05 68.4713 1077.05C69.1404 1077.05 69.7263 1077.19 70.2291 1077.48C70.732 1077.75 71.1219 1078.17 71.3989 1078.72C71.6759 1079.27 71.8144 1079.95 71.8144 1080.75V1087H69.9031V1080.99C69.9031 1080.27 69.7178 1079.72 69.347 1079.32C68.9763 1078.91 68.4671 1078.71 67.8193 1078.71C67.3762 1078.71 66.982 1078.81 66.6368 1079C66.2959 1079.19 66.0253 1079.47 65.825 1079.84C65.629 1080.21 65.531 1080.65 65.531 1081.17ZM78.5132 1087.2C77.5928 1087.2 76.7895 1086.99 76.1034 1086.57C75.4173 1086.14 74.8847 1085.55 74.5054 1084.79C74.1262 1084.04 73.9365 1083.15 73.9365 1082.14C73.9365 1081.12 74.1262 1080.23 74.5054 1079.46C74.8847 1078.7 75.4173 1078.11 76.1034 1077.69C76.7895 1077.26 77.5928 1077.05 78.5132 1077.05C79.4337 1077.05 80.2369 1077.26 80.923 1077.69C81.6091 1078.11 82.1418 1078.7 82.521 1079.46C82.9003 1080.23 83.0899 1081.12 83.0899 1082.14C83.0899 1083.15 82.9003 1084.04 82.521 1084.79C82.1418 1085.55 81.6091 1086.14 80.923 1086.57C80.2369 1086.99 79.4337 1087.2 78.5132 1087.2ZM78.5196 1085.59C79.1162 1085.59 79.6105 1085.44 80.0026 1085.12C80.3946 1084.81 80.6844 1084.39 80.8719 1083.86C81.0637 1083.34 81.1595 1082.76 81.1595 1082.13C81.1595 1081.5 81.0637 1080.93 80.8719 1080.4C80.6844 1079.87 80.3946 1079.45 80.0026 1079.13C79.6105 1078.81 79.1162 1078.65 78.5196 1078.65C77.9188 1078.65 77.4202 1078.81 77.0239 1079.13C76.6318 1079.45 76.3399 1079.87 76.1482 1080.4C75.9607 1080.93 75.8669 1081.5 75.8669 1082.13C75.8669 1082.76 75.9607 1083.34 76.1482 1083.86C76.3399 1084.39 76.6318 1084.81 77.0239 1085.12C77.4202 1085.44 77.9188 1085.59 78.5196 1085.59ZM87.1345 1073.91V1087H85.2233V1073.91H87.1345ZM93.8414 1087.2C92.9209 1087.2 92.1176 1086.99 91.4316 1086.57C90.7455 1086.14 90.2128 1085.55 89.8335 1084.79C89.4543 1084.04 89.2646 1083.15 89.2646 1082.14C89.2646 1081.12 89.4543 1080.23 89.8335 1079.46C90.2128 1078.7 90.7455 1078.11 91.4316 1077.69C92.1176 1077.26 92.9209 1077.05 93.8414 1077.05C94.7618 1077.05 95.5651 1077.26 96.2512 1077.69C96.9372 1078.11 97.4699 1078.7 97.8492 1079.46C98.2284 1080.23 98.4181 1081.12 98.4181 1082.14C98.4181 1083.15 98.2284 1084.04 97.8492 1084.79C97.4699 1085.55 96.9372 1086.14 96.2512 1086.57C95.5651 1086.99 94.7618 1087.2 93.8414 1087.2ZM93.8477 1085.59C94.4443 1085.59 94.9387 1085.44 95.3307 1085.12C95.7227 1084.81 96.0125 1084.39 96.2 1083.86C96.3918 1083.34 96.4877 1082.76 96.4877 1082.13C96.4877 1081.5 96.3918 1080.93 96.2 1080.4C96.0125 1079.87 95.7227 1079.45 95.3307 1079.13C94.9387 1078.81 94.4443 1078.65 93.8477 1078.65C93.2469 1078.65 92.7483 1078.81 92.352 1079.13C91.96 1079.45 91.6681 1079.87 91.4763 1080.4C91.2888 1080.93 91.195 1081.5 91.195 1082.13C91.195 1082.76 91.2888 1083.34 91.4763 1083.86C91.6681 1084.39 91.96 1084.81 92.352 1085.12C92.7483 1085.44 93.2469 1085.59 93.8477 1085.59ZM104.668 1090.89C103.888 1090.89 103.217 1090.78 102.654 1090.58C102.096 1090.38 101.64 1090.1 101.286 1089.77C100.933 1089.43 100.669 1089.06 100.494 1088.66L102.137 1087.98C102.252 1088.17 102.405 1088.37 102.597 1088.58C102.793 1088.79 103.057 1088.97 103.389 1089.12C103.726 1089.27 104.159 1089.35 104.687 1089.35C105.411 1089.35 106.01 1089.17 106.483 1088.82C106.956 1088.47 107.193 1087.91 107.193 1087.14V1085.21H107.071C106.956 1085.42 106.79 1085.65 106.573 1085.91C106.36 1086.16 106.066 1086.38 105.691 1086.57C105.316 1086.76 104.828 1086.85 104.227 1086.85C103.451 1086.85 102.752 1086.67 102.13 1086.31C101.512 1085.94 101.022 1085.4 100.66 1084.69C100.302 1083.98 100.123 1083.1 100.123 1082.05C100.123 1081.01 100.3 1080.11 100.654 1079.37C101.012 1078.62 101.502 1078.05 102.124 1077.65C102.746 1077.25 103.451 1077.05 104.24 1077.05C104.849 1077.05 105.341 1077.16 105.716 1077.36C106.091 1077.56 106.383 1077.8 106.592 1078.06C106.805 1078.33 106.969 1078.57 107.084 1078.77H107.225V1077.18H109.098V1087.22C109.098 1088.06 108.902 1088.75 108.509 1089.29C108.117 1089.84 107.587 1090.24 106.918 1090.5C106.253 1090.76 105.503 1090.89 104.668 1090.89ZM104.649 1085.27C105.198 1085.27 105.663 1085.14 106.042 1084.88C106.426 1084.62 106.715 1084.25 106.911 1083.77C107.112 1083.29 107.212 1082.7 107.212 1082.03C107.212 1081.37 107.114 1080.78 106.918 1080.28C106.722 1079.78 106.434 1079.39 106.055 1079.11C105.676 1078.82 105.207 1078.68 104.649 1078.68C104.073 1078.68 103.594 1078.83 103.21 1079.12C102.827 1079.42 102.537 1079.82 102.341 1080.33C102.149 1080.83 102.054 1081.4 102.054 1082.03C102.054 1082.67 102.152 1083.24 102.348 1083.72C102.544 1084.21 102.833 1084.59 103.217 1084.86C103.605 1085.13 104.082 1085.27 104.649 1085.27ZM112.869 1090.68C112.583 1090.68 112.323 1090.66 112.089 1090.61C111.855 1090.57 111.68 1090.52 111.565 1090.47L112.025 1088.9C112.375 1089 112.686 1089.04 112.958 1089.03C113.231 1089.01 113.472 1088.91 113.681 1088.72C113.894 1088.53 114.081 1088.21 114.243 1087.78L114.48 1087.13L110.887 1077.18H112.933L115.419 1084.8H115.522L118.008 1077.18H120.06L116.014 1088.31C115.826 1088.82 115.588 1089.25 115.298 1089.61C115.008 1089.97 114.663 1090.23 114.262 1090.41C113.862 1090.59 113.397 1090.68 112.869 1090.68ZM32.1381 1101.58L30.4059 1101.89C30.3335 1101.66 30.2184 1101.45 30.0607 1101.25C29.9073 1101.05 29.6985 1100.89 29.4343 1100.76C29.1701 1100.63 28.8398 1100.57 28.4435 1100.57C27.9023 1100.57 27.4506 1100.69 27.0884 1100.93C26.7262 1101.17 26.5451 1101.48 26.5451 1101.86C26.5451 1102.19 26.6665 1102.45 26.9094 1102.65C27.1523 1102.85 27.5444 1103.02 28.0856 1103.14L29.6452 1103.5C30.5487 1103.71 31.2219 1104.03 31.6651 1104.47C32.1083 1104.9 32.3299 1105.47 32.3299 1106.16C32.3299 1106.75 32.1594 1107.27 31.8185 1107.73C31.4819 1108.19 31.011 1108.55 30.4059 1108.81C29.805 1109.07 29.1083 1109.2 28.3157 1109.2C27.2163 1109.2 26.3192 1108.96 25.6246 1108.5C24.93 1108.02 24.5039 1107.35 24.3462 1106.48L26.1935 1106.2C26.3086 1106.68 26.5451 1107.05 26.9031 1107.29C27.261 1107.54 27.7276 1107.66 28.3029 1107.66C28.9293 1107.66 29.43 1107.53 29.805 1107.27C30.18 1107 30.3675 1106.68 30.3675 1106.3C30.3675 1106 30.2525 1105.74 30.0224 1105.53C29.7965 1105.32 29.4492 1105.16 28.9805 1105.06L27.3185 1104.69C26.4023 1104.48 25.7248 1104.15 25.2859 1103.69C24.8512 1103.24 24.6339 1102.66 24.6339 1101.96C24.6339 1101.38 24.7958 1100.88 25.1197 1100.44C25.4435 1100.01 25.891 1099.67 26.462 1099.42C27.033 1099.18 27.6871 1099.05 28.4244 1099.05C29.4854 1099.05 30.3207 1099.28 30.93 1099.74C31.5394 1100.2 31.9421 1100.81 32.1381 1101.58ZM40.6507 1104.93V1099.18H42.5684V1109H40.6891V1107.3H40.5868C40.361 1107.82 39.9988 1108.26 39.5002 1108.61C39.0059 1108.96 38.3901 1109.13 37.6529 1109.13C37.0222 1109.13 36.464 1108.99 35.9782 1108.71C35.4966 1108.43 35.1174 1108.02 34.8404 1107.47C34.5676 1106.92 34.4313 1106.24 34.4313 1105.43V1099.18H36.3425V1105.2C36.3425 1105.87 36.5279 1106.4 36.8986 1106.79C37.2694 1107.19 37.7509 1107.39 38.3432 1107.39C38.7012 1107.39 39.057 1107.3 39.4107 1107.12C39.7686 1106.94 40.0648 1106.67 40.2992 1106.31C40.5378 1105.95 40.655 1105.49 40.6507 1104.93ZM45.1364 1112.68V1099.18H47.0028V1100.77H47.1626C47.2734 1100.57 47.4332 1100.33 47.642 1100.06C47.8509 1099.8 48.1406 1099.56 48.5114 1099.36C48.8821 1099.16 49.3722 1099.05 49.9815 1099.05C50.7741 1099.05 51.4815 1099.25 52.1037 1099.65C52.7259 1100.06 53.2138 1100.63 53.5675 1101.39C53.9254 1102.14 54.1044 1103.05 54.1044 1104.11C54.1044 1105.17 53.9276 1106.08 53.5739 1106.84C53.2202 1107.59 52.7344 1108.18 52.1165 1108.58C51.4986 1108.99 50.7933 1109.19 50.0007 1109.19C49.4041 1109.19 48.9162 1109.09 48.5369 1108.89C48.1619 1108.69 47.8679 1108.46 47.6548 1108.19C47.4418 1107.92 47.2777 1107.68 47.1626 1107.47H47.0476V1112.68H45.1364ZM47.0092 1104.09C47.0092 1104.78 47.1094 1105.39 47.3097 1105.91C47.5099 1106.43 47.7997 1106.83 48.179 1107.13C48.5582 1107.42 49.0227 1107.56 49.5724 1107.56C50.1435 1107.56 50.6207 1107.41 51.0043 1107.11C51.3878 1106.8 51.6776 1106.39 51.8736 1105.86C52.0739 1105.34 52.174 1104.75 52.174 1104.09C52.174 1103.44 52.076 1102.86 51.88 1102.35C51.6882 1101.83 51.3984 1101.42 51.0107 1101.12C50.6271 1100.83 50.1477 1100.68 49.5724 1100.68C49.0185 1100.68 48.5497 1100.82 48.1662 1101.11C47.7869 1101.39 47.4993 1101.79 47.3033 1102.3C47.1072 1102.81 47.0092 1103.41 47.0092 1104.09ZM56.2457 1112.68V1099.18H58.1122V1100.77H58.272C58.3828 1100.57 58.5426 1100.33 58.7514 1100.06C58.9602 1099.8 59.25 1099.56 59.6207 1099.36C59.9915 1099.16 60.4815 1099.05 61.0909 1099.05C61.8835 1099.05 62.5909 1099.25 63.2131 1099.65C63.8352 1100.06 64.3232 1100.63 64.6768 1101.39C65.0348 1102.14 65.2138 1103.05 65.2138 1104.11C65.2138 1105.17 65.0369 1106.08 64.6832 1106.84C64.3295 1107.59 63.8438 1108.18 63.2259 1108.58C62.608 1108.99 61.9027 1109.19 61.1101 1109.19C60.5135 1109.19 60.0256 1109.09 59.6463 1108.89C59.2713 1108.69 58.9773 1108.46 58.7642 1108.19C58.5511 1107.92 58.3871 1107.68 58.272 1107.47H58.157V1112.68H56.2457ZM58.1186 1104.09C58.1186 1104.78 58.2188 1105.39 58.419 1105.91C58.6193 1106.43 58.9091 1106.83 59.2884 1107.13C59.6676 1107.42 60.1321 1107.56 60.6818 1107.56C61.2528 1107.56 61.7301 1107.41 62.1136 1107.11C62.4972 1106.8 62.7869 1106.39 62.983 1105.86C63.1832 1105.34 63.2834 1104.75 63.2834 1104.09C63.2834 1103.44 63.1854 1102.86 62.9893 1102.35C62.7976 1101.83 62.5078 1101.42 62.12 1101.12C61.7365 1100.83 61.2571 1100.68 60.6818 1100.68C60.1278 1100.68 59.6591 1100.82 59.2756 1101.11C58.8963 1101.39 58.6087 1101.79 58.4126 1102.3C58.2166 1102.81 58.1186 1103.41 58.1186 1104.09ZM71.4908 1109.2C70.5703 1109.2 69.767 1108.99 69.081 1108.57C68.3949 1108.14 67.8622 1107.55 67.483 1106.79C67.1037 1106.04 66.9141 1105.15 66.9141 1104.14C66.9141 1103.12 67.1037 1102.23 67.483 1101.46C67.8622 1100.7 68.3949 1100.11 69.081 1099.69C69.767 1099.26 70.5703 1099.05 71.4908 1099.05C72.4112 1099.05 73.2145 1099.26 73.9006 1099.69C74.5866 1100.11 75.1193 1100.7 75.4986 1101.46C75.8778 1102.23 76.0675 1103.12 76.0675 1104.14C76.0675 1105.15 75.8778 1106.04 75.4986 1106.79C75.1193 1107.55 74.5866 1108.14 73.9006 1108.57C73.2145 1108.99 72.4112 1109.2 71.4908 1109.2ZM71.4972 1107.59C72.0938 1107.59 72.5881 1107.44 72.9801 1107.12C73.3722 1106.81 73.6619 1106.39 73.8494 1105.86C74.0412 1105.34 74.1371 1104.76 74.1371 1104.13C74.1371 1103.5 74.0412 1102.93 73.8494 1102.4C73.6619 1101.87 73.3722 1101.45 72.9801 1101.13C72.5881 1100.81 72.0938 1100.65 71.4972 1100.65C70.8963 1100.65 70.3977 1100.81 70.0014 1101.13C69.6094 1101.45 69.3175 1101.87 69.1257 1102.4C68.9382 1102.93 68.8445 1103.5 68.8445 1104.13C68.8445 1104.76 68.9382 1105.34 69.1257 1105.86C69.3175 1106.39 69.6094 1106.81 70.0014 1107.12C70.3977 1107.44 70.8963 1107.59 71.4972 1107.59ZM78.2008 1109V1099.18H80.0481V1100.74H80.1504C80.3294 1100.21 80.6447 1099.8 81.0964 1099.5C81.5524 1099.19 82.068 1099.03 82.6433 1099.03C82.7626 1099.03 82.9032 1099.04 83.0652 1099.05C83.2314 1099.06 83.3613 1099.07 83.4551 1099.08V1100.91C83.3784 1100.89 83.242 1100.86 83.046 1100.84C82.85 1100.81 82.6539 1100.79 82.4579 1100.79C82.0062 1100.79 81.6035 1100.89 81.2498 1101.08C80.9004 1101.27 80.6234 1101.53 80.4189 1101.87C80.2143 1102.2 80.112 1102.58 80.112 1103V1109H78.2008ZM90.2722 1099.18V1100.72H84.9093V1099.18H90.2722ZM86.3475 1096.83H88.2587V1106.12C88.2587 1106.49 88.3141 1106.77 88.4249 1106.95C88.5357 1107.14 88.6784 1107.26 88.8532 1107.33C89.0321 1107.4 89.226 1107.43 89.4348 1107.43C89.5882 1107.43 89.7225 1107.42 89.8375 1107.4C89.9526 1107.37 90.0421 1107.36 90.106 1107.34L90.4512 1108.92C90.3404 1108.97 90.1827 1109.01 89.9782 1109.05C89.7736 1109.1 89.5179 1109.12 89.2111 1109.13C88.7083 1109.14 88.2395 1109.05 87.8049 1108.86C87.3702 1108.67 87.0186 1108.38 86.7502 1107.99C86.4817 1107.6 86.3475 1107.11 86.3475 1106.51V1096.83ZM96.5124 1109.2C95.5451 1109.2 94.712 1108.99 94.0131 1108.58C93.3185 1108.16 92.7816 1107.57 92.4023 1106.82C92.0273 1106.06 91.8398 1105.17 91.8398 1104.15C91.8398 1103.15 92.0273 1102.26 92.4023 1101.5C92.7816 1100.73 93.31 1100.13 93.9876 1099.7C94.6694 1099.27 95.4663 1099.05 96.3782 1099.05C96.9322 1099.05 97.4691 1099.15 97.989 1099.33C98.5089 1099.51 98.9755 1099.8 99.3888 1100.19C99.8022 1100.58 100.128 1101.09 100.367 1101.72C100.605 1102.34 100.725 1103.1 100.725 1103.99V1104.67H92.9201V1103.23H98.8519C98.8519 1102.73 98.7496 1102.29 98.5451 1101.9C98.3406 1101.51 98.0529 1101.2 97.6822 1100.97C97.3157 1100.75 96.8853 1100.63 96.391 1100.63C95.854 1100.63 95.3853 1100.76 94.9847 1101.03C94.5884 1101.29 94.2816 1101.63 94.0643 1102.05C93.8512 1102.47 93.7447 1102.92 93.7447 1103.41V1104.53C93.7447 1105.19 93.8597 1105.75 94.0898 1106.21C94.3242 1106.67 94.6502 1107.02 95.0678 1107.26C95.4854 1107.5 95.9734 1107.62 96.5316 1107.62C96.8938 1107.62 97.2241 1107.57 97.5224 1107.47C97.8207 1107.36 98.0785 1107.2 98.2958 1106.99C98.5131 1106.78 98.6793 1106.53 98.7944 1106.22L100.603 1106.55C100.458 1107.08 100.199 1107.54 99.8235 1107.95C99.4528 1108.34 98.9862 1108.65 98.4237 1108.87C97.8654 1109.09 97.2283 1109.2 96.5124 1109.2ZM106.521 1109.19C105.728 1109.19 105.021 1108.99 104.399 1108.58C103.781 1108.18 103.295 1107.59 102.941 1106.84C102.592 1106.08 102.417 1105.17 102.417 1104.11C102.417 1103.05 102.594 1102.14 102.948 1101.39C103.306 1100.63 103.796 1100.06 104.418 1099.65C105.04 1099.25 105.745 1099.05 106.534 1099.05C107.143 1099.05 107.633 1099.16 108.004 1099.36C108.379 1099.56 108.669 1099.8 108.873 1100.06C109.082 1100.33 109.244 1100.57 109.359 1100.77H109.474V1095.91H111.385V1109H109.519V1107.47H109.359C109.244 1107.68 109.078 1107.92 108.86 1108.19C108.647 1108.46 108.353 1108.69 107.978 1108.89C107.603 1109.09 107.117 1109.19 106.521 1109.19ZM106.943 1107.56C107.492 1107.56 107.957 1107.42 108.336 1107.13C108.72 1106.83 109.009 1106.43 109.205 1105.91C109.406 1105.39 109.506 1104.78 109.506 1104.09C109.506 1103.41 109.408 1102.81 109.212 1102.3C109.016 1101.79 108.728 1101.39 108.349 1101.11C107.97 1100.82 107.501 1100.68 106.943 1100.68C106.367 1100.68 105.888 1100.83 105.504 1101.12C105.121 1101.42 104.831 1101.83 104.635 1102.35C104.443 1102.86 104.347 1103.44 104.347 1104.09C104.347 1104.75 104.445 1105.34 104.642 1105.86C104.838 1106.39 105.127 1106.8 105.511 1107.11C105.899 1107.41 106.376 1107.56 106.943 1107.56Z" fill="#132356"/>
<path d="M40.1953 474.348C40.1271 473.743 39.8459 473.274 39.3516 472.942C38.8572 472.605 38.2351 472.437 37.4851 472.437C36.9482 472.437 36.4837 472.522 36.0916 472.692C35.6996 472.859 35.3949 473.089 35.1776 473.383C34.9645 473.673 34.858 474.003 34.858 474.374C34.858 474.685 34.9304 474.953 35.0753 475.179C35.2244 475.405 35.4183 475.594 35.657 475.748C35.8999 475.897 36.1598 476.023 36.4368 476.125C36.7138 476.223 36.9801 476.304 37.2358 476.368L38.5142 476.7C38.9318 476.803 39.3601 476.941 39.799 477.116C40.2379 477.29 40.6449 477.521 41.0199 477.806C41.3949 478.092 41.6974 478.445 41.9276 478.867C42.1619 479.289 42.2791 479.794 42.2791 480.382C42.2791 481.124 42.0874 481.782 41.7038 482.357C41.3246 482.933 40.7727 483.386 40.0483 483.719C39.3281 484.051 38.4567 484.217 37.4339 484.217C36.4538 484.217 35.6058 484.062 34.8899 483.751C34.174 483.44 33.6136 482.999 33.2088 482.428C32.804 481.852 32.5803 481.17 32.5376 480.382H34.5192C34.5575 480.855 34.7109 481.249 34.9794 481.565C35.2521 481.876 35.5994 482.108 36.0213 482.261C36.4474 482.411 36.9141 482.485 37.4212 482.485C37.9794 482.485 38.4759 482.398 38.9105 482.223C39.3494 482.044 39.6946 481.797 39.946 481.482C40.1974 481.162 40.3232 480.789 40.3232 480.363C40.3232 479.975 40.2124 479.658 39.9908 479.411C39.7734 479.163 39.4773 478.959 39.1023 478.797C38.7315 478.635 38.3118 478.492 37.843 478.369L36.2962 477.947C35.2479 477.661 34.4169 477.241 33.8033 476.688C33.1939 476.134 32.8892 475.401 32.8892 474.489C32.8892 473.734 33.0938 473.076 33.5028 472.513C33.9119 471.951 34.4659 471.514 35.1648 471.203C35.8636 470.888 36.652 470.73 37.5298 470.73C38.4162 470.73 39.1982 470.886 39.8757 471.197C40.5575 471.508 41.0945 471.936 41.4865 472.482C41.8786 473.023 42.0831 473.645 42.1001 474.348H40.1953ZM49.0691 474.182V475.716H43.7061V474.182H49.0691ZM45.1444 471.83H47.0556V481.117C47.0556 481.488 47.111 481.767 47.2218 481.955C47.3326 482.138 47.4753 482.263 47.65 482.332C47.829 482.396 48.0229 482.428 48.2317 482.428C48.3851 482.428 48.5194 482.417 48.6344 482.396C48.7495 482.374 48.839 482.357 48.9029 482.344L49.248 483.923C49.1373 483.966 48.9796 484.009 48.775 484.051C48.5705 484.098 48.3148 484.124 48.008 484.128C47.5051 484.136 47.0364 484.047 46.6017 483.859C46.1671 483.672 45.8155 483.382 45.5471 482.99C45.2786 482.598 45.1444 482.106 45.1444 481.513V471.83ZM57.4027 479.928V474.182H59.3203V484H57.4411V482.3H57.3388C57.1129 482.824 56.7507 483.261 56.2521 483.61C55.7578 483.955 55.142 484.128 54.4048 484.128C53.7741 484.128 53.2159 483.989 52.7301 483.712C52.2486 483.431 51.8693 483.016 51.5923 482.466C51.3196 481.916 51.1832 481.237 51.1832 480.427V474.182H53.0945V480.197C53.0945 480.866 53.2798 481.398 53.6506 481.795C54.0213 482.191 54.5028 482.389 55.0952 482.389C55.4531 482.389 55.8089 482.3 56.1626 482.121C56.5206 481.942 56.8168 481.671 57.0511 481.309C57.2898 480.947 57.407 480.487 57.4027 479.928ZM65.5637 484.192C64.7711 484.192 64.0637 483.989 63.4416 483.585C62.8237 483.175 62.3379 482.594 61.9842 481.839C61.6348 481.081 61.46 480.171 61.46 479.11C61.46 478.049 61.6369 477.141 61.9906 476.387C62.3485 475.633 62.8386 475.055 63.4608 474.655C64.0829 474.254 64.7882 474.054 65.5765 474.054C66.1859 474.054 66.676 474.156 67.0467 474.361C67.4217 474.561 67.7115 474.795 67.916 475.064C68.1248 475.332 68.2868 475.569 68.4018 475.773H68.5169V470.909H70.4281V484H68.5616V482.472H68.4018C68.2868 482.681 68.1206 482.92 67.9032 483.188C67.6902 483.457 67.3961 483.691 67.0211 483.891C66.6461 484.092 66.1603 484.192 65.5637 484.192ZM65.9856 482.562C66.5353 482.562 66.9998 482.417 67.3791 482.127C67.7626 481.833 68.0524 481.426 68.2484 480.906C68.4487 480.386 68.5488 479.781 68.5488 479.091C68.5488 478.409 68.4508 477.812 68.2548 477.301C68.0588 476.79 67.7711 476.391 67.3919 476.106C67.0126 475.82 66.5439 475.678 65.9856 475.678C65.4103 475.678 64.9309 475.827 64.5474 476.125C64.1639 476.423 63.8741 476.83 63.6781 477.346C63.4863 477.862 63.3904 478.443 63.3904 479.091C63.3904 479.747 63.4885 480.337 63.6845 480.862C63.8805 481.386 64.1703 481.801 64.5538 482.108C64.9416 482.411 65.4189 482.562 65.9856 482.562ZM77.3874 484.198C76.4201 484.198 75.587 483.991 74.8881 483.578C74.1935 483.161 73.6566 482.575 73.2773 481.82C72.9023 481.062 72.7148 480.173 72.7148 479.155C72.7148 478.149 72.9023 477.263 73.2773 476.496C73.6566 475.729 74.185 475.13 74.8626 474.7C75.5444 474.269 76.3413 474.054 77.2532 474.054C77.8072 474.054 78.3441 474.146 78.864 474.329C79.3839 474.512 79.8505 474.8 80.2638 475.192C80.6772 475.584 81.0032 476.093 81.2418 476.719C81.4805 477.342 81.5998 478.098 81.5998 478.989V479.666H73.7951V478.234H79.7269C79.7269 477.732 79.6246 477.286 79.4201 476.898C79.2156 476.506 78.9279 476.197 78.5572 475.972C78.1907 475.746 77.7603 475.633 77.266 475.633C76.729 475.633 76.2603 475.765 75.8597 476.029C75.4634 476.289 75.1566 476.63 74.9393 477.052C74.7262 477.469 74.6197 477.923 74.6197 478.413V479.532C74.6197 480.188 74.7347 480.746 74.9648 481.207C75.1992 481.667 75.5252 482.018 75.9428 482.261C76.3604 482.5 76.8484 482.619 77.4066 482.619C77.7688 482.619 78.0991 482.568 78.3974 482.466C78.6957 482.359 78.9535 482.202 79.1708 481.993C79.3881 481.784 79.5543 481.526 79.6694 481.219L81.4783 481.545C81.3335 482.078 81.0735 482.545 80.6985 482.945C80.3278 483.342 79.8612 483.651 79.2987 483.872C78.7404 484.089 78.1033 484.198 77.3874 484.198ZM85.6316 478.17V484H83.7203V474.182H85.5549V475.78H85.6763C85.9022 475.26 86.2559 474.842 86.7374 474.527C87.2232 474.212 87.8347 474.054 88.5719 474.054C89.2409 474.054 89.8269 474.195 90.3297 474.476C90.8326 474.753 91.2225 475.166 91.4995 475.716C91.7765 476.266 91.915 476.945 91.915 477.755V484H90.0037V477.985C90.0037 477.273 89.8184 476.717 89.4476 476.317C89.0769 475.912 88.5676 475.71 87.9199 475.71C87.4767 475.71 87.0826 475.805 86.7374 475.997C86.3965 476.189 86.1259 476.47 85.9256 476.841C85.7296 477.207 85.6316 477.651 85.6316 478.17ZM99.0613 474.182V475.716H93.6983V474.182H99.0613ZM95.1365 471.83H97.0478V481.117C97.0478 481.488 97.1032 481.767 97.214 481.955C97.3248 482.138 97.4675 482.263 97.6422 482.332C97.8212 482.396 98.0151 482.428 98.2239 482.428C98.3773 482.428 98.5115 482.417 98.6266 482.396C98.7417 482.374 98.8311 482.357 98.8951 482.344L99.2402 483.923C99.1294 483.966 98.9718 484.009 98.7672 484.051C98.5627 484.098 98.307 484.124 98.0002 484.128C97.4973 484.136 97.0286 484.047 96.5939 483.859C96.1593 483.672 95.8077 483.382 95.5392 482.99C95.2708 482.598 95.1365 482.106 95.1365 481.513V471.83ZM108.374 476.579L106.642 476.886C106.57 476.664 106.455 476.453 106.297 476.253C106.144 476.053 105.935 475.888 105.671 475.761C105.406 475.633 105.076 475.569 104.68 475.569C104.139 475.569 103.687 475.69 103.325 475.933C102.963 476.172 102.781 476.481 102.781 476.86C102.781 477.188 102.903 477.452 103.146 477.653C103.389 477.853 103.781 478.017 104.322 478.145L105.882 478.503C106.785 478.712 107.458 479.033 107.901 479.468C108.345 479.903 108.566 480.467 108.566 481.162C108.566 481.75 108.396 482.274 108.055 482.734C107.718 483.19 107.247 483.548 106.642 483.808C106.041 484.068 105.345 484.198 104.552 484.198C103.453 484.198 102.556 483.964 101.861 483.495C101.166 483.022 100.74 482.351 100.583 481.482L102.43 481.2C102.545 481.682 102.781 482.046 103.139 482.293C103.497 482.536 103.964 482.658 104.539 482.658C105.166 482.658 105.666 482.528 106.041 482.268C106.416 482.004 106.604 481.682 106.604 481.303C106.604 480.996 106.489 480.738 106.259 480.529C106.033 480.32 105.686 480.163 105.217 480.056L103.555 479.692C102.639 479.483 101.961 479.151 101.522 478.695C101.088 478.239 100.87 477.661 100.87 476.962C100.87 476.383 101.032 475.876 101.356 475.441C101.68 475.006 102.127 474.668 102.698 474.425C103.269 474.178 103.923 474.054 104.661 474.054C105.722 474.054 106.557 474.284 107.166 474.744C107.776 475.2 108.178 475.812 108.374 476.579ZM40.6915 492.909H42.673V501.519C42.673 502.435 42.4578 503.247 42.0274 503.955C41.597 504.658 40.9919 505.212 40.2121 505.616C39.4323 506.017 38.5182 506.217 37.4699 506.217C36.4259 506.217 35.5139 506.017 34.7341 505.616C33.9543 505.212 33.3492 504.658 32.9188 503.955C32.4884 503.247 32.2732 502.435 32.2732 501.519V492.909H34.2483V501.359C34.2483 501.952 34.3783 502.478 34.6382 502.938C34.9024 503.398 35.2753 503.761 35.7568 504.025C36.2384 504.285 36.8094 504.415 37.4699 504.415C38.1347 504.415 38.7078 504.285 39.1894 504.025C39.6752 503.761 40.0459 503.398 40.3016 502.938C40.5615 502.478 40.6915 501.952 40.6915 501.359V492.909ZM45.3912 509.682V496.182H47.2577V497.773H47.4175C47.5283 497.569 47.6881 497.332 47.8969 497.064C48.1057 496.795 48.3955 496.561 48.7662 496.361C49.137 496.156 49.627 496.054 50.2364 496.054C51.029 496.054 51.7364 496.254 52.3586 496.655C52.9807 497.055 53.4687 497.633 53.8224 498.387C54.1803 499.141 54.3593 500.049 54.3593 501.11C54.3593 502.171 54.1824 503.081 53.8287 503.839C53.4751 504.594 52.9893 505.175 52.3714 505.585C51.7535 505.989 51.0482 506.192 50.2556 506.192C49.659 506.192 49.1711 506.092 48.7918 505.891C48.4168 505.691 48.1228 505.457 47.9097 505.188C47.6966 504.92 47.5326 504.681 47.4175 504.472H47.3025V509.682H45.3912ZM47.2641 501.091C47.2641 501.781 47.3643 502.386 47.5645 502.906C47.7648 503.426 48.0546 503.833 48.4339 504.127C48.8131 504.417 49.2776 504.562 49.8273 504.562C50.3983 504.562 50.8756 504.411 51.2591 504.108C51.6427 503.801 51.9324 503.386 52.1285 502.862C52.3287 502.337 52.4289 501.747 52.4289 501.091C52.4289 500.443 52.3309 499.862 52.1349 499.346C51.9431 498.83 51.6533 498.423 51.2655 498.125C50.882 497.827 50.4026 497.678 49.8273 497.678C49.2733 497.678 48.8046 497.82 48.4211 498.106C48.0418 498.391 47.7542 498.79 47.5582 499.301C47.3621 499.812 47.2641 500.409 47.2641 501.091ZM63.8579 498.579L62.1256 498.886C62.0532 498.664 61.9381 498.453 61.7805 498.253C61.627 498.053 61.4182 497.888 61.154 497.761C60.8898 497.633 60.5596 497.569 60.1633 497.569C59.6221 497.569 59.1704 497.69 58.8082 497.933C58.4459 498.172 58.2648 498.481 58.2648 498.86C58.2648 499.188 58.3863 499.452 58.6292 499.653C58.8721 499.853 59.2641 500.017 59.8053 500.145L61.365 500.503C62.2684 500.712 62.9417 501.033 63.3849 501.468C63.828 501.903 64.0496 502.467 64.0496 503.162C64.0496 503.75 63.8792 504.274 63.5383 504.734C63.2016 505.19 62.7307 505.548 62.1256 505.808C61.5248 506.068 60.828 506.198 60.0354 506.198C58.936 506.198 58.039 505.964 57.3444 505.495C56.6498 505.022 56.2236 504.351 56.066 503.482L57.9133 503.2C58.0283 503.682 58.2648 504.046 58.6228 504.293C58.9807 504.536 59.4474 504.658 60.0226 504.658C60.6491 504.658 61.1498 504.528 61.5248 504.268C61.8998 504.004 62.0873 503.682 62.0873 503.303C62.0873 502.996 61.9722 502.738 61.7421 502.529C61.5162 502.32 61.1689 502.163 60.7002 502.056L59.0383 501.692C58.1221 501.483 57.4445 501.151 57.0056 500.695C56.5709 500.239 56.3536 499.661 56.3536 498.962C56.3536 498.383 56.5155 497.876 56.8394 497.441C57.1633 497.006 57.6107 496.668 58.1817 496.425C58.7528 496.178 59.4069 496.054 60.1441 496.054C61.2052 496.054 62.0404 496.284 62.6498 496.744C63.2591 497.2 63.6618 497.812 63.8579 498.579ZM67.9088 502.67L67.896 500.337H68.2284L72.1404 496.182H74.4287L69.9671 500.912H69.6666L67.9088 502.67ZM66.151 506V492.909H68.0622V506H66.151ZM72.3513 506L68.8357 501.334L70.1524 499.998L74.6972 506H72.3513ZM76.1705 506V496.182H78.0818V506H76.1705ZM77.1357 494.667C76.8034 494.667 76.5178 494.556 76.2792 494.335C76.0448 494.109 75.9276 493.84 75.9276 493.529C75.9276 493.214 76.0448 492.945 76.2792 492.724C76.5178 492.498 76.8034 492.385 77.1357 492.385C77.4681 492.385 77.7515 492.498 77.9859 492.724C78.2245 492.945 78.3438 493.214 78.3438 493.529C78.3438 493.84 78.2245 494.109 77.9859 494.335C77.7515 494.556 77.4681 494.667 77.1357 494.667ZM82.5642 492.909V506H80.653V492.909H82.5642ZM87.0466 492.909V506H85.1354V492.909H87.0466ZM93.8493 506.198C92.882 506.198 92.0489 505.991 91.3501 505.578C90.6555 505.161 90.1185 504.575 89.7393 503.82C89.3643 503.062 89.1768 502.173 89.1768 501.155C89.1768 500.149 89.3643 499.263 89.7393 498.496C90.1185 497.729 90.6469 497.13 91.3245 496.7C92.0063 496.269 92.8032 496.054 93.7151 496.054C94.2691 496.054 94.806 496.146 95.3259 496.329C95.8458 496.512 96.3124 496.8 96.7258 497.192C97.1391 497.584 97.4651 498.093 97.7037 498.719C97.9424 499.342 98.0617 500.098 98.0617 500.989V501.666H90.257V500.234H96.1888C96.1888 499.732 96.0866 499.286 95.882 498.898C95.6775 498.506 95.3898 498.197 95.0191 497.972C94.6526 497.746 94.2222 497.633 93.7279 497.633C93.191 497.633 92.7222 497.765 92.3216 498.029C91.9253 498.289 91.6185 498.63 91.4012 499.052C91.1881 499.469 91.0816 499.923 91.0816 500.413V501.532C91.0816 502.188 91.1966 502.746 91.4268 503.207C91.6611 503.667 91.9871 504.018 92.4047 504.261C92.8224 504.5 93.3103 504.619 93.8685 504.619C94.2307 504.619 94.561 504.568 94.8593 504.466C95.1576 504.359 95.4154 504.202 95.6327 503.993C95.8501 503.784 96.0162 503.526 96.1313 503.219L97.9403 503.545C97.7954 504.078 97.5354 504.545 97.1604 504.945C96.7897 505.342 96.3231 505.651 95.7606 505.872C95.2023 506.089 94.5653 506.198 93.8493 506.198ZM103.858 506.192C103.065 506.192 102.358 505.989 101.736 505.585C101.118 505.175 100.632 504.594 100.278 503.839C99.9287 503.081 99.754 502.171 99.754 501.11C99.754 500.049 99.9308 499.141 100.285 498.387C100.642 497.633 101.133 497.055 101.755 496.655C102.377 496.254 103.082 496.054 103.87 496.054C104.48 496.054 104.97 496.156 105.341 496.361C105.716 496.561 106.005 496.795 106.21 497.064C106.419 497.332 106.581 497.569 106.696 497.773H106.811V492.909H108.722V506H106.856V504.472H106.696C106.581 504.681 106.415 504.92 106.197 505.188C105.984 505.457 105.69 505.691 105.315 505.891C104.94 506.092 104.454 506.192 103.858 506.192ZM104.28 504.562C104.829 504.562 105.294 504.417 105.673 504.127C106.057 503.833 106.346 503.426 106.542 502.906C106.743 502.386 106.843 501.781 106.843 501.091C106.843 500.409 106.745 499.812 106.549 499.301C106.353 498.79 106.065 498.391 105.686 498.106C105.307 497.82 104.838 497.678 104.28 497.678C103.704 497.678 103.225 497.827 102.841 498.125C102.458 498.423 102.168 498.83 101.972 499.346C101.78 499.862 101.684 500.443 101.684 501.091C101.684 501.747 101.782 502.337 101.978 502.862C102.174 503.386 102.464 503.801 102.848 504.108C103.236 504.411 103.713 504.562 104.28 504.562Z" fill="#132356"/>
<defs>
<linearGradient id="paint0_linear_8_27" x1="1.66579e-06" y1="94" x2="141" y2="94" gradientUnits="userSpaceOnUse">
<stop stop-color="#8B98D7"/>
<stop offset="1" stop-color="#132356" stop-opacity="0.9"/>
</linearGradient>
<linearGradient id="paint1_linear_8_27" x1="98" y1="14.9362" x2="116" y2="14.9362" gradientUnits="userSpaceOnUse">
<stop stop-color="#8B98D7"/>
<stop offset="1" stop-color="#132356" stop-opacity="0.76"/>
</linearGradient>
<linearGradient id="paint2_linear_8_27" x1="116" y1="27.9716" x2="124" y2="27.9716" gradientUnits="userSpaceOnUse">
<stop stop-color="#8B98D7"/>
<stop offset="1" stop-color="#132356" stop-opacity="0.66"/>
</linearGradient>
<linearGradient id="paint3_linear_8_27" x1="102" y1="2.48227" x2="107" y2="2.48227" gradientUnits="userSpaceOnUse">
<stop stop-color="#8B98D7"/>
<stop offset="1" stop-color="#132356" stop-opacity="0.48"/>
</linearGradient>
<linearGradient id="paint4_linear_8_27" x1="1.66579e-06" y1="671" x2="141" y2="671" gradientUnits="userSpaceOnUse">
<stop stop-color="#8B98D7"/>
<stop offset="1" stop-color="#132356" stop-opacity="0.9"/>
</linearGradient>
<linearGradient id="paint5_linear_8_27" x1="1.66579e-06" y1="979" x2="141" y2="979" gradientUnits="userSpaceOnUse">
<stop stop-color="#8B98D7"/>
<stop offset="1" stop-color="#132356" stop-opacity="0.9"/>
</linearGradient>
<linearGradient id="paint6_linear_8_27" x1="101" y1="597.433" x2="120" y2="597.433" gradientUnits="userSpaceOnUse">
<stop stop-color="#8B98D7"/>
<stop offset="1" stop-color="#132356" stop-opacity="0.81"/>
</linearGradient>
<linearGradient id="paint7_linear_8_27" x1="101" y1="905.433" x2="120" y2="905.433" gradientUnits="userSpaceOnUse">
<stop stop-color="#8B98D7"/>
<stop offset="1" stop-color="#132356" stop-opacity="0.81"/>
</linearGradient>
<linearGradient id="paint8_linear_8_27" x1="120" y1="611.979" x2="126" y2="611.979" gradientUnits="userSpaceOnUse">
<stop stop-color="#8B98D7"/>
<stop offset="1" stop-color="#132356" stop-opacity="0.81"/>
</linearGradient>
<linearGradient id="paint9_linear_8_27" x1="95" y1="892.979" x2="101" y2="892.979" gradientUnits="userSpaceOnUse">
<stop stop-color="#8B98D7"/>
<stop offset="1" stop-color="#132356" stop-opacity="0.81"/>
</linearGradient>
<linearGradient id="paint10_linear_8_27" x1="1.66579e-06" y1="376" x2="141" y2="376" gradientUnits="userSpaceOnUse">
<stop stop-color="#132356"/>
<stop offset="1" stop-color="#8B98D7" stop-opacity="0.9"/>
</linearGradient>
<linearGradient id="paint11_linear_8_27" x1="113" y1="304.689" x2="128" y2="304.689" gradientUnits="userSpaceOnUse">
<stop stop-color="#132356"/>
<stop offset="1" stop-color="#8B98D7" stop-opacity="0.55"/>
</linearGradient>
<linearGradient id="paint12_linear_8_27" x1="113.958" y1="289.683" x2="118.958" y2="289.683" gradientUnits="userSpaceOnUse">
<stop stop-color="#132356"/>
<stop offset="1" stop-color="#8B98D7" stop-opacity="0.55"/>
</linearGradient>
</defs>
</svg>
